<svg width="24" height="25" viewBox="0 0 24 25" fill="none" xmlns="http://www.w3.org/2000/svg">
<g clip-path="url(#clip0)">
<path d="M21.0353 11.0776C21.2313 11.0776 21.3904 10.9185 21.3904 10.7224V5.15161C21.3904 4.70135 21.024 4.33496 20.5735 4.33496H19.1807V3.2345C19.1807 2.78369 18.8146 2.41766 18.3638 2.41766H16.9254V1.31683C16.9254 0.866577 16.5588 0.5 16.1085 0.5H6.3056C6.1095 0.5 5.95038 0.659119 5.95038 0.855042C5.95038 1.05115 6.1095 1.21027 6.3056 1.21027H16.1085C16.1671 1.21027 16.2151 1.25806 16.2151 1.31683V19.8484C16.2151 19.907 16.1671 19.9548 16.1085 19.9548C15.2272 19.9548 3.8941 19.9548 3.44183 19.9548C3.38306 19.9548 3.33527 19.907 3.33527 19.8484V1.31683C3.33527 1.25806 3.38306 1.21027 3.44183 1.21027H4.88507C5.08099 1.21027 5.24011 1.05115 5.24011 0.855042C5.24011 0.659119 5.08099 0.5 4.88507 0.5H3.44183C2.99158 0.5 2.625 0.866577 2.625 1.31683V19.8484C2.625 20.2986 2.99158 20.665 3.44183 20.665H4.88086V21.7655C4.88086 22.2163 5.2467 22.5823 5.69714 22.5823H7.09021V23.6832C7.09021 24.1334 7.4566 24.5 7.90686 24.5H20.5735C21.024 24.5 21.3904 24.1334 21.3904 23.6832V12.1429C21.3904 11.947 21.2313 11.7879 21.0353 11.7879C20.8389 11.7879 20.6801 11.947 20.6801 12.1429V23.6832C20.6801 23.7419 20.6323 23.7897 20.5735 23.7897H7.90686C7.84827 23.7897 7.80048 23.7419 7.80048 23.6832V22.5823H18.3638C18.8146 22.5823 19.1807 22.2163 19.1807 21.7655V16.8542C19.1807 16.6583 19.0219 16.4992 18.8254 16.4992C18.6293 16.4992 18.4704 16.6583 18.4704 16.8542V21.7655C18.4704 21.8243 18.423 21.8721 18.3638 21.8721C18.026 21.8721 6.03864 21.8721 5.69714 21.8721C5.63837 21.8721 5.59094 21.8243 5.59094 21.7655V20.665H16.1085C16.5588 20.665 16.9254 20.2986 16.9254 19.8484C16.9254 19.3298 16.9254 3.94879 16.9254 3.12793H18.3638C18.423 3.12793 18.4704 3.17572 18.4704 3.2345V5.04523V15.4339C18.4704 15.6304 18.6293 15.7889 18.8254 15.7889C19.0219 15.7889 19.1807 15.6304 19.1807 15.4339V5.04523H20.5735C20.6323 5.04523 20.6801 5.09302 20.6801 5.15161V10.7224C20.6801 10.9185 20.8389 11.0776 21.0353 11.0776Z" fill="#EEEEEE"/>
<path d="M11.7789 4.01544C11.7789 2.91058 10.8801 2.01172 9.77521 2.01172C8.67035 2.01172 7.77148 2.91058 7.77148 4.01544C7.77148 5.1203 8.67035 6.01898 9.77521 6.01898C10.8801 6.01898 11.7789 5.1203 11.7789 4.01544ZM8.48175 4.01544C8.48175 3.30206 9.06201 2.72198 9.77521 2.72198C10.4884 2.72198 11.0687 3.30225 11.0687 4.01544C11.0687 4.72864 10.4884 5.3089 9.77521 5.3089C9.06201 5.3089 8.48175 4.72864 8.48175 4.01544Z" fill="#EEEEEE"/>
<path d="M14.6218 4.37042C14.8181 4.37042 14.977 4.21149 14.977 4.01538C14.977 3.81909 14.8181 3.66016 14.6218 3.66016H12.9566C12.7605 3.66016 12.6016 3.81909 12.6016 4.01538C12.6016 4.21149 12.7605 4.37042 12.9566 4.37042H14.6218Z" fill="#EEEEEE"/>
<path d="M6.5946 3.66016H4.92944C4.73334 3.66016 4.57422 3.81909 4.57422 4.01538C4.57422 4.21149 4.73334 4.37042 4.92944 4.37042H6.5946C6.79071 4.37042 6.94965 4.21149 6.94965 4.01538C6.94965 3.81909 6.79071 3.66016 6.5946 3.66016Z" fill="#EEEEEE"/>
<path d="M5.39453 7.38647C5.39453 7.58258 5.55347 7.74152 5.74957 7.74152H13.7993C13.9954 7.74152 14.1543 7.58258 14.1543 7.38647C14.1543 7.19019 13.9954 7.03125 13.7993 7.03125H5.74957C5.55347 7.03125 5.39453 7.19019 5.39453 7.38647Z" fill="#EEEEEE"/>
<path d="M13.7991 8.75391H5.74957C5.55347 8.75391 5.39453 8.91284 5.39453 9.10895C5.39453 9.30505 5.55347 9.46399 5.74957 9.46399H13.7991C13.9954 9.46399 14.1543 9.30505 14.1543 9.10895C14.1543 8.91284 13.9954 8.75391 13.7991 8.75391Z" fill="#EEEEEE"/>
<path d="M13.7991 10.4746H5.74957C5.55347 10.4746 5.39453 10.6335 5.39453 10.8297C5.39453 11.0259 5.55347 11.1849 5.74957 11.1849H13.7991C13.9954 11.1849 14.1543 11.0259 14.1543 10.8297C14.1543 10.6335 13.9954 10.4746 13.7991 10.4746Z" fill="#EEEEEE"/>
<path d="M13.7991 12.1973H5.74957C5.55347 12.1973 5.39453 12.3562 5.39453 12.5525C5.39453 12.7486 5.55347 12.9075 5.74957 12.9075H13.7991C13.9954 12.9075 14.1543 12.7486 14.1543 12.5525C14.1543 12.3562 13.9954 12.1973 13.7991 12.1973Z" fill="#EEEEEE"/>
<path d="M13.7991 13.9199H5.74957C5.55347 13.9199 5.39453 14.0789 5.39453 14.2751C5.39453 14.4713 5.55347 14.6302 5.74957 14.6302H13.7991C13.9954 14.6302 14.1543 14.4713 14.1543 14.2751C14.1543 14.0789 13.9954 13.9199 13.7991 13.9199Z" fill="#EEEEEE"/>
<path d="M13.9538 15.7211C13.802 15.5968 13.5784 15.6189 13.4539 15.7706L11.7587 17.838L10.9728 17.0679C10.8327 16.9307 10.6079 16.9329 10.4706 17.073C10.3334 17.2131 10.3356 17.4379 10.4757 17.5751L11.3557 18.4377C11.6029 18.6799 12.0044 18.6581 12.2242 18.3904L14.0032 16.221C14.1275 16.0694 14.1054 15.8454 13.9538 15.7211Z" fill="#EEEEEE"/>
</g>
<defs>
<clipPath id="clip0">
<rect width="24" height="24" fill="white" transform="translate(0 0.5)"/>
</clipPath>
</defs>
</svg>
