<svg width="22" height="25" viewBox="0 0 22 25" fill="none" xmlns="http://www.w3.org/2000/svg">
<path d="M11.0178 5.67188C7.62091 5.67188 4.8457 8.44708 4.8457 11.8439C4.8457 13.6201 5.62276 15.3296 6.93266 16.4841C7.90953 17.461 7.82073 19.5479 7.79853 19.5701C7.79853 19.6811 7.82073 19.7699 7.90953 19.8587C7.97614 19.9253 8.08715 19.9697 8.17595 19.9697H13.8374C13.9484 19.9697 14.0372 19.9253 14.1038 19.8587C14.1704 19.7921 14.2148 19.6811 14.2148 19.5701C14.2148 19.5479 14.1038 17.461 15.0807 16.4841C15.1029 16.4619 15.1251 16.4397 15.1473 16.4175C16.435 15.2408 17.1898 13.5757 17.1898 11.8439C17.1898 8.44708 14.4146 5.67188 11.0178 5.67188ZM14.57 15.9068C14.5478 15.929 14.5034 15.9734 14.5034 15.9957C13.6376 16.9281 13.4822 18.46 13.4599 19.1927H8.55338C8.53118 18.46 8.37577 16.8615 7.4433 15.9068C6.26661 14.8856 5.57836 13.3981 5.57836 11.8217C5.57836 8.82451 7.99834 6.40453 10.9956 6.40453C13.9928 6.40453 16.4128 8.82451 16.4128 11.8217C16.4128 13.3981 15.7467 14.8856 14.57 15.9068Z" fill="#EEEEEE"/>
<path d="M10.9966 7.25C10.7968 7.25 10.6191 7.42761 10.6191 7.62743C10.6191 7.82724 10.7968 8.00486 10.9966 8.00486C13.2389 8.00486 15.0373 9.82539 15.0373 12.0456C15.0373 12.2454 15.2149 12.423 15.4147 12.423C15.6145 12.423 15.7921 12.2454 15.7921 12.0456C15.8143 9.40356 13.6608 7.25 10.9966 7.25Z" fill="#EEEEEE"/>
<path d="M13.4589 20.3926H8.53012C8.01949 20.3926 7.59766 20.8144 7.59766 21.325C7.59766 21.8357 8.01949 22.2575 8.53012 22.2575H13.4367C13.9695 22.2353 14.3914 21.8357 14.3914 21.325C14.3914 20.8144 13.9695 20.3926 13.4589 20.3926ZM13.4589 21.4805H8.53012C8.44132 21.4805 8.35251 21.4139 8.35251 21.3028C8.35251 21.1918 8.41912 21.1252 8.53012 21.1252H13.4367C13.5255 21.1252 13.6143 21.1918 13.6143 21.3028C13.6143 21.4139 13.5477 21.4805 13.4589 21.4805Z" fill="#EEEEEE"/>
<path d="M12.728 22.6348H9.2645C8.75386 22.6348 8.33203 23.0566 8.33203 23.5672C8.33203 24.0779 8.75386 24.4997 9.2645 24.4997H12.728C13.2386 24.4997 13.6604 24.0779 13.6604 23.5672C13.6604 23.0344 13.2386 22.6348 12.728 22.6348ZM12.728 23.7226H9.2645C9.17569 23.7226 9.08689 23.656 9.08689 23.545C9.08689 23.434 9.15349 23.3674 9.2645 23.3674H12.728C12.8168 23.3674 12.9056 23.434 12.9056 23.545C12.9056 23.656 12.8168 23.7226 12.728 23.7226Z" fill="#EEEEEE"/>
<path d="M10.9966 3.83025C11.2186 3.83025 11.374 3.65264 11.374 3.45282V0.877429C11.374 0.677614 11.1964 0.5 10.9966 0.5C10.7968 0.5 10.6191 0.677614 10.6191 0.877429V3.45282C10.6191 3.65264 10.7968 3.83025 10.9966 3.83025Z" fill="#EEEEEE"/>
<path d="M17.2785 2.40931C17.1009 2.2761 16.8789 2.34271 16.7679 2.49812L15.347 4.62948C15.2138 4.80709 15.2582 5.05131 15.4358 5.16232C15.5024 5.20672 15.569 5.22893 15.6356 5.22893C15.7688 5.22893 15.8798 5.16232 15.9464 5.05131L17.3674 2.91995C17.5006 2.76454 17.4562 2.52032 17.2785 2.40931Z" fill="#EEEEEE"/>
<path d="M6.4888 5.14133C6.5554 5.14133 6.62201 5.11913 6.68861 5.07473C6.86623 4.96372 6.91063 4.7195 6.79962 4.54189L5.42312 2.38833C5.31211 2.21071 5.06789 2.16631 4.89028 2.27732C4.71267 2.38833 4.66826 2.63254 4.77927 2.81016L6.15577 4.96372C6.24458 5.09693 6.35559 5.14133 6.4888 5.14133Z" fill="#EEEEEE"/>
<path d="M3.80258 7.49464L1.56021 6.27354C1.3826 6.18473 1.13838 6.25134 1.04957 6.42895C0.938562 6.60657 1.00517 6.85079 1.20498 6.93959L3.44735 8.16069C3.51396 8.18289 3.55836 8.20509 3.62497 8.20509C3.75818 8.20509 3.89139 8.13849 3.95799 8.00528C4.0468 7.82766 3.98019 7.58344 3.80258 7.49464Z" fill="#EEEEEE"/>
<path d="M20.9639 6.42895C20.8751 6.25134 20.6309 6.18473 20.4533 6.27354L18.1887 7.49464C18.0111 7.58344 17.9445 7.82766 18.0333 8.00528C18.0999 8.13849 18.2331 8.20509 18.3663 8.20509C18.4329 8.20509 18.4995 8.18289 18.5439 8.16069L20.8085 6.93959C20.9861 6.85079 21.0527 6.60657 20.9639 6.42895Z" fill="#EEEEEE"/>
</svg>
