<svg width="30" height="31" viewBox="0 0 30 31" fill="none" xmlns="http://www.w3.org/2000/svg">
<g clip-path="url(#clip0)">
<path d="M29.9992 20.802C29.9992 17.0792 27.8635 13.7568 24.6649 12.1406C24.5656 19.2785 18.7785 25.0656 11.6406 25.1649C13.2568 28.3635 16.5792 30.4992 20.302 30.4992C22.0474 30.4992 23.7448 30.0344 25.2362 29.1511L29.9569 30.4569L28.6511 25.7362C29.5344 24.2448 29.9992 22.5474 29.9992 20.802Z" fill="#262626"/>
<path d="M22.9102 11.9551C22.9102 5.63863 17.7715 0.5 11.4551 0.5C5.13863 0.5 0 5.63863 0 11.9551C0 14.0136 0.547943 16.018 1.58844 17.7776L0.0421143 23.3678L5.63255 21.8217C7.3922 22.8622 9.39651 23.4102 11.4551 23.4102C17.7715 23.4102 22.9102 18.2715 22.9102 11.9551ZM9.69727 9.28906H7.93945C7.93945 7.35043 9.51645 5.77344 11.4551 5.77344C13.3937 5.77344 14.9707 7.35043 14.9707 9.28906C14.9707 10.273 14.5541 11.2188 13.8274 11.8834L12.334 13.2503V14.6211H10.5762V12.4762L12.6407 10.5866C13.0096 10.249 13.2129 9.78825 13.2129 9.28906C13.2129 8.31975 12.4244 7.53125 11.4551 7.53125C10.4858 7.53125 9.69727 8.31975 9.69727 9.28906ZM10.5762 16.3789H12.334V18.1367H10.5762V16.3789Z" fill="#262626"/>
</g>
<defs>
<clipPath id="clip0">
<rect width="30" height="30" fill="white" transform="translate(0 0.5)"/>
</clipPath>
</defs>
</svg>
