<svg width="121" height="33" viewBox="0 0 121 33" fill="none" xmlns="http://www.w3.org/2000/svg">
<path d="M29.864 23.472C30.176 23.472 30.416 23.616 30.584 23.904C30.776 24.192 30.872 24.588 30.872 25.092C30.872 26.028 30.644 26.772 30.188 27.324C28.844 28.932 27.536 30.06 26.264 30.708C25.016 31.356 23.504 31.68 21.728 31.68C20.48 31.68 19.328 31.524 18.272 31.212C17.216 30.9 15.932 30.432 14.42 29.808C13.052 29.208 11.732 28.716 10.46 28.332C9.236 30.564 7.4 31.68 4.952 31.68C3.608 31.68 2.54 31.38 1.748 30.78C0.932 30.156 0.524 29.364 0.524 28.404C0.524 27.228 1.088 26.256 2.216 25.488C3.344 24.696 4.844 24.3 6.716 24.3H7.184L7.832 13.824C7.976 11.424 8.408 9.444 9.128 7.884C9.848 6.324 10.844 4.992 12.116 3.888C13.22 2.928 14.48 2.208 15.896 1.728C17.312 1.224 18.812 0.971998 20.396 0.971998C22.988 0.971998 24.98 1.644 26.372 2.988C27.764 4.332 28.46 6.084 28.46 8.244C28.46 9.708 28.196 10.896 27.668 11.808C27.14 12.696 26.408 13.14 25.472 13.14C24.8 13.14 24.272 12.984 23.888 12.672C23.504 12.336 23.312 11.868 23.312 11.268C23.312 11.052 23.36 10.656 23.456 10.08C23.6 9.408 23.672 8.808 23.672 8.28C23.672 7.272 23.372 6.48 22.772 5.904C22.196 5.304 21.308 5.004 20.108 5.004C17.996 5.004 16.364 5.7 15.212 7.092C14.06 8.46 13.328 10.62 13.016 13.572L12.188 21.744C12.068 22.896 11.912 23.892 11.72 24.732C13.256 24.996 15.176 25.416 17.48 25.992C18.824 26.328 19.856 26.568 20.576 26.712C21.296 26.856 21.932 26.928 22.484 26.928C23.876 26.928 25.064 26.7 26.048 26.244C27.056 25.764 28.004 25.008 28.892 23.976C29.18 23.64 29.504 23.472 29.864 23.472ZM32.3787 31.68C30.8907 31.68 29.7027 31.14 28.8147 30.06C27.9267 28.98 27.4827 27.564 27.4827 25.812C27.4827 23.892 27.9267 22.08 28.8147 20.376C29.7027 18.648 30.8787 17.268 32.3427 16.236C33.8307 15.18 35.4027 14.652 37.0587 14.652C37.5867 14.652 37.9347 14.76 38.1027 14.976C38.2947 15.168 38.4507 15.528 38.5707 16.056C39.0747 15.96 39.6027 15.912 40.1547 15.912C41.3307 15.912 41.9187 16.332 41.9187 17.172C41.9187 17.676 41.7387 18.876 41.3787 20.772C40.8267 23.532 40.5507 25.452 40.5507 26.532C40.5507 26.892 40.6347 27.18 40.8027 27.396C40.9947 27.612 41.2347 27.72 41.5227 27.72C41.9787 27.72 42.5307 27.432 43.1787 26.856C43.8267 26.256 44.7027 25.296 45.8067 23.976C46.0947 23.64 46.4187 23.472 46.7787 23.472C47.0907 23.472 47.3307 23.616 47.4987 23.904C47.6907 24.192 47.7867 24.588 47.7867 25.092C47.7867 26.052 47.5587 26.796 47.1027 27.324C46.1187 28.548 45.0747 29.58 43.9707 30.42C42.8667 31.26 41.7987 31.68 40.7667 31.68C39.9747 31.68 39.2427 31.416 38.5707 30.888C37.9227 30.336 37.4307 29.592 37.0947 28.656C35.8467 30.672 34.2747 31.68 32.3787 31.68ZM33.6747 28.044C34.2027 28.044 34.7067 27.732 35.1867 27.108C35.6667 26.484 36.0147 25.656 36.2307 24.624L37.5627 18C36.5547 18.024 35.6187 18.408 34.7547 19.152C33.9147 19.872 33.2427 20.832 32.7387 22.032C32.2347 23.232 31.9827 24.504 31.9827 25.848C31.9827 26.592 32.1267 27.144 32.4147 27.504C32.7267 27.864 33.1467 28.044 33.6747 28.044ZM47.4168 31.68C46.5048 31.68 45.8568 31.2 45.4728 30.24C45.1128 29.28 44.9328 27.744 44.9328 25.632C44.9328 22.512 45.3768 19.548 46.2648 16.74C46.4808 16.044 46.8288 15.54 47.3088 15.228C47.8128 14.892 48.5088 14.724 49.3968 14.724C49.8768 14.724 50.2128 14.784 50.4048 14.904C50.5968 15.024 50.6928 15.252 50.6928 15.588C50.6928 15.972 50.5128 16.836 50.1528 18.18C49.9128 19.14 49.7208 19.98 49.5768 20.7C49.4328 21.42 49.3128 22.308 49.2168 23.364C50.0088 21.3 50.8968 19.62 51.8808 18.324C52.8648 17.028 53.8248 16.104 54.7608 15.552C55.7208 15 56.5968 14.724 57.3888 14.724C58.1568 14.724 58.7328 14.928 59.1168 15.336C59.5248 15.72 59.7288 16.296 59.7288 17.064C59.7288 17.688 59.5968 18.864 59.3328 20.592C59.0928 22.056 58.9008 23.448 58.7568 24.768C58.6128 26.064 58.5408 27.516 58.5408 29.124C58.5408 30.036 58.3488 30.696 57.9648 31.104C57.6048 31.488 57.0048 31.68 56.1648 31.68C55.3728 31.68 54.7968 31.476 54.4368 31.068C54.0768 30.66 53.8968 30.048 53.8968 29.232C53.8968 28.272 54.0648 26.688 54.4008 24.48C54.6888 22.56 54.8328 21.336 54.8328 20.808C54.8328 20.424 54.7008 20.232 54.4368 20.232C54.1248 20.232 53.6808 20.64 53.1048 21.456C52.5528 22.248 51.9768 23.304 51.3768 24.624C50.8008 25.944 50.3328 27.336 49.9728 28.8C49.7088 29.928 49.3968 30.696 49.0368 31.104C48.7008 31.488 48.1608 31.68 47.4168 31.68ZM92.909 23.472C93.221 23.472 93.461 23.616 93.629 23.904C93.821 24.192 93.917 24.588 93.917 25.092C93.917 26.052 93.689 26.796 93.233 27.324C92.345 28.404 91.085 29.4 89.453 30.312C87.845 31.224 86.117 31.68 84.269 31.68C81.749 31.68 79.793 30.996 78.401 29.628C77.009 28.26 76.313 26.388 76.313 24.012C76.313 22.356 76.661 20.82 77.357 19.404C78.053 17.964 79.013 16.824 80.237 15.984C81.485 15.144 82.889 14.724 84.449 14.724C85.841 14.724 86.957 15.144 87.797 15.984C88.637 16.8 89.057 17.916 89.057 19.332C89.057 20.988 88.457 22.416 87.257 23.616C86.081 24.792 84.077 25.728 81.245 26.424C81.845 27.528 82.985 28.08 84.665 28.08C85.745 28.08 86.969 27.708 88.337 26.964C89.729 26.196 90.929 25.2 91.937 23.976C92.225 23.64 92.549 23.472 92.909 23.472ZM83.837 18.252C82.949 18.252 82.193 18.768 81.569 19.8C80.969 20.832 80.669 22.08 80.669 23.544V23.616C82.085 23.28 83.201 22.776 84.017 22.104C84.833 21.432 85.241 20.652 85.241 19.764C85.241 19.308 85.109 18.948 84.845 18.684C84.605 18.396 84.269 18.252 83.837 18.252ZM105.53 19.656C106.058 19.656 106.502 19.848 106.862 20.232C107.246 20.592 107.438 21.048 107.438 21.6C107.438 21.912 107.366 22.248 107.222 22.608C106.838 23.496 106.298 24.24 105.602 24.84C104.906 25.44 104.138 25.74 103.298 25.74C102.626 25.74 102.05 25.5 101.57 25.02C101.114 24.54 100.886 23.892 100.886 23.076C100.886 22.62 100.91 22.128 100.958 21.6C101.006 21.216 101.03 20.952 101.03 20.808C101.03 20.616 100.982 20.472 100.886 20.376C100.814 20.28 100.718 20.232 100.598 20.232C100.262 20.232 99.8058 20.64 99.2298 21.456C98.6538 22.248 98.0778 23.304 97.5018 24.624C96.9258 25.944 96.4578 27.336 96.0978 28.8C95.8338 29.952 95.5338 30.72 95.1978 31.104C94.8618 31.488 94.3098 31.68 93.5418 31.68C92.6298 31.68 91.9818 31.2 91.5978 30.24C91.2378 29.28 91.0578 27.744 91.0578 25.632C91.0578 22.512 91.5018 19.548 92.3898 16.74C92.6058 16.044 92.9538 15.54 93.4338 15.228C93.9378 14.892 94.6338 14.724 95.5218 14.724C96.0018 14.724 96.3378 14.784 96.5298 14.904C96.7218 15.024 96.8178 15.252 96.8178 15.588C96.8178 15.972 96.6378 16.836 96.2778 18.18C96.0378 19.14 95.8458 19.98 95.7018 20.7C95.5578 21.42 95.4378 22.308 95.3418 23.364C96.1338 21.3 97.0218 19.62 98.0058 18.324C98.9898 17.028 99.9498 16.104 100.886 15.552C101.822 15 102.674 14.724 103.442 14.724C104.138 14.724 104.666 14.928 105.026 15.336C105.41 15.72 105.602 16.296 105.602 17.064C105.602 17.52 105.47 18.384 105.206 19.656H105.53ZM114.592 32.472C113.344 32.472 112.384 32.184 111.712 31.608C111.064 31.032 110.74 30.384 110.74 29.664C110.74 29.04 110.968 28.5 111.424 28.044C111.88 27.588 112.552 27.36 113.44 27.36C113.752 27.36 114.112 27.396 114.52 27.468C114.952 27.516 115.276 27.552 115.492 27.576C115.468 26.952 115.324 26.364 115.06 25.812C114.82 25.26 114.508 24.732 114.124 24.228C113.74 23.7 113.38 23.244 113.044 22.86C112.3 24.276 111.556 25.452 110.812 26.388C110.092 27.324 109.3 28.212 108.436 29.052C108.004 29.484 107.548 29.7 107.068 29.7C106.684 29.7 106.372 29.568 106.132 29.304C105.892 29.016 105.772 28.668 105.772 28.26C105.772 27.78 105.94 27.336 106.276 26.928L106.744 26.352C108.064 24.72 109.06 23.376 109.732 22.32C110.164 21.624 110.596 20.796 111.028 19.836C111.484 18.876 112.072 17.568 112.792 15.912C113.248 14.856 114.196 14.328 115.636 14.328C116.308 14.328 116.776 14.388 117.04 14.508C117.304 14.628 117.436 14.82 117.436 15.084C117.436 15.228 117.388 15.456 117.292 15.768C117.196 16.08 117.064 16.392 116.896 16.704C116.464 17.568 116.248 18.3 116.248 18.9C116.248 19.26 116.368 19.656 116.608 20.088C116.872 20.52 117.268 21.06 117.796 21.708C118.564 22.716 119.14 23.58 119.524 24.3C119.932 24.996 120.136 25.764 120.136 26.604C120.136 27.612 119.896 28.572 119.416 29.484C118.96 30.372 118.312 31.092 117.472 31.644C116.632 32.196 115.672 32.472 114.592 32.472Z" fill="white"/>
<path d="M68.9943 31.68C66.7143 31.68 64.9263 31.02 63.6303 29.7C62.3583 28.356 61.7223 26.592 61.7223 24.408C61.7223 22.464 62.1063 20.76 62.8743 19.296C63.6423 17.832 64.6383 16.704 65.8623 15.912C67.0863 15.12 68.3703 14.724 69.7143 14.724C71.0343 14.724 72.0543 15.12 72.7743 15.912C73.5183 16.68 73.8903 17.676 73.8903 18.9C73.8903 19.908 73.6623 20.76 73.2063 21.456C72.7743 22.152 72.1983 22.5 71.4783 22.5C71.0223 22.5 70.6503 22.392 70.3623 22.176C70.0983 21.96 69.9663 21.66 69.9663 21.276C69.9663 21.108 69.9903 20.916 70.0383 20.7C70.0863 20.484 70.1223 20.328 70.1463 20.232C70.2663 19.872 70.3263 19.536 70.3263 19.224C70.3263 18.912 70.2423 18.672 70.0743 18.504C69.9303 18.336 69.7143 18.252 69.4263 18.252C68.8743 18.252 68.3583 18.504 67.8783 19.008C67.3983 19.488 67.0143 20.148 66.7263 20.988C66.4383 21.828 66.2943 22.752 66.2943 23.76C66.2943 25.128 66.5703 26.172 67.1223 26.892C67.6983 27.588 68.5023 27.936 69.5343 27.936C70.3503 27.936 71.0943 27.696 71.7663 27.216C72.4623 26.736 73.1463 26.028 73.8183 25.092C74.1063 24.732 74.4303 24.552 74.7903 24.552C75.1023 24.552 75.3423 24.696 75.5103 24.984C75.7023 25.272 75.7983 25.668 75.7983 26.172C75.7983 27.036 75.5943 27.78 75.1863 28.404C74.5383 29.412 73.6863 30.216 72.6303 30.816C71.5743 31.392 70.3623 31.68 68.9943 31.68Z" fill="#00F9FF"/>
</svg>
