<svg width="24" height="24" viewBox="0 0 24 24" fill="none" xmlns="http://www.w3.org/2000/svg">
<g clip-path="url(#clip0)">
<path d="M21.0353 10.5776C21.2313 10.5776 21.3904 10.4185 21.3904 10.2224V4.65161C21.3904 4.20135 21.024 3.83496 20.5735 3.83496H19.1807V2.7345C19.1807 2.28369 18.8146 1.91766 18.3638 1.91766H16.9254V0.816833C16.9254 0.366577 16.5588 0 16.1085 0H6.3056C6.1095 0 5.95038 0.159119 5.95038 0.355042C5.95038 0.551147 6.1095 0.710266 6.3056 0.710266H16.1085C16.1671 0.710266 16.2151 0.758057 16.2151 0.816833V19.3484C16.2151 19.407 16.1671 19.4548 16.1085 19.4548C15.2272 19.4548 3.8941 19.4548 3.44183 19.4548C3.38306 19.4548 3.33527 19.407 3.33527 19.3484V0.816833C3.33527 0.758057 3.38306 0.710266 3.44183 0.710266H4.88507C5.08099 0.710266 5.24011 0.551147 5.24011 0.355042C5.24011 0.159119 5.08099 0 4.88507 0H3.44183C2.99158 0 2.625 0.366577 2.625 0.816833V19.3484C2.625 19.7986 2.99158 20.165 3.44183 20.165H4.88086V21.2655C4.88086 21.7163 5.2467 22.0823 5.69714 22.0823H7.09021V23.1832C7.09021 23.6334 7.4566 24 7.90686 24H20.5735C21.024 24 21.3904 23.6334 21.3904 23.1832V11.6429C21.3904 11.447 21.2313 11.2879 21.0353 11.2879C20.8389 11.2879 20.6801 11.447 20.6801 11.6429V23.1832C20.6801 23.2419 20.6323 23.2897 20.5735 23.2897H7.90686C7.84827 23.2897 7.80048 23.2419 7.80048 23.1832V22.0823H18.3638C18.8146 22.0823 19.1807 21.7163 19.1807 21.2655V16.3542C19.1807 16.1583 19.0219 15.9992 18.8254 15.9992C18.6293 15.9992 18.4704 16.1583 18.4704 16.3542V21.2655C18.4704 21.3243 18.423 21.3721 18.3638 21.3721C18.026 21.3721 6.03864 21.3721 5.69714 21.3721C5.63837 21.3721 5.59094 21.3243 5.59094 21.2655V20.165H16.1085C16.5588 20.165 16.9254 19.7986 16.9254 19.3484C16.9254 18.8298 16.9254 3.44879 16.9254 2.62793H18.3638C18.423 2.62793 18.4704 2.67572 18.4704 2.7345V4.54523V14.9339C18.4704 15.1304 18.6293 15.2889 18.8254 15.2889C19.0219 15.2889 19.1807 15.1304 19.1807 14.9339V4.54523H20.5735C20.6323 4.54523 20.6801 4.59302 20.6801 4.65161V10.2224C20.6801 10.4185 20.8389 10.5776 21.0353 10.5776Z" fill="white"/>
<path d="M11.779 3.51569C11.779 2.41083 10.8801 1.51196 9.77527 1.51196C8.67041 1.51196 7.77155 2.41083 7.77155 3.51569C7.77155 4.62054 8.67041 5.51923 9.77527 5.51923C10.8801 5.51923 11.779 4.62054 11.779 3.51569ZM8.48181 3.51569C8.48181 2.80231 9.06207 2.22223 9.77527 2.22223C10.4885 2.22223 11.0687 2.80249 11.0687 3.51569C11.0687 4.22888 10.4885 4.80914 9.77527 4.80914C9.06207 4.80914 8.48181 4.22888 8.48181 3.51569Z" fill="white"/>
<path d="M14.621 3.87067C14.8173 3.87067 14.9762 3.71173 14.9762 3.51562C14.9762 3.31934 14.8173 3.1604 14.621 3.1604H12.9558C12.7597 3.1604 12.6008 3.31934 12.6008 3.51562C12.6008 3.71173 12.7597 3.87067 12.9558 3.87067H14.621Z" fill="white"/>
<path d="M6.59473 3.1604H4.92957C4.73346 3.1604 4.57434 3.31934 4.57434 3.51562C4.57434 3.71173 4.73346 3.87067 4.92957 3.87067H6.59473C6.79083 3.87067 6.94977 3.71173 6.94977 3.51562C6.94977 3.31934 6.79083 3.1604 6.59473 3.1604Z" fill="white"/>
<path d="M5.39539 6.88623C5.39539 7.08234 5.55432 7.24127 5.75043 7.24127H13.8001C13.9962 7.24127 14.1552 7.08234 14.1552 6.88623C14.1552 6.68994 13.9962 6.53101 13.8001 6.53101H5.75043C5.55432 6.53101 5.39539 6.68994 5.39539 6.88623Z" fill="white"/>
<path d="M13.7999 8.25317H5.75043C5.55432 8.25317 5.39539 8.41211 5.39539 8.60822C5.39539 8.80432 5.55432 8.96326 5.75043 8.96326H13.7999C13.9962 8.96326 14.1552 8.80432 14.1552 8.60822C14.1552 8.41211 13.9962 8.25317 13.7999 8.25317Z" fill="white"/>
<path d="M13.7999 9.9751H5.75043C5.55432 9.9751 5.39539 10.134 5.39539 10.3301C5.39539 10.5264 5.55432 10.6854 5.75043 10.6854H13.7999C13.9962 10.6854 14.1552 10.5264 14.1552 10.3301C14.1552 10.134 13.9962 9.9751 13.7999 9.9751Z" fill="white"/>
<path d="M13.7999 11.697H5.75043C5.55432 11.697 5.39539 11.856 5.39539 12.0522C5.39539 12.2484 5.55432 12.4073 5.75043 12.4073H13.7999C13.9962 12.4073 14.1552 12.2484 14.1552 12.0522C14.1552 11.856 13.9962 11.697 13.7999 11.697Z" fill="white"/>
<path d="M13.7999 13.4189H5.75043C5.55432 13.4189 5.39539 13.5779 5.39539 13.7742C5.39539 13.9703 5.55432 14.1292 5.75043 14.1292H13.7999C13.9962 14.1292 14.1552 13.9703 14.1552 13.7742C14.1552 13.5779 13.9962 13.4189 13.7999 13.4189Z" fill="white"/>
<path d="M13.9547 15.2211C13.8029 15.0968 13.5793 15.1189 13.4548 15.2706L11.7596 17.338L10.9737 16.5679C10.8337 16.4307 10.6088 16.4329 10.4715 16.573C10.3343 16.7131 10.3365 16.9379 10.4766 17.0751L11.3566 17.9377C11.6038 18.1799 12.0053 18.1581 12.2251 17.8904L14.0041 15.721C14.1284 15.5694 14.1063 15.3454 13.9547 15.2211Z" fill="white"/>
</g>
<defs>
<clipPath id="clip0">
<rect width="24" height="24" fill="white"/>
</clipPath>
</defs>
</svg>
