<svg width="24" height="24" viewBox="0 0 24 24" fill="none" xmlns="http://www.w3.org/2000/svg">
<g clip-path="url(#clip0)">
<path d="M19.3196 5.61788C18.8688 5.47744 18.8009 5.42279 18.8009 5.20051C18.8009 4.97962 18.98 4.80053 19.2009 4.80053C19.4217 4.80053 19.6008 4.97962 19.6008 5.20051H20.4008C20.3992 4.69368 20.0789 4.24265 19.6008 4.07426V3.60059H18.8009V4.07426C18.3228 4.24265 18.0025 4.69368 18.0009 5.20051C18.0009 6.04481 18.6774 6.25555 19.0813 6.3815C19.5328 6.52229 19.6008 6.57718 19.6008 6.80042C19.6006 7.02121 19.4216 7.2002 19.2009 7.2004C18.9801 7.2002 18.8011 7.02121 18.8009 6.80042H18.0009C18.0025 7.30725 18.3228 7.75828 18.8009 7.92662V8.40034H19.6008V7.92667C20.0789 7.75828 20.3992 7.30725 20.4008 6.80042C20.4008 5.95497 19.7239 5.74403 19.3196 5.61788Z" fill="white"/>
<path d="M4.92037 5.61788C4.46959 5.47744 4.40165 5.42279 4.40165 5.20051C4.40165 4.97962 4.58074 4.80053 4.80163 4.80053C5.02251 4.80053 5.20161 4.97962 5.20161 5.20051H6.00157C6.00002 4.69368 5.67968 4.24265 5.20161 4.07426V3.60059H4.40165V4.07426C3.92362 4.24265 3.60323 4.69368 3.60168 5.20051C3.60168 6.04481 4.2782 6.25555 4.68208 6.3815C5.13361 6.52229 5.20161 6.57718 5.20161 6.80042C5.20141 7.02121 5.02241 7.2002 4.80163 7.2004C4.58084 7.2002 4.40185 7.02121 4.40165 6.80042H3.60168C3.60323 7.30725 3.92362 7.75828 4.40165 7.92662V8.40034H5.20161V7.92667C5.67963 7.75828 6.00002 7.30725 6.00157 6.80042C6.00157 5.95497 5.3246 5.74403 4.92037 5.61788Z" fill="white"/>
<path d="M21.4903 9.27525C23.3018 8.01592 23.7494 5.52655 22.49 3.71509C21.2307 1.90364 18.7413 1.45606 16.9299 2.71539C16.8257 2.78784 16.7249 2.86524 16.6281 2.94728C15.6069 0.50356 12.798 -0.64963 10.3543 0.371566C9.09412 0.898139 8.11832 1.93704 7.67159 3.22762C6.92318 2.44306 5.88589 1.99958 4.80164 2.00063C2.59441 1.99883 0.80365 3.78669 0.80185 5.99392C0.800801 7.30166 1.43957 8.52719 2.51221 9.27525C1.07659 9.56664 0.0018921 10.6989 0.0018921 12.0501V23.5995C0.0018421 23.8203 0.180833 23.9994 0.401671 23.9995C0.401721 23.9995 0.401821 23.9995 0.401871 23.9995H23.6007C23.8215 23.9995 24.0006 23.8205 24.0006 23.5997C24.0006 23.5997 24.0006 23.5996 24.0006 23.5995V12.0501C24.0006 10.6988 22.9259 9.56659 21.4903 9.27525ZM17.001 4.80049C17.0006 4.46195 16.9643 4.12437 16.8928 3.79344C18.1102 2.51056 20.1372 2.45756 21.4201 3.67504C22.703 4.89253 22.756 6.91948 21.5385 8.20236C20.321 9.48524 18.294 9.53824 17.0112 8.32075C16.7063 8.03142 16.4614 7.68494 16.2903 7.30106C16.7545 6.54955 17.0005 5.68379 17.001 4.80049ZM16.9221 9.2793C16.5854 9.34625 16.2605 9.46309 15.9583 9.62594C15.5505 9.3186 15.0888 9.09046 14.5969 8.95342C15.0284 8.70303 15.4185 8.3872 15.7533 8.01722C16.0473 8.51724 16.446 8.94777 16.9221 9.2793ZM12.2013 0.800694C14.4103 0.800694 16.201 2.59145 16.201 4.80049C16.201 7.00952 14.4103 8.80028 12.2013 8.80028C9.99222 8.80028 8.20147 7.00952 8.20147 4.80049C8.20397 2.5925 9.99327 0.803244 12.2013 0.800694ZM9.66924 8.87047C9.06527 8.98347 8.49575 9.23486 8.00528 9.60499C7.71684 9.45459 7.40866 9.3456 7.08982 9.28125C7.65579 8.88592 8.10902 8.34995 8.4048 7.72613C8.75509 8.17956 9.18326 8.56709 9.66924 8.87047ZM1.60181 6.00042C1.59766 4.23732 3.02358 2.80474 4.78669 2.80059C5.85129 2.79809 6.84704 3.32641 7.4418 4.20937C7.32121 5.11887 7.4723 6.04367 7.87603 6.86753C7.39896 8.56724 5.6343 9.55844 3.93459 9.08136C2.55391 8.69383 1.60031 7.4344 1.60181 6.00042ZM6.40156 23.1995H0.80185V12.0501C0.80185 10.9197 1.89474 10.0002 3.23842 10.0002H6.36481C6.71044 10.001 7.05293 10.0664 7.37456 10.193C6.74699 10.9166 6.40151 11.8422 6.40156 12.8001V23.1995ZM16.801 23.1995H7.20152V12.8001C7.20352 11.0337 8.63499 9.60224 10.4014 9.60024H13.5012C15.3227 9.60239 16.7989 11.0785 16.801 12.9001V23.1995ZM23.2007 23.1995H17.601V12.9001C17.6008 11.9096 17.2403 10.9531 16.5866 10.209C16.92 10.0716 17.2771 10.0006 17.6377 10.0002H20.7641C22.1077 10.0002 23.2006 10.9197 23.2006 12.0501V23.1995H23.2007Z" fill="white"/>
<path d="M13.9511 5.60057C13.7696 4.89325 13.1315 4.39918 12.4013 4.40068C11.9594 4.40068 11.6013 4.04255 11.6013 3.60072C11.6013 3.1589 11.9594 2.80077 12.4013 2.80077C12.8431 2.80077 13.2012 3.1589 13.2012 3.60072H14.0012C13.999 2.87321 13.5058 2.23895 12.8013 2.05761V1.60083H12.0013V2.05761C11.1472 2.27669 10.6324 3.14665 10.8515 4.00075C11.0329 4.70806 11.6711 5.20214 12.4013 5.20064C12.8431 5.20064 13.2012 5.55877 13.2012 6.0006C13.2012 6.44242 12.8431 6.80055 12.4013 6.80055C11.9597 6.80005 11.6018 6.44217 11.6013 6.0006H10.8014C10.8035 6.72811 11.2967 7.36237 12.0013 7.54371V8.00049H12.8013V7.54371C13.6554 7.32463 14.1702 6.45467 13.9511 5.60057Z" fill="white"/>
</g>
<defs>
<clipPath id="clip0">
<rect width="24" height="24" fill="white"/>
</clipPath>
</defs>
</svg>
