<svg width="22" height="25" viewBox="0 0 22 25" fill="none" xmlns="http://www.w3.org/2000/svg">
<path d="M20.3143 0.5H6.29379C5.49144 0.5 4.83864 1.15279 4.83864 1.95515V5.21151C2.17894 5.97266 0.226562 8.42604 0.226562 11.3269C0.226562 14.2278 2.17889 16.6812 4.83864 17.4423V23.045C4.83864 23.8473 5.49144 24.5001 6.29379 24.5001H17.7513C17.8872 24.5001 18.0175 24.4461 18.1137 24.35L21.6193 20.8443C21.7154 20.7482 21.7694 20.6178 21.7694 20.4819V1.95515C21.7694 1.15279 21.1167 0.5 20.3143 0.5ZM6.29379 1.52503H20.3143C20.5515 1.52503 20.7444 1.71797 20.7444 1.95515V3.50191H5.86367V1.95515C5.86367 1.71797 6.05662 1.52503 6.29379 1.52503ZM1.25159 11.3269C1.25159 8.38538 3.64463 5.99233 6.58611 5.99233C9.5276 5.99233 11.9206 8.38538 11.9206 11.3269C11.9206 14.2683 9.5276 16.6614 6.58611 16.6614C3.64463 16.6614 1.25159 14.2683 1.25159 11.3269ZM5.86367 23.0449V17.6452C6.10089 17.6721 6.34187 17.6865 6.58616 17.6865C8.49637 17.6865 10.2124 16.8397 11.3791 15.5021H14.5194C14.8025 15.5021 15.0319 15.2726 15.0319 14.9896C15.0319 14.7065 14.8025 14.4771 14.5194 14.4771H12.1091C12.5549 13.6985 12.8405 12.8172 12.9215 11.8783H14.5194C14.8024 11.8783 15.0319 11.6488 15.0319 11.3658C15.0319 11.0827 14.8024 10.8532 14.5194 10.8532H12.928C12.8587 9.91637 12.5853 9.03544 12.1526 8.25451H14.5193C14.8024 8.25451 15.0318 8.02506 15.0318 7.742C15.0318 7.45895 14.8024 7.22949 14.5193 7.22949H11.4455C10.2781 5.84702 8.53298 4.96726 6.58602 4.96726C6.34172 4.96726 6.10074 4.98161 5.86352 5.00855V4.52694H20.7443V19.9693H18.6938C17.8914 19.9693 17.2387 20.6221 17.2387 21.4244V23.475H6.29379C6.05662 23.475 5.86367 23.2821 5.86367 23.0449ZM18.2638 22.7501V21.4244C18.2638 21.1873 18.4568 20.9944 18.6939 20.9944H20.0196L18.2638 22.7501Z" fill="white"/>
<path d="M16.534 8.25354H18.236C18.5191 8.25354 18.7485 8.02408 18.7485 7.74103C18.7485 7.45797 18.5191 7.22852 18.236 7.22852H16.534C16.2509 7.22852 16.0215 7.45797 16.0215 7.74103C16.0215 8.02408 16.2509 8.25354 16.534 8.25354Z" fill="white"/>
<path d="M16.534 11.8785H18.236C18.5191 11.8785 18.7485 11.6491 18.7485 11.366C18.7485 11.083 18.5191 10.8535 18.236 10.8535H16.534C16.2509 10.8535 16.0215 11.083 16.0215 11.366C16.0215 11.6491 16.2509 11.8785 16.534 11.8785Z" fill="white"/>
<path d="M16.534 15.5016H18.236C18.5191 15.5016 18.7485 15.2721 18.7485 14.9891C18.7485 14.706 18.5191 14.4766 18.236 14.4766H16.534C16.2509 14.4766 16.0215 14.706 16.0215 14.9891C16.0215 15.2721 16.2509 15.5016 16.534 15.5016Z" fill="white"/>
<path d="M18.2327 19.1266C18.5158 19.1266 18.7452 18.8971 18.7452 18.6141C18.7452 18.331 18.5158 18.1016 18.2327 18.1016H13.4383C13.1552 18.1016 12.9258 18.331 12.9258 18.6141C12.9258 18.8971 13.1552 19.1266 13.4383 19.1266H18.2327Z" fill="white"/>
<path d="M10.5646 8.74182L9.93938 8.11656C9.77098 7.94821 9.54714 7.85547 9.30899 7.85547C9.07084 7.85547 8.847 7.94821 8.6786 8.11656L5.399 11.3962L4.49244 10.4896C4.32409 10.3213 4.1002 10.2285 3.8621 10.2285C3.624 10.2285 3.40011 10.3213 3.23176 10.4896L2.60635 11.115C2.25881 11.4626 2.25881 12.0282 2.6064 12.3757L4.76856 14.5379C4.93696 14.7063 5.16086 14.799 5.399 14.799H5.39905C5.63715 14.799 5.86105 14.7063 6.02935 14.538L10.5647 10.0026C10.9122 9.65502 10.9122 9.0894 10.5646 8.74182ZM5.39896 13.7187L3.42559 11.7453L3.86205 11.3089L5.03654 12.4834C5.23671 12.6835 5.5612 12.6835 5.76138 12.4834L9.30899 8.93575L9.74546 9.37221L5.39896 13.7187Z" fill="white"/>
</svg>
