<svg width="24" height="24" viewBox="0 0 24 24" fill="none" xmlns="http://www.w3.org/2000/svg">
<g clip-path="url(#clip0)">
<path d="M23.7442 9.75273L12.3679 1.42318C12.1485 1.26259 11.8505 1.26259 11.6312 1.42318L0.254712 9.75273C-0.0231628 9.95621 -0.0835378 10.3464 0.119947 10.6243C0.323431 10.9021 0.713665 10.9624 0.991493 10.759L11.9995 2.69916L23.0075 10.759C23.1185 10.8403 23.2475 10.8795 23.3753 10.8795C23.5673 10.8795 23.7568 10.7911 23.879 10.6242C24.0825 10.3464 24.0221 9.95621 23.7442 9.75273Z" fill="white"/>
<path d="M20.7292 10.9004C20.3849 10.9004 20.1057 11.1796 20.1057 11.524V21.4497H15.1171V16.0316C15.1171 14.3122 13.7183 12.9135 11.999 12.9135C10.2797 12.9135 8.88088 14.3123 8.88088 16.0316V21.4497H3.8923V11.524C3.8923 11.1796 3.61306 10.9004 3.26872 10.9004C2.92438 10.9004 2.64514 11.1796 2.64514 11.524V22.0734C2.64514 22.4178 2.92438 22.697 3.26872 22.697H9.50445C9.83239 22.697 10.1008 22.4436 10.1256 22.1219C10.1271 22.1074 10.128 22.0914 10.128 22.0734V16.0317C10.128 15 10.9673 14.1607 11.999 14.1607C13.0307 14.1607 13.87 15 13.87 16.0317V22.0734C13.87 22.0913 13.8709 22.107 13.8724 22.1214C13.897 22.4433 14.1654 22.697 14.4935 22.697H20.7293C21.0737 22.697 21.3529 22.4178 21.3529 22.0734V11.524C21.3528 11.1796 21.0736 10.9004 20.7292 10.9004Z" fill="white"/>
</g>
<defs>
<clipPath id="clip0">
<rect width="24" height="24" fill="white"/>
</clipPath>
</defs>
</svg>
