<svg width="24" height="24" viewBox="0 0 24 24" fill="none" xmlns="http://www.w3.org/2000/svg">
<g clip-path="url(#clip0)">
<path d="M12.0191 5.17285C8.62225 5.17285 5.84705 7.94806 5.84705 11.3449C5.84705 13.121 6.6241 14.8306 7.934 15.9851C8.91088 16.9619 8.82207 19.0489 8.79987 19.0711C8.79987 19.1821 8.82207 19.2709 8.91088 19.3597C8.97748 19.4263 9.08849 19.4707 9.1773 19.4707H14.8387C14.9497 19.4707 15.0385 19.4263 15.1051 19.3597C15.1717 19.2931 15.2161 19.1821 15.2161 19.0711C15.2161 19.0489 15.1051 16.9619 16.082 15.9851C16.1042 15.9629 16.1264 15.9407 16.1486 15.9185C17.4363 14.7418 18.1912 13.0766 18.1912 11.3449C18.1912 7.94806 15.416 5.17285 12.0191 5.17285ZM15.5714 15.4078C15.5492 15.43 15.5048 15.4744 15.5048 15.4966C14.6389 16.4291 14.4835 17.961 14.4613 18.6937H9.55472C9.53252 17.961 9.37711 16.3625 8.44464 15.4078C7.26795 14.3865 6.5797 12.899 6.5797 11.3227C6.5797 8.32549 8.99968 5.90551 11.9969 5.90551C14.9941 5.90551 17.4141 8.32549 17.4141 11.3227C17.4141 12.899 16.7481 14.3865 15.5714 15.4078Z" fill="white"/>
<path d="M11.9969 6.74976C11.7971 6.74976 11.6194 6.92737 11.6194 7.12718C11.6194 7.327 11.7971 7.50461 11.9969 7.50461C14.2392 7.50461 16.0376 9.32515 16.0376 11.5453C16.0376 11.7451 16.2152 11.9227 16.415 11.9227C16.6148 11.9227 16.7924 11.7451 16.7924 11.5453C16.8146 8.90331 14.6611 6.74976 11.9969 6.74976Z" fill="white"/>
<path d="M14.4598 19.8923H9.53104C9.0204 19.8923 8.59857 20.3142 8.59857 20.8248C8.59857 21.3354 9.0204 21.7573 9.53104 21.7573H14.4376C14.9704 21.7351 15.3923 21.3354 15.3923 20.8248C15.3923 20.3142 14.9704 19.8923 14.4598 19.8923ZM14.4598 20.9802H9.53104C9.44223 20.9802 9.35343 20.9136 9.35343 20.8026C9.35343 20.6916 9.42003 20.625 9.53104 20.625H14.4376C14.5264 20.625 14.6152 20.6916 14.6152 20.8026C14.6152 20.9136 14.5486 20.9802 14.4598 20.9802Z" fill="white"/>
<path d="M13.7279 22.1353H10.2644C9.7538 22.1353 9.33197 22.5571 9.33197 23.0677C9.33197 23.5784 9.7538 24.0002 10.2644 24.0002H13.7279C14.2385 24.0002 14.6604 23.5784 14.6604 23.0677C14.6604 22.5349 14.2385 22.1353 13.7279 22.1353ZM13.7279 23.2231H10.2644C10.1756 23.2231 10.0868 23.1565 10.0868 23.0455C10.0868 22.9345 10.1534 22.8679 10.2644 22.8679H13.7279C13.8167 22.8679 13.9055 22.9345 13.9055 23.0455C13.9055 23.1565 13.8167 23.2231 13.7279 23.2231Z" fill="white"/>
<path d="M11.9969 3.33025C12.2189 3.33025 12.3743 3.15264 12.3743 2.95282V0.377429C12.3743 0.177614 12.1967 0 11.9969 0C11.7971 0 11.6194 0.177614 11.6194 0.377429V2.95282C11.6194 3.15264 11.7971 3.33025 11.9969 3.33025Z" fill="white"/>
<path d="M18.2798 1.90931C18.1022 1.7761 17.8801 1.84271 17.7691 1.99812L16.3482 4.12948C16.215 4.30709 16.2594 4.55131 16.437 4.66232C16.5036 4.70672 16.5702 4.72893 16.6368 4.72893C16.77 4.72893 16.8811 4.66232 16.9477 4.55131L18.3686 2.41995C18.5018 2.26454 18.4574 2.02032 18.2798 1.90931Z" fill="white"/>
<path d="M7.48868 4.6406C7.55528 4.6406 7.62189 4.6184 7.68849 4.57399C7.86611 4.46299 7.91051 4.21877 7.7995 4.04115L6.423 1.88759C6.31199 1.70998 6.06777 1.66558 5.89016 1.77659C5.71254 1.88759 5.66814 2.13181 5.77915 2.30942L7.15565 4.46299C7.24446 4.5962 7.35547 4.6406 7.48868 4.6406Z" fill="white"/>
<path d="M4.80337 6.9939L2.561 5.77281C2.38339 5.684 2.13917 5.75061 2.05036 5.92822C1.93936 6.10583 2.00596 6.35005 2.20578 6.43886L4.44815 7.65996C4.51475 7.68216 4.55916 7.70436 4.62576 7.70436C4.75897 7.70436 4.89218 7.63775 4.95879 7.50454C5.04759 7.32693 4.98099 7.08271 4.80337 6.9939Z" fill="white"/>
<path d="M21.9653 5.92822C21.8765 5.75061 21.6322 5.684 21.4546 5.77281L19.1901 6.9939C19.0124 7.08271 18.9458 7.32693 19.0346 7.50454C19.1013 7.63775 19.2345 7.70436 19.3677 7.70436C19.4343 7.70436 19.5009 7.68216 19.5453 7.65996L21.8099 6.43886C21.9875 6.35005 22.0541 6.10583 21.9653 5.92822Z" fill="white"/>
</g>
<defs>
<clipPath id="clip0">
<rect width="24" height="24" fill="white"/>
</clipPath>
</defs>
</svg>
