<svg width="24" height="24" viewBox="0 0 24 24" fill="none" xmlns="http://www.w3.org/2000/svg">
<path d="M21.4691 1.16602H5.94989C4.60304 1.16602 3.50727 2.25154 3.50727 3.5815L3.40726 17.247H0.378605C0.163967 17.247 0 17.4368 0 17.6514V19.5321C0 21.2927 1.40891 22.7325 3.10931 22.8114V22.834H16.1781V22.8086C16.2753 22.8126 16.3341 22.834 16.4009 22.834H16.4102C18.2237 22.8234 19.6856 21.3452 19.6761 19.5317V7.57897H23.6214C23.836 7.57897 24 7.38464 24 7.17019V3.71947C24.0024 2.31702 22.8716 1.17607 21.4691 1.16602V1.16602ZM3.27935 22.0567H3.27669C1.89417 22.0567 0.777327 20.9141 0.777327 19.5317V18.0243H13.1174V19.5253C13.1144 20.4001 13.4599 21.2401 14.0777 21.8595C14.1433 21.9256 14.212 21.9595 14.2822 22.0567H3.27935ZM18.8988 19.5313C18.8988 20.9141 17.7927 22.0567 16.4096 22.0567H16.4017C15.0117 22.0466 13.8915 20.9154 13.8947 19.5255V17.6514C13.8959 17.4337 13.7237 17.2546 13.5061 17.247H4.18459L4.2846 3.58416C4.2846 2.68025 5.03156 1.94334 5.94989 1.94334H19.6341C19.1912 2.42917 18.8988 3.04386 18.8988 3.72991V19.5313ZM23.2226 3.7263V6.80164H19.6761V3.72915C19.6761 2.75635 20.4853 1.94334 21.4577 1.94334H21.4685C22.4434 1.95302 23.2272 2.74838 23.2226 3.72345V3.7263Z" fill="white"/>
<path d="M9.12697 10.7327L11.1308 12.1027C11.2616 12.1928 11.4345 12.1928 11.5652 12.1027L13.563 10.7331C14.257 10.2596 14.7696 9.26969 14.7696 8.4303V5.65841C14.7738 5.5119 14.693 5.37602 14.5624 5.30941L11.5113 3.80865C11.4043 3.75551 11.2787 3.75551 11.1716 3.80865L8.12628 5.30524C7.99571 5.37185 7.91505 5.50773 7.91942 5.65424V8.4303C7.91942 9.26969 8.43315 10.2596 9.12697 10.7327ZM8.69675 5.89677L11.3445 4.59035L13.9923 5.90038V8.4303C13.9923 9.01576 13.6086 9.76045 13.1244 10.0905L11.34 11.3109L9.56251 10.0907C9.07839 9.76026 8.69675 9.01576 8.69675 8.4303V5.89677Z" fill="white"/>
<path d="M10.6885 9.01752C10.761 9.09154 10.86 9.13348 10.9637 9.13405H10.9646C11.0678 9.13367 11.1667 9.0923 11.2394 9.01904L12.7855 7.47236C12.9375 7.32053 12.9375 7.0742 12.7857 6.92238C12.6341 6.77037 12.3877 6.77037 12.2359 6.92219L10.9659 8.19199L10.4583 7.6794C10.307 7.52682 10.0609 7.52568 9.90832 7.67694C9.75574 7.82819 9.75479 8.07433 9.90585 8.22691L10.6885 9.01752Z" fill="white"/>
<path d="M16.1781 13.2146H6.85021C6.63557 13.2146 6.46155 13.3886 6.46155 13.6033C6.46155 13.8179 6.63557 13.9919 6.85021 13.9919H16.1781C16.3928 13.9919 16.5668 13.8179 16.5668 13.6033C16.5668 13.3886 16.3928 13.2146 16.1781 13.2146Z" fill="white"/>
<path d="M16.1781 15.0122H6.85021C6.63557 15.0122 6.46155 15.1862 6.46155 15.4009C6.46155 15.6155 6.63557 15.7895 6.85021 15.7895H16.1781C16.3928 15.7895 16.5668 15.6155 16.5668 15.4009C16.5668 15.1862 16.3928 15.0122 16.1781 15.0122Z" fill="white"/>
</svg>
