<svg width="24" height="24" viewBox="0 0 24 24" fill="none" xmlns="http://www.w3.org/2000/svg">
<g clip-path="url(#clip0)">
<path d="M21.3146 0H7.29403C6.49168 0 5.83889 0.652795 5.83889 1.45515V4.71151C3.17919 5.47266 1.22681 7.92604 1.22681 10.8269C1.22681 13.7278 3.17914 16.1812 5.83889 16.9423V22.545C5.83889 23.3473 6.49168 24.0001 7.29403 24.0001H18.7515C18.8875 24.0001 19.0178 23.9461 19.1139 23.85L22.6196 20.3443C22.7157 20.2482 22.7697 20.1178 22.7697 19.9819V1.45515C22.7697 0.652795 22.1169 0 21.3146 0ZM7.29403 1.02503H21.3146C21.5517 1.02503 21.7446 1.21797 21.7446 1.45515V3.00191H6.86391V1.45515C6.86391 1.21797 7.05686 1.02503 7.29403 1.02503ZM2.25183 10.8269C2.25183 7.88538 4.64488 5.49233 7.58636 5.49233C10.5278 5.49233 12.9209 7.88538 12.9209 10.8269C12.9209 13.7683 10.5278 16.1614 7.58636 16.1614C4.64488 16.1614 2.25183 13.7683 2.25183 10.8269ZM6.86391 22.5449V17.1452C7.10113 17.1721 7.34211 17.1865 7.58641 17.1865C9.49662 17.1865 11.2127 16.3397 12.3794 15.0021H15.5197C15.8027 15.0021 16.0322 14.7726 16.0322 14.4896C16.0322 14.2065 15.8027 13.9771 15.5197 13.9771H13.1093C13.5551 13.1985 13.8407 12.3172 13.9217 11.3783H15.5196C15.8027 11.3783 16.0321 11.1488 16.0321 10.8658C16.0321 10.5827 15.8027 10.3532 15.5196 10.3532H13.9282C13.8589 9.41637 13.5856 8.53544 13.1528 7.75451H15.5196C15.8026 7.75451 16.0321 7.52506 16.0321 7.242C16.0321 6.95895 15.8026 6.72949 15.5196 6.72949H12.4458C11.2783 5.34702 9.53322 4.46726 7.58626 4.46726C7.34196 4.46726 7.10099 4.48161 6.86376 4.50855V4.02694H21.7445V19.4693H19.694C18.8916 19.4693 18.2389 20.1221 18.2389 20.9244V22.975H7.29403C7.05686 22.975 6.86391 22.7821 6.86391 22.5449ZM19.2641 22.2501V20.9244C19.2641 20.6873 19.457 20.4944 19.6942 20.4944H21.0199L19.2641 22.2501Z" fill="white"/>
<path d="M17.535 7.75452H19.237C19.5201 7.75452 19.7495 7.52506 19.7495 7.242C19.7495 6.95895 19.5201 6.72949 19.237 6.72949H17.535C17.2519 6.72949 17.0225 6.95895 17.0225 7.242C17.0225 7.52506 17.2519 7.75452 17.535 7.75452Z" fill="white"/>
<path d="M17.535 11.379H19.237C19.5201 11.379 19.7495 11.1496 19.7495 10.8665C19.7495 10.5835 19.5201 10.354 19.237 10.354H17.535C17.2519 10.354 17.0225 10.5835 17.0225 10.8665C17.0225 11.1496 17.2519 11.379 17.535 11.379Z" fill="white"/>
<path d="M17.535 15.0026H19.237C19.5201 15.0026 19.7495 14.7731 19.7495 14.4901C19.7495 14.207 19.5201 13.9775 19.237 13.9775H17.535C17.2519 13.9775 17.0225 14.207 17.0225 14.4901C17.0225 14.7731 17.2519 15.0026 17.535 15.0026Z" fill="white"/>
<path d="M19.2337 18.6261C19.5168 18.6261 19.7462 18.3966 19.7462 18.1136C19.7462 17.8305 19.5168 17.6011 19.2337 17.6011H14.4393C14.1562 17.6011 13.9268 17.8305 13.9268 18.1136C13.9268 18.3966 14.1562 18.6261 14.4393 18.6261H19.2337Z" fill="white"/>
<path d="M11.564 8.24182L10.9388 7.61656C10.7704 7.44821 10.5465 7.35547 10.3084 7.35547C10.0702 7.35547 9.84639 7.44821 9.67799 7.61656L6.39839 10.8962L5.49183 9.98959C5.32348 9.82129 5.09959 9.72855 4.86149 9.72855C4.62339 9.72855 4.3995 9.82129 4.23115 9.98964L3.60574 10.615C3.2582 10.9626 3.2582 11.5282 3.60578 11.8757L5.76795 14.0379C5.93635 14.2063 6.16025 14.299 6.39839 14.299H6.39844C6.63654 14.299 6.86044 14.2063 7.02874 14.038L11.5641 9.5026C11.9116 9.15502 11.9116 8.5894 11.564 8.24182ZM6.39835 13.2187L4.42498 11.2453L4.86144 10.8089L6.03593 11.9834C6.2361 12.1835 6.56059 12.1835 6.76077 11.9834L10.3084 8.43575L10.7448 8.87221L6.39835 13.2187Z" fill="white"/>
</g>
<defs>
<clipPath id="clip0">
<rect width="24" height="24" fill="white"/>
</clipPath>
</defs>
</svg>
