<svg width="24" height="24" viewBox="0 0 24 24" fill="none" xmlns="http://www.w3.org/2000/svg">
<path d="M21.4903 9.27525C23.3017 8.01592 23.7493 5.52655 22.49 3.71509C21.2306 1.90364 18.7413 1.45606 16.9298 2.71539C16.8256 2.78784 16.7249 2.86524 16.628 2.94728C15.6068 0.50356 12.7979 -0.64963 10.3542 0.371566C9.09406 0.898139 8.11826 1.93704 7.67153 3.22762C6.92312 2.44306 5.88582 1.99958 4.80158 2.00063C2.59435 1.99883 0.803589 3.78669 0.801789 5.99392C0.800739 7.30166 1.43951 8.52719 2.51215 9.27525C1.07653 9.56664 0.00183107 10.6989 0.00183107 12.0501V23.5995C0.00178107 23.8203 0.180772 23.9994 0.40161 23.9995C0.40166 23.9995 0.40176 23.9995 0.40181 23.9995H23.6006C23.8214 23.9995 24.0005 23.8205 24.0006 23.5997C24.0006 23.5997 24.0006 23.5996 24.0006 23.5995V12.0501C24.0006 10.6988 22.9258 9.56659 21.4903 9.27525ZM17.0009 4.80049C17.0005 4.46195 16.9642 4.12437 16.8927 3.79344C18.1102 2.51056 20.1371 2.45756 21.42 3.67504C22.7029 4.89253 22.7559 6.91948 21.5384 8.20236C20.3209 9.48524 18.294 9.53824 17.0111 8.32075C16.7063 8.03142 16.4613 7.68494 16.2903 7.30106C16.7544 6.54955 17.0004 5.68379 17.0009 4.80049ZM16.922 9.2793C16.5853 9.34625 16.2605 9.46309 15.9583 9.62594C15.5505 9.3186 15.0887 9.09046 14.5968 8.95342C15.0283 8.70303 15.4185 8.3872 15.7532 8.01722C16.0472 8.51724 16.446 8.94777 16.922 9.2793ZM12.2012 0.800694C14.4102 0.800694 16.201 2.59145 16.201 4.80049C16.201 7.00952 14.4102 8.80028 12.2012 8.80028C9.99216 8.80028 8.2014 7.00952 8.2014 4.80049C8.2039 2.5925 9.99321 0.803244 12.2012 0.800694ZM9.66918 8.87047C9.06521 8.98347 8.49569 9.23486 8.00521 9.60499C7.71678 9.45459 7.4086 9.3456 7.08976 9.28125C7.65573 8.88592 8.10896 8.34995 8.40474 7.72613C8.75502 8.17956 9.1832 8.56709 9.66918 8.87047ZM1.60175 6.00042C1.5976 4.23732 3.02352 2.80474 4.78663 2.80059C5.85123 2.79809 6.84697 3.32641 7.44174 4.20937C7.32115 5.11887 7.47224 6.04367 7.87597 6.86753C7.3989 8.56724 5.63424 9.55844 3.93453 9.08136C2.55385 8.69383 1.60025 7.4344 1.60175 6.00042ZM6.4015 23.1995H0.801789V12.0501C0.801789 10.9197 1.89468 10.0002 3.23836 10.0002H6.36475C6.71038 10.001 7.05286 10.0664 7.3745 10.193C6.74693 10.9166 6.40145 11.8422 6.4015 12.8001V23.1995ZM16.801 23.1995H7.20146V12.8001C7.20346 11.0337 8.63493 9.60224 10.4013 9.60024H13.5011C15.3227 9.60239 16.7988 11.0785 16.801 12.9001V23.1995ZM23.2006 23.1995H17.6009V12.9001C17.6008 11.9096 17.2402 10.9531 16.5866 10.209C16.92 10.0716 17.277 10.0006 17.6376 10.0002H20.764C22.1077 10.0002 23.2006 10.9197 23.2006 12.0501V23.1995H23.2006Z" fill="white"/>
</svg>
