<svg width="24" height="24" viewBox="0 0 24 24" fill="none" xmlns="http://www.w3.org/2000/svg">
<g clip-path="url(#clip0)">
<path d="M19.3197 5.61788C18.8689 5.47744 18.8009 5.42279 18.8009 5.20051C18.8009 4.97962 18.98 4.80053 19.2009 4.80053C19.4218 4.80053 19.6009 4.97962 19.6009 5.20051H20.4009C20.3993 4.69368 20.079 4.24265 19.6009 4.07426V3.60059H18.8009V4.07426C18.3229 4.24265 18.0025 4.69368 18.001 5.20051C18.001 6.04481 18.6775 6.25555 19.0814 6.3815C19.5329 6.52229 19.6009 6.57718 19.6009 6.80042C19.6007 7.02121 19.4217 7.2002 19.2009 7.2004C18.9801 7.2002 18.8011 7.02121 18.8009 6.80042H18.001C18.0025 7.30725 18.3229 7.75828 18.8009 7.92662V8.40034H19.6009V7.92667C20.079 7.75828 20.3993 7.30725 20.4009 6.80042C20.4009 5.95497 19.7239 5.74403 19.3197 5.61788Z" fill="white"/>
<path d="M4.92037 5.61788C4.46959 5.47744 4.40165 5.42279 4.40165 5.20051C4.40165 4.97962 4.58074 4.80053 4.80163 4.80053C5.02251 4.80053 5.20161 4.97962 5.20161 5.20051H6.00157C6.00002 4.69368 5.67968 4.24265 5.20161 4.07426V3.60059H4.40165V4.07426C3.92362 4.24265 3.60323 4.69368 3.60168 5.20051C3.60168 6.04481 4.2782 6.25555 4.68208 6.3815C5.13361 6.52229 5.20161 6.57718 5.20161 6.80042C5.20141 7.02121 5.02241 7.2002 4.80163 7.2004C4.58084 7.2002 4.40185 7.02121 4.40165 6.80042H3.60168C3.60323 7.30725 3.92362 7.75828 4.40165 7.92662V8.40034H5.20161V7.92667C5.67963 7.75828 6.00002 7.30725 6.00157 6.80042C6.00157 5.95497 5.3246 5.74403 4.92037 5.61788Z" fill="white"/>
<path d="M21.4903 9.27525C23.3017 8.01592 23.7493 5.52655 22.49 3.71509C21.2306 1.90364 18.7413 1.45606 16.9298 2.71539C16.8256 2.78784 16.7249 2.86524 16.628 2.94728C15.6068 0.50356 12.7979 -0.64963 10.3542 0.371566C9.09406 0.898139 8.11826 1.93704 7.67153 3.22762C6.92312 2.44306 5.88582 1.99958 4.80158 2.00063C2.59435 1.99883 0.803589 3.78669 0.801789 5.99392C0.800739 7.30166 1.43951 8.52719 2.51215 9.27525C1.07653 9.56664 0.00183107 10.6989 0.00183107 12.0501V23.5995C0.00178107 23.8203 0.180772 23.9994 0.40161 23.9995C0.40166 23.9995 0.40176 23.9995 0.40181 23.9995H23.6006C23.8214 23.9995 24.0005 23.8205 24.0006 23.5997C24.0006 23.5997 24.0006 23.5996 24.0006 23.5995V12.0501C24.0006 10.6988 22.9258 9.56659 21.4903 9.27525ZM17.0009 4.80049C17.0005 4.46195 16.9642 4.12437 16.8927 3.79344C18.1102 2.51056 20.1371 2.45756 21.42 3.67504C22.7029 4.89253 22.7559 6.91948 21.5384 8.20236C20.3209 9.48524 18.294 9.53824 17.0111 8.32075C16.7063 8.03142 16.4613 7.68494 16.2903 7.30106C16.7544 6.54955 17.0004 5.68379 17.0009 4.80049ZM16.922 9.2793C16.5853 9.34625 16.2605 9.46309 15.9583 9.62594C15.5505 9.3186 15.0887 9.09046 14.5968 8.95342C15.0283 8.70303 15.4185 8.3872 15.7532 8.01722C16.0472 8.51724 16.446 8.94777 16.922 9.2793ZM12.2012 0.800694C14.4102 0.800694 16.201 2.59145 16.201 4.80049C16.201 7.00952 14.4102 8.80028 12.2012 8.80028C9.99216 8.80028 8.2014 7.00952 8.2014 4.80049C8.2039 2.5925 9.99321 0.803244 12.2012 0.800694ZM9.66918 8.87047C9.06521 8.98347 8.49569 9.23486 8.00521 9.60499C7.71678 9.45459 7.4086 9.3456 7.08976 9.28125C7.65573 8.88592 8.10896 8.34995 8.40474 7.72613C8.75502 8.17956 9.1832 8.56709 9.66918 8.87047ZM1.60175 6.00042C1.5976 4.23732 3.02352 2.80474 4.78663 2.80059C5.85123 2.79809 6.84697 3.32641 7.44174 4.20937C7.32115 5.11887 7.47224 6.04367 7.87597 6.86753C7.3989 8.56724 5.63424 9.55844 3.93453 9.08136C2.55385 8.69383 1.60025 7.4344 1.60175 6.00042ZM6.4015 23.1995H0.801789V12.0501C0.801789 10.9197 1.89468 10.0002 3.23836 10.0002H6.36475C6.71038 10.001 7.05286 10.0664 7.3745 10.193C6.74693 10.9166 6.40145 11.8422 6.4015 12.8001V23.1995ZM16.801 23.1995H7.20146V12.8001C7.20346 11.0337 8.63493 9.60224 10.4013 9.60024H13.5011C15.3227 9.60239 16.7988 11.0785 16.801 12.9001V23.1995ZM23.2006 23.1995H17.6009V12.9001C17.6008 11.9096 17.2402 10.9531 16.5866 10.209C16.92 10.0716 17.277 10.0006 17.6376 10.0002H20.764C22.1077 10.0002 23.2006 10.9197 23.2006 12.0501V23.1995H23.2006Z" fill="white"/>
<path d="M13.9511 5.60032C13.7696 4.89301 13.1315 4.39894 12.4013 4.40044C11.9594 4.40044 11.6013 4.04231 11.6013 3.60048C11.6013 3.15865 11.9594 2.80052 12.4013 2.80052C12.8431 2.80052 13.2012 3.15865 13.2012 3.60048H14.0012C13.999 2.87297 13.5058 2.2387 12.8013 2.05736V1.60059H12.0013V2.05736C11.1472 2.27645 10.6324 3.1464 10.8515 4.00051C11.0329 4.70782 11.6711 5.20189 12.4013 5.20039C12.8431 5.20039 13.2012 5.55853 13.2012 6.00035C13.2012 6.44218 12.8431 6.80031 12.4013 6.80031C11.9597 6.79981 11.6018 6.44193 11.6013 6.00035H10.8014C10.8035 6.72786 11.2967 7.36213 12.0013 7.54347V8.00024H12.8013V7.54347C13.6554 7.32438 14.1702 6.45443 13.9511 5.60032Z" fill="white"/>
</g>
<defs>
<clipPath id="clip0">
<rect width="24" height="24" fill="white"/>
</clipPath>
</defs>
</svg>
