<svg width="24" height="24" viewBox="0 0 24 24" fill="none" xmlns="http://www.w3.org/2000/svg">
<g clip-path="url(#clip0)">
<path d="M12.0191 5.17285C8.62225 5.17285 5.84705 7.94806 5.84705 11.3449C5.84705 13.121 6.6241 14.8306 7.934 15.9851C8.91088 16.9619 8.82207 19.0489 8.79987 19.0711C8.79987 19.1821 8.82207 19.2709 8.91088 19.3597C8.97748 19.4263 9.08849 19.4707 9.1773 19.4707H14.8387C14.9497 19.4707 15.0385 19.4263 15.1051 19.3597C15.1717 19.2931 15.2161 19.1821 15.2161 19.0711C15.2161 19.0489 15.1051 16.9619 16.082 15.9851C16.1042 15.9629 16.1264 15.9407 16.1486 15.9185C17.4363 14.7418 18.1912 13.0766 18.1912 11.3449C18.1912 7.94806 15.416 5.17285 12.0191 5.17285ZM15.5714 15.4078C15.5492 15.43 15.5048 15.4744 15.5048 15.4966C14.6389 16.4291 14.4835 17.961 14.4613 18.6937H9.55472C9.53252 17.961 9.37711 16.3625 8.44464 15.4078C7.26795 14.3865 6.5797 12.899 6.5797 11.3227C6.5797 8.32549 8.99968 5.90551 11.9969 5.90551C14.9941 5.90551 17.4141 8.32549 17.4141 11.3227C17.4141 12.899 16.7481 14.3865 15.5714 15.4078Z" fill="white"/>
<path d="M11.9969 6.74951C11.7971 6.74951 11.6195 6.92712 11.6195 7.12694C11.6195 7.32675 11.7971 7.50437 11.9969 7.50437C14.2393 7.50437 16.0376 9.3249 16.0376 11.5451C16.0376 11.7449 16.2153 11.9225 16.4151 11.9225C16.6149 11.9225 16.7925 11.7449 16.7925 11.5451C16.8147 8.90307 14.6611 6.74951 11.9969 6.74951Z" fill="white"/>
<path d="M14.4599 19.8921H9.5311C9.02046 19.8921 8.59863 20.3139 8.59863 20.8246C8.59863 21.3352 9.02046 21.757 9.5311 21.757H14.4377C14.9705 21.7348 15.3923 21.3352 15.3923 20.8246C15.3923 20.3139 14.9705 19.8921 14.4599 19.8921ZM14.4599 20.98H9.5311C9.44229 20.98 9.35349 20.9134 9.35349 20.8024C9.35349 20.6913 9.42009 20.6247 9.5311 20.6247H14.4377C14.5265 20.6247 14.6153 20.6913 14.6153 20.8024C14.6153 20.9134 14.5487 20.98 14.4599 20.98Z" fill="white"/>
<path d="M13.728 22.1353H10.2645C9.75386 22.1353 9.33203 22.5571 9.33203 23.0677C9.33203 23.5784 9.75386 24.0002 10.2645 24.0002H13.728C14.2386 24.0002 14.6604 23.5784 14.6604 23.0677C14.6604 22.5349 14.2386 22.1353 13.728 22.1353ZM13.728 23.2231H10.2645C10.1757 23.2231 10.0869 23.1565 10.0869 23.0455C10.0869 22.9345 10.1535 22.8679 10.2645 22.8679H13.728C13.8168 22.8679 13.9056 22.9345 13.9056 23.0455C13.9056 23.1565 13.8168 23.2231 13.728 23.2231Z" fill="white"/>
<path d="M11.9969 3.33025C12.219 3.33025 12.3744 3.15264 12.3744 2.95282V0.377429C12.3744 0.177614 12.1968 0 11.9969 0C11.7971 0 11.6195 0.177614 11.6195 0.377429V2.95282C11.6195 3.15264 11.7971 3.33025 11.9969 3.33025Z" fill="white"/>
<path d="M18.2799 1.90931C18.1023 1.7761 17.8803 1.84271 17.7692 1.99812L16.3483 4.12948C16.2151 4.30709 16.2595 4.55131 16.4371 4.66232C16.5037 4.70672 16.5703 4.72893 16.637 4.72893C16.7702 4.72893 16.8812 4.66232 16.9478 4.55131L18.3687 2.41995C18.5019 2.26454 18.4575 2.02032 18.2799 1.90931Z" fill="white"/>
<path d="M7.4888 4.64035C7.5554 4.64035 7.62201 4.61815 7.68861 4.57375C7.86623 4.46274 7.91063 4.21852 7.79962 4.04091L6.42312 1.88735C6.31211 1.70974 6.06789 1.66533 5.89028 1.77634C5.71267 1.88735 5.66826 2.13157 5.77927 2.30918L7.15577 4.46274C7.24458 4.59595 7.35559 4.64035 7.4888 4.64035Z" fill="white"/>
<path d="M4.80343 6.99415L2.56106 5.77305C2.38345 5.68424 2.13923 5.75085 2.05042 5.92846C1.93942 6.10608 2.00602 6.3503 2.20584 6.4391L4.44821 7.6602C4.51481 7.6824 4.55922 7.7046 4.62582 7.7046C4.75903 7.7046 4.89224 7.638 4.95885 7.50479C5.04765 7.32717 4.98105 7.08295 4.80343 6.99415Z" fill="white"/>
<path d="M21.9653 5.92846C21.8765 5.75085 21.6322 5.68424 21.4546 5.77305L19.1901 6.99415C19.0124 7.08295 18.9458 7.32717 19.0346 7.50479C19.1013 7.638 19.2345 7.7046 19.3677 7.7046C19.4343 7.7046 19.5009 7.6824 19.5453 7.6602L21.8099 6.4391C21.9875 6.3503 22.0541 6.10608 21.9653 5.92846Z" fill="white"/>
</g>
<defs>
<clipPath id="clip0">
<rect width="24" height="24" fill="white"/>
</clipPath>
</defs>
</svg>
