<svg width="24" height="24" viewBox="0 0 24 24" fill="none" xmlns="http://www.w3.org/2000/svg">
<path d="M21.4691 1.16602H5.94989C4.60304 1.16602 3.50727 2.25154 3.50727 3.5815L3.40726 17.247H0.378605C0.163967 17.247 0 17.4368 0 17.6514V19.5321C0 21.2927 1.40891 22.7325 3.10931 22.8114V22.834H16.1781V22.8086C16.2753 22.8126 16.3341 22.834 16.4009 22.834H16.4102C18.2237 22.8234 19.6856 21.3452 19.6761 19.5317V7.57897H23.6214C23.836 7.57897 24 7.38464 24 7.17019V3.71947C24.0024 2.31702 22.8716 1.17607 21.4691 1.16602V1.16602ZM3.27935 22.0567H3.27669C1.89417 22.0567 0.777327 20.9141 0.777327 19.5317V18.0243H13.1174V19.5253C13.1144 20.4001 13.4599 21.2401 14.0777 21.8595C14.1433 21.9256 14.212 21.9595 14.2822 22.0567H3.27935ZM18.8988 19.5313C18.8988 20.9141 17.7927 22.0567 16.4096 22.0567H16.4017C15.0117 22.0466 13.8915 20.9154 13.8947 19.5255V17.6514C13.8959 17.4337 13.7237 17.2546 13.5061 17.247H4.18459L4.2846 3.58416C4.2846 2.68025 5.03156 1.94334 5.94989 1.94334H19.6341C19.1912 2.42917 18.8988 3.04386 18.8988 3.72991V19.5313ZM23.2226 3.7263V6.80164H19.6761V3.72915C19.6761 2.75635 20.4853 1.94334 21.4577 1.94334H21.4685C22.4434 1.95302 23.2272 2.74838 23.2226 3.72345V3.7263Z" fill="white"/>
<path d="M9.12691 10.7329L11.1308 12.1029C11.2615 12.1931 11.4344 12.1931 11.5652 12.1029L13.563 10.7333C14.257 10.2598 14.7696 9.26993 14.7696 8.43054V5.65866C14.7737 5.51215 14.6929 5.37627 14.5623 5.30966L11.5113 3.8089C11.4042 3.75576 11.2786 3.75576 11.1716 3.8089L8.12622 5.30548C7.99565 5.37209 7.91499 5.50797 7.91936 5.65448V8.43054C7.91936 9.26993 8.43309 10.2598 9.12691 10.7329ZM8.69669 5.89702L11.3445 4.59059L13.9922 5.90062V8.43054C13.9922 9.01601 13.6085 9.76069 13.1244 10.0907L11.3399 11.3112L9.56245 10.0909C9.07833 9.7605 8.69669 9.01601 8.69669 8.43054V5.89702Z" fill="white"/>
<path d="M10.6885 9.01777C10.761 9.09178 10.86 9.13372 10.9637 9.13429H10.9646C11.0678 9.13391 11.1667 9.09254 11.2394 9.01929L12.7855 7.4726C12.9375 7.32078 12.9375 7.07445 12.7857 6.92263C12.6341 6.77061 12.3877 6.77061 12.2359 6.92244L10.9659 8.19224L10.4583 7.67965C10.307 7.52707 10.0609 7.52593 9.90832 7.67718C9.75574 7.82843 9.75479 8.07457 9.90585 8.22716L10.6885 9.01777Z" fill="white"/>
<path d="M16.1781 13.2144H6.85021C6.63557 13.2144 6.46155 13.3884 6.46155 13.603C6.46155 13.8177 6.63557 13.9917 6.85021 13.9917H16.1781C16.3928 13.9917 16.5668 13.8177 16.5668 13.603C16.5668 13.3884 16.3928 13.2144 16.1781 13.2144Z" fill="white"/>
<path d="M16.1781 15.0122H6.85021C6.63557 15.0122 6.46155 15.1862 6.46155 15.4009C6.46155 15.6155 6.63557 15.7895 6.85021 15.7895H16.1781C16.3928 15.7895 16.5668 15.6155 16.5668 15.4009C16.5668 15.1862 16.3928 15.0122 16.1781 15.0122Z" fill="white"/>
</svg>
