<svg width="24" height="25" viewBox="0 0 24 25" fill="none" xmlns="http://www.w3.org/2000/svg">
<g clip-path="url(#clip0)">
<path d="M3.75195 13.2813H10.502C10.7093 13.2813 10.877 13.1136 10.877 12.9063V11.4063C10.877 11.1989 10.7093 11.0312 10.502 11.0312H3.75195C3.54458 11.0312 3.37695 11.1989 3.37695 11.4063V12.9063C3.37695 13.1136 3.54458 13.2813 3.75195 13.2813ZM4.12695 11.7813H10.127V12.5313H4.12695V11.7813Z" fill="white"/>
<path d="M9.75195 14.0312C9.1317 14.0312 8.62695 14.536 8.62695 15.1562C8.62695 15.7765 9.1317 16.2812 9.75195 16.2812C10.3722 16.2812 10.877 15.7765 10.877 15.1562C10.877 14.536 10.3722 14.0312 9.75195 14.0312ZM9.75195 15.5312C9.54495 15.5312 9.37695 15.3633 9.37695 15.1562C9.37695 14.9492 9.54495 14.7812 9.75195 14.7812C9.95895 14.7812 10.127 14.9492 10.127 15.1562C10.127 15.3633 9.95895 15.5312 9.75195 15.5312Z" fill="white"/>
<path d="M7.12695 14.0312C6.5067 14.0312 6.00195 14.536 6.00195 15.1562C6.00195 15.7765 6.5067 16.2812 7.12695 16.2812C7.7472 16.2812 8.25195 15.7765 8.25195 15.1562C8.25195 14.536 7.7472 14.0312 7.12695 14.0312ZM7.12695 15.5312C6.91995 15.5312 6.75195 15.3633 6.75195 15.1562C6.75195 14.9492 6.91995 14.7812 7.12695 14.7812C7.33395 14.7812 7.50195 14.9492 7.50195 15.1562C7.50195 15.3633 7.33395 15.5312 7.12695 15.5312Z" fill="white"/>
<path d="M4.50195 16.2812C5.1222 16.2812 5.62695 15.7765 5.62695 15.1562C5.62695 14.536 5.1222 14.0312 4.50195 14.0312C3.8817 14.0312 3.37695 14.536 3.37695 15.1562C3.37695 15.7765 3.8817 16.2812 4.50195 16.2812ZM4.50195 14.7812C4.70895 14.7812 4.87695 14.9492 4.87695 15.1562C4.87695 15.3633 4.70895 15.5312 4.50195 15.5312C4.29495 15.5312 4.12695 15.3633 4.12695 15.1562C4.12695 14.9492 4.29495 14.7812 4.50195 14.7812Z" fill="white"/>
<path d="M9.75195 16.6562C9.1317 16.6562 8.62695 17.161 8.62695 17.7812C8.62695 18.4015 9.1317 18.9062 9.75195 18.9062C10.3722 18.9062 10.877 18.4015 10.877 17.7812C10.877 17.161 10.3722 16.6562 9.75195 16.6562ZM9.75195 18.1562C9.54495 18.1562 9.37695 17.9882 9.37695 17.7812C9.37695 17.5742 9.54495 17.4062 9.75195 17.4062C9.95895 17.4062 10.127 17.5742 10.127 17.7812C10.127 17.9882 9.95895 18.1562 9.75195 18.1562Z" fill="white"/>
<path d="M7.12695 16.6562C6.5067 16.6562 6.00195 17.161 6.00195 17.7812C6.00195 18.4015 6.5067 18.9062 7.12695 18.9062C7.7472 18.9062 8.25195 18.4015 8.25195 17.7812C8.25195 17.161 7.7472 16.6562 7.12695 16.6562ZM7.12695 18.1562C6.91995 18.1562 6.75195 17.9882 6.75195 17.7812C6.75195 17.5742 6.91995 17.4062 7.12695 17.4062C7.33395 17.4062 7.50195 17.5742 7.50195 17.7812C7.50195 17.9882 7.33395 18.1562 7.12695 18.1562Z" fill="white"/>
<path d="M4.50195 18.9062C5.1222 18.9062 5.62695 18.4015 5.62695 17.7812C5.62695 17.161 5.1222 16.6562 4.50195 16.6562C3.8817 16.6562 3.37695 17.161 3.37695 17.7812C3.37695 18.4015 3.8817 18.9062 4.50195 18.9062ZM4.50195 17.4062C4.70895 17.4062 4.87695 17.5742 4.87695 17.7812C4.87695 17.9882 4.70895 18.1562 4.50195 18.1562C4.29495 18.1562 4.12695 17.9882 4.12695 17.7812C4.12695 17.5742 4.29495 17.4062 4.50195 17.4062Z" fill="white"/>
<path d="M9.75195 19.2812C9.1317 19.2812 8.62695 19.786 8.62695 20.4062C8.62695 21.0265 9.1317 21.5312 9.75195 21.5312C10.3722 21.5312 10.877 21.0265 10.877 20.4062C10.877 19.786 10.3722 19.2812 9.75195 19.2812ZM9.75195 20.7812C9.54495 20.7812 9.37695 20.6133 9.37695 20.4062C9.37695 20.1992 9.54495 20.0312 9.75195 20.0312C9.95895 20.0312 10.127 20.1992 10.127 20.4062C10.127 20.6133 9.95895 20.7812 9.75195 20.7812Z" fill="white"/>
<path d="M7.12695 19.2812C6.5067 19.2812 6.00195 19.786 6.00195 20.4062C6.00195 21.0265 6.5067 21.5312 7.12695 21.5312C7.7472 21.5312 8.25195 21.0265 8.25195 20.4062C8.25195 19.786 7.7472 19.2812 7.12695 19.2812ZM7.12695 20.7812C6.91995 20.7812 6.75195 20.6133 6.75195 20.4062C6.75195 20.1992 6.91995 20.0312 7.12695 20.0312C7.33395 20.0312 7.50195 20.1992 7.50195 20.4062C7.50195 20.6133 7.33395 20.7812 7.12695 20.7812Z" fill="white"/>
<path d="M4.50195 21.5312C5.1222 21.5312 5.62695 21.0265 5.62695 20.4062C5.62695 19.786 5.1222 19.2812 4.50195 19.2812C3.8817 19.2812 3.37695 19.786 3.37695 20.4062C3.37695 21.0265 3.8817 21.5312 4.50195 21.5312ZM4.50195 20.0312C4.70895 20.0312 4.87695 20.1992 4.87695 20.4062C4.87695 20.6133 4.70895 20.7812 4.50195 20.7812C4.29495 20.7812 4.12695 20.6133 4.12695 20.4062C4.12695 20.1992 4.29495 20.0312 4.50195 20.0312Z" fill="white"/>
<path d="M15.7461 6.16471H15.718C15.6002 5.24258 15.0531 4.4202 14.2461 3.95033V3.79245C14.2461 3.77333 14.2382 3.75645 14.2352 3.73808C14.2311 3.7107 14.2288 3.68333 14.2191 3.65745C14.2101 3.63383 14.1951 3.6147 14.1812 3.59333C14.1688 3.57383 14.1587 3.55395 14.1426 3.53708C14.122 3.51495 14.0968 3.49995 14.0717 3.48345C14.0578 3.47445 14.0477 3.46095 14.0323 3.45383C14.0286 3.45195 14.0245 3.45083 14.0211 3.44895C14.0181 3.44783 14.0155 3.4467 14.0125 3.44558C13.2175 3.0732 12.2792 3.07283 11.4793 3.44445C11.4775 3.4452 11.4756 3.44558 11.4737 3.4467C11.4696 3.44858 11.4658 3.4497 11.4617 3.45158C11.4445 3.45945 11.4332 3.47445 11.4178 3.48458C11.3942 3.50033 11.3702 3.5142 11.3507 3.53445C11.3346 3.55208 11.3245 3.5727 11.3117 3.5922C11.2982 3.6132 11.2832 3.63195 11.2738 3.65558C11.2641 3.68108 11.2622 3.70845 11.2577 3.73583C11.2547 3.75458 11.2468 3.77145 11.2468 3.79058V3.94883C10.4383 4.4187 9.89009 5.24146 9.77197 6.16433H9.74609C9.53872 6.16433 9.37109 6.33196 9.37109 6.53933V7.66433C9.37109 7.87171 9.53872 8.03933 9.74609 8.03933H15.7461C15.9535 8.03933 16.1211 7.87171 16.1211 7.66433V6.53933C16.1211 6.33233 15.9535 6.16471 15.7461 6.16471ZM11.2468 4.86271V5.03896C11.2468 5.24633 11.4145 5.41396 11.6218 5.41396C11.8292 5.41396 11.9968 5.24633 11.9968 5.03896V4.04295C12.481 3.8727 13.0142 3.87345 13.4961 4.0437V5.03896C13.4961 5.24633 13.6637 5.41396 13.8711 5.41396C14.0785 5.41396 14.2461 5.24633 14.2461 5.03896V4.86495C14.6215 5.20358 14.8738 5.66296 14.9597 6.16471H10.5302C10.6168 5.66183 10.87 5.20133 11.2468 4.86271ZM15.3711 7.28971H10.1211V6.91471H15.3711V7.28971Z" fill="white"/>
<path d="M18 11.0371H19.125C19.3324 11.0371 19.5 10.8695 19.5 10.6621C19.5 10.4547 19.3324 10.2871 19.125 10.2871H18C17.7926 10.2871 17.625 10.4547 17.625 10.6621C17.625 10.8695 17.7926 11.0371 18 11.0371Z" fill="white"/>
<path d="M19.1234 12.1621H17.623C17.4157 12.1621 17.248 12.3297 17.248 12.5371C17.248 12.7445 17.4157 12.9121 17.623 12.9121H19.1234C19.3308 12.9121 19.4984 12.7445 19.4984 12.5371C19.4984 12.3297 19.3308 12.1621 19.1234 12.1621Z" fill="white"/>
<path d="M19.125 14.0371H18C17.7926 14.0371 17.625 14.2047 17.625 14.4121C17.625 14.6195 17.7926 14.7871 18 14.7871H19.125C19.3324 14.7871 19.5 14.6195 19.5 14.4121C19.5 14.2047 19.3324 14.0371 19.125 14.0371Z" fill="white"/>
<path d="M19.1246 15.9121H18.375C18.1676 15.9121 18 16.0797 18 16.2871C18 16.4945 18.1676 16.6621 18.375 16.6621H19.1246C19.332 16.6621 19.4996 16.4945 19.4996 16.2871C19.4996 16.0797 19.332 15.9121 19.1246 15.9121Z" fill="white"/>
<path d="M19.125 17.7871H18C17.7926 17.7871 17.625 17.9547 17.625 18.1621C17.625 18.3695 17.7926 18.5371 18 18.5371H19.125C19.3324 18.5371 19.5 18.3695 19.5 18.1621C19.5 17.9547 19.3324 17.7871 19.125 17.7871Z" fill="white"/>
<path d="M19.1234 19.6621H17.623C17.4157 19.6621 17.248 19.8297 17.248 20.0371C17.248 20.2445 17.4157 20.4121 17.623 20.4121H19.1234C19.3308 20.4121 19.4984 20.2445 19.4984 20.0371C19.4984 19.8297 19.3308 19.6621 19.1234 19.6621Z" fill="white"/>
<path d="M22.124 3.53681C22.1236 3.48919 22.1142 3.44194 22.0958 3.39731C22.0767 3.35119 22.0493 3.30956 22.0145 3.27506L19.3906 0.649312C19.3561 0.614437 19.3145 0.587062 19.2683 0.567937C19.2226 0.548812 19.1738 0.539062 19.1251 0.539062H7.12695C6.91958 0.539062 6.75195 0.706687 6.75195 0.914062V9.53306H3.00195C2.3817 9.53306 1.87695 10.0378 1.87695 10.6581V12.1581V21.9081V23.4081C1.87695 24.0283 2.3817 24.5331 3.00195 24.5331H11.252C11.8722 24.5331 12.377 24.0283 12.377 23.4081V23.0316H21.7497C21.9571 23.0316 22.1247 22.8639 22.1247 22.6566V3.54131C22.1247 3.54131 22.1247 3.54131 22.1247 3.54094V3.54056C22.1247 3.53906 22.124 3.53794 22.124 3.53681ZM19.5001 1.81969L20.8448 3.16556H19.5001V1.81969ZM2.62695 10.6581C2.62695 10.4511 2.79495 10.2831 3.00195 10.2831H11.252C11.459 10.2831 11.627 10.4511 11.627 10.6581V12.1581V21.9081C11.627 22.1151 11.459 22.2831 11.252 22.2831H3.00195C2.79495 22.2831 2.62695 22.1151 2.62695 21.9081V12.1581V10.6581ZM11.252 23.7831H3.00195C2.79495 23.7831 2.62695 23.6151 2.62695 23.4081V22.9637C2.7447 23.0057 2.86958 23.0331 3.00195 23.0331H11.252C11.3843 23.0331 11.5092 23.0061 11.627 22.9637V23.4081C11.627 23.6151 11.459 23.7831 11.252 23.7831ZM12.377 21.9081V20.4133H15.749C15.9563 20.4133 16.124 20.2457 16.124 20.0383C16.124 19.8309 15.9563 19.6633 15.749 19.6633H12.377V18.5383H15.749C15.9563 18.5383 16.124 18.3707 16.124 18.1633C16.124 17.9559 15.9563 17.7883 15.749 17.7883H12.377V16.6633H15.749C15.9563 16.6633 16.124 16.4957 16.124 16.2883C16.124 16.0809 15.9563 15.9133 15.749 15.9133H12.377V14.7883H15.749C15.9563 14.7883 16.124 14.6207 16.124 14.4133C16.124 14.2059 15.9563 14.0383 15.749 14.0383H12.377V12.9133H15.749C15.9563 12.9133 16.124 12.7457 16.124 12.5383C16.124 12.3309 15.9563 12.1633 15.749 12.1633H12.377V12.1581V11.0383H15.749C15.9563 11.0383 16.124 10.8707 16.124 10.6633C16.124 10.4559 15.9563 10.2883 15.749 10.2883H12.3095C12.1553 9.84994 11.7417 9.53306 11.252 9.53306H7.50195V1.28906H18.7501V3.54056C18.7501 3.74794 18.9177 3.91556 19.1251 3.91556H21.3747V22.2819H12.377V21.9081Z" fill="white"/>
</g>
<defs>
<clipPath id="clip0">
<rect width="24" height="24" fill="white" transform="translate(0 0.535156)"/>
</clipPath>
</defs>
</svg>
