<svg width="24" height="25" viewBox="0 0 24 25" fill="none" xmlns="http://www.w3.org/2000/svg">
<path d="M21.4691 1.66602H5.94989C4.60304 1.66602 3.50727 2.75154 3.50727 4.0815L3.40726 17.747H0.378605C0.163967 17.747 0 17.9368 0 18.1514V20.0321C0 21.7927 1.40891 23.2325 3.10931 23.3114V23.334H16.1781V23.3086C16.2753 23.3126 16.3341 23.334 16.4009 23.334H16.4102C18.2237 23.3234 19.6856 21.8452 19.6761 20.0317V8.07897H23.6214C23.836 8.07897 24 7.88464 24 7.67019V4.21947C24.0024 2.81702 22.8716 1.67607 21.4691 1.66602V1.66602ZM3.27935 22.5567H3.27669C1.89417 22.5567 0.777327 21.4141 0.777327 20.0317V18.5243H13.1174V20.0253C13.1144 20.9001 13.4599 21.7401 14.0777 22.3595C14.1433 22.4256 14.212 22.4595 14.2822 22.5567H3.27935ZM18.8988 20.0313C18.8988 21.4141 17.7927 22.5567 16.4096 22.5567H16.4017C15.0117 22.5466 13.8915 21.4154 13.8947 20.0255V18.1514C13.8959 17.9337 13.7237 17.7546 13.5061 17.747H4.18459L4.2846 4.08416C4.2846 3.18025 5.03156 2.44334 5.94989 2.44334H19.6341C19.1912 2.92917 18.8988 3.54386 18.8988 4.22991V20.0313ZM23.2226 4.2263V7.30164H19.6761V4.22915C19.6761 3.25635 20.4853 2.44334 21.4577 2.44334H21.4685C22.4434 2.45302 23.2272 3.24838 23.2226 4.22345V4.2263Z" fill="white"/>
<path d="M9.12764 11.2334L11.1315 12.6034C11.2623 12.6936 11.4351 12.6936 11.5659 12.6034L13.5637 11.2338C14.2577 10.7603 14.7703 9.77042 14.7703 8.93103V6.15914C14.7745 6.01264 14.6936 5.87676 14.5631 5.81014L11.512 4.30938C11.405 4.25625 11.2793 4.25625 11.1723 4.30938L8.12695 5.80597C7.99638 5.87258 7.91573 6.00846 7.92009 6.15497V8.93103C7.92009 9.77042 8.43382 10.7603 9.12764 11.2334ZM8.69742 6.3975L11.3452 5.09108L13.993 6.40111V8.93103C13.993 9.5165 13.6092 10.2612 13.1251 10.5912L11.3406 11.8117L9.56318 10.5914C9.07906 10.261 8.69742 9.5165 8.69742 8.93103V6.3975Z" fill="white"/>
<path d="M10.6882 9.51777C10.7607 9.59178 10.8598 9.63372 10.9634 9.63429H10.9644C11.0676 9.63391 11.1665 9.59254 11.2392 9.51929L12.7853 7.9726C12.9373 7.82078 12.9373 7.57445 12.7855 7.42263C12.6338 7.27061 12.3875 7.27061 12.2357 7.42244L10.9657 8.69224L10.458 8.17965C10.3068 8.02707 10.0607 8.02593 9.90807 8.17718C9.75549 8.32843 9.75454 8.57457 9.9056 8.72716L10.6882 9.51777Z" fill="white"/>
<path d="M16.1775 13.7148H6.8496C6.63496 13.7148 6.46094 13.8889 6.46094 14.1035C6.46094 14.3181 6.63496 14.4922 6.8496 14.4922H16.1775C16.3922 14.4922 16.5662 14.3181 16.5662 14.1035C16.5662 13.8889 16.3922 13.7148 16.1775 13.7148Z" fill="white"/>
<path d="M16.1775 15.5117H6.8496C6.63496 15.5117 6.46094 15.6857 6.46094 15.9004C6.46094 16.115 6.63496 16.289 6.8496 16.289H16.1775C16.3922 16.289 16.5662 16.115 16.5662 15.9004C16.5662 15.6857 16.3922 15.5117 16.1775 15.5117Z" fill="white"/>
</svg>
