<svg width="24" height="25" viewBox="0 0 24 25" fill="none" xmlns="http://www.w3.org/2000/svg">
<g clip-path="url(#clip0)">
<path d="M19.3187 6.11886C18.8679 5.97842 18.8 5.92377 18.8 5.70148C18.8 5.48059 18.979 5.3015 19.1999 5.3015C19.4208 5.3015 19.5999 5.48059 19.5999 5.70148H20.3999C20.3983 5.19466 20.078 4.74363 19.5999 4.57524V4.10156H18.8V4.57524C18.3219 4.74363 18.0015 5.19466 18 5.70148C18 6.54579 18.6765 6.75653 19.0804 6.88247C19.5319 7.02326 19.5999 7.07816 19.5999 7.3014C19.5997 7.52219 19.4207 7.70118 19.1999 7.70138C18.9791 7.70118 18.8002 7.52219 18.8 7.3014H18C18.0015 7.80822 18.3219 8.25925 18.8 8.42759V8.90132H19.5999V8.42764C20.078 8.25925 20.3983 7.80822 20.3999 7.3014C20.3999 6.45594 19.723 6.245 19.3187 6.11886Z" fill="white"/>
<path d="M4.92025 6.11886C4.46947 5.97842 4.40152 5.92377 4.40152 5.70148C4.40152 5.48059 4.58061 5.3015 4.8015 5.3015C5.02239 5.3015 5.20148 5.48059 5.20148 5.70148H6.00144C5.99989 5.19466 5.67956 4.74363 5.20148 4.57524V4.10156H4.40152V4.57524C3.9235 4.74363 3.60311 5.19466 3.60156 5.70148C3.60156 6.54579 4.27808 6.75653 4.68196 6.88247C5.13349 7.02326 5.20148 7.07816 5.20148 7.3014C5.20128 7.52219 5.02229 7.70118 4.8015 7.70138C4.58071 7.70118 4.40172 7.52219 4.40152 7.3014H3.60156C3.60311 7.80822 3.9235 8.25925 4.40152 8.42759V8.90132H5.20148V8.42764C5.67951 8.25925 5.99989 7.80822 6.00144 7.3014C6.00144 6.45594 5.32448 6.245 4.92025 6.11886Z" fill="white"/>
<path d="M21.4904 9.77574C23.3018 8.51641 23.7494 6.02704 22.4901 4.21558C21.2307 2.40413 18.7414 1.95655 16.9299 3.21588C16.8257 3.28833 16.725 3.36573 16.6281 3.44777C15.6069 1.00405 12.798 -0.149142 10.3543 0.872055C9.09418 1.39863 8.11838 2.43752 7.67165 3.72811C6.92324 2.94355 5.88595 2.50007 4.8017 2.50112C2.59447 2.49932 0.803711 4.28718 0.801911 6.49441C0.800862 7.80214 1.43963 9.02768 2.51227 9.77574C1.07665 10.0671 0.00195314 11.1994 0.00195314 12.5506V24.1C0.00190314 24.3208 0.180894 24.4999 0.401732 24.5C0.401782 24.5 0.401882 24.5 0.401932 24.5H23.6007C23.8216 24.5 24.0007 24.321 24.0007 24.1002C24.0007 24.1001 24.0007 24.1 24.0007 24.1V12.5506C24.0007 11.1993 22.926 10.0671 21.4904 9.77574ZM17.0011 5.30097C17.0007 4.96244 16.9644 4.62486 16.8928 4.29393C18.1103 3.01104 20.1373 2.95805 21.4201 4.17553C22.703 5.39302 22.756 7.41996 21.5385 8.70285C20.321 9.98573 18.2941 10.0387 17.0112 8.82124C16.7064 8.53191 16.4614 8.18542 16.2904 7.80154C16.7545 7.05003 17.0006 6.18428 17.0011 5.30097ZM16.9221 9.77979C16.5854 9.84674 16.2606 9.96358 15.9584 10.1264C15.5506 9.81909 15.0888 9.59095 14.5969 9.45391C15.0285 9.20352 15.4186 8.88769 15.7533 8.51771C16.0474 9.01773 16.4461 9.44826 16.9221 9.77979ZM12.2013 1.30118C14.4104 1.30118 16.2011 3.09194 16.2011 5.30097C16.2011 7.51001 14.4104 9.30077 12.2013 9.30077C9.99228 9.30077 8.20153 7.51001 8.20153 5.30097C8.20403 3.09299 9.99333 1.30373 12.2013 1.30118ZM9.6693 9.37096C9.06533 9.48396 8.49581 9.73534 8.00534 10.1055C7.7169 9.95508 7.40872 9.84609 7.08988 9.78174C7.65585 9.38641 8.10908 8.85044 8.40487 8.22662C8.75515 8.68005 9.18332 9.06758 9.6693 9.37096ZM1.60187 6.50091C1.59772 4.7378 3.02365 3.30523 4.78675 3.30108C5.85135 3.29858 6.8471 3.8269 7.44187 4.70986C7.32127 5.61936 7.47236 6.54416 7.87609 7.36802C7.39902 9.06773 5.63436 10.0589 3.93465 9.58185C2.55397 9.19432 1.60037 7.93489 1.60187 6.50091ZM6.40162 23.7H0.801911V12.5506C0.801911 11.4202 1.8948 10.5007 3.23848 10.5007H6.36487C6.7105 10.5015 7.05299 10.5669 7.37462 10.6934C6.74705 11.4171 6.40157 12.3427 6.40162 13.3006V23.7ZM16.8011 23.7H7.20158V13.3006C7.20358 11.5342 8.63505 10.1027 10.4014 10.1007H13.5013C15.3228 10.1029 16.7989 11.579 16.8011 13.4006V23.7ZM23.2007 23.7H17.601V13.4006C17.6009 12.4101 17.2404 11.4536 16.5867 10.7094C16.9201 10.5721 17.2772 10.5011 17.6377 10.5007H20.7641C22.1078 10.5007 23.2007 11.4202 23.2007 12.5506V23.7H23.2007Z" fill="white"/>
<path d="M13.9508 6.1013C13.7694 5.39399 13.1312 4.89991 12.401 4.90141C11.9592 4.90141 11.6011 4.54328 11.6011 4.10146C11.6011 3.65963 11.9592 3.3015 12.401 3.3015C12.8429 3.3015 13.201 3.65963 13.201 4.10146H14.0009C13.9988 3.37394 13.5056 2.73968 12.801 2.55834V2.10156H12.0011V2.55834C11.1469 2.77743 10.6322 3.64738 10.8512 4.50148C11.0327 5.2088 11.6708 5.70287 12.401 5.70137C12.8429 5.70137 13.201 6.0595 13.201 6.50133C13.201 6.94315 12.8429 7.30129 12.401 7.30129C11.9595 7.30079 11.6016 6.9429 11.6011 6.50133H10.8011C10.8033 7.22884 11.2965 7.86311 12.0011 8.04445V8.50122H12.801V8.04445C13.6551 7.82536 14.1699 6.9554 13.9508 6.1013Z" fill="white"/>
</g>
<defs>
<clipPath id="clip0">
<rect width="24" height="24" fill="white" transform="translate(0 0.5)"/>
</clipPath>
</defs>
</svg>
