<svg width="24" height="25" viewBox="0 0 24 25" fill="none" xmlns="http://www.w3.org/2000/svg">
<g clip-path="url(#clip0)">
<path d="M23.7448 10.2527L12.3684 1.92318C12.149 1.76259 11.851 1.76259 11.6317 1.92318L0.255261 10.2527C-0.0226135 10.4562 -0.0829885 10.8464 0.120496 11.1243C0.32398 11.4021 0.714215 11.4624 0.992043 11.259L12 3.19916L23.008 11.259C23.119 11.3403 23.248 11.3795 23.3759 11.3795C23.5679 11.3795 23.7574 11.2911 23.8795 11.1242C24.083 10.8464 24.0227 10.4562 23.7448 10.2527Z" fill="#EEEEEE"/>
<path d="M20.7286 11.4004C20.3843 11.4004 20.105 11.6796 20.105 12.024V21.9497H15.1165V16.5316C15.1165 14.8122 13.7177 13.4135 11.9984 13.4135C10.2791 13.4135 8.88027 14.8123 8.88027 16.5316V21.9497H3.89169V12.024C3.89169 11.6796 3.61245 11.4004 3.26811 11.4004C2.92377 11.4004 2.64453 11.6796 2.64453 12.024V22.5734C2.64453 22.9178 2.92377 23.197 3.26811 23.197H9.50384C9.83178 23.197 10.1001 22.9436 10.125 22.6219C10.1265 22.6074 10.1274 22.5914 10.1274 22.5734V16.5317C10.1274 15.5 10.9667 14.6607 11.9984 14.6607C13.0301 14.6607 13.8694 15.5 13.8694 16.5317V22.5734C13.8694 22.5913 13.8703 22.607 13.8718 22.6214C13.8964 22.9433 14.1648 23.197 14.4929 23.197H20.7287C21.0731 23.197 21.3522 22.9178 21.3522 22.5734V12.024C21.3522 11.6796 21.073 11.4004 20.7286 11.4004Z" fill="#EEEEEE"/>
</g>
<defs>
<clipPath id="clip0">
<rect width="24" height="24" fill="white" transform="translate(0 0.5)"/>
</clipPath>
</defs>
</svg>
