<svg width="714" height="404" viewBox="0 0 714 404" fill="none" xmlns="http://www.w3.org/2000/svg">
<path d="M713.941 338.272C713.941 338.272 705.923 286.864 667.484 277.888C678.526 243.79 658.799 202.805 624.881 207.581C641.481 167.02 603.78 114.622 563.3 129.724C549.622 55.6744 444.576 46.459 403.091 113.099C322.521 108.355 320.716 189.531 320.111 207.886C283.435 215.763 246.154 281.347 251.567 338.282H713.941V338.272Z" fill="url(#paint0_linear)"/>
<path d="M0.904297 338.272H520.594C520.594 338.272 525.701 225.044 433.841 178.238C443.407 130.235 414.308 62.6813 343.253 80.8292C301.788 15.8429 178.307 51.0506 178.307 146.403C91.1541 151.43 53.6372 215.088 66.4026 287.636C24.2921 301.236 0.904297 338.272 0.904297 338.272Z" fill="url(#paint1_linear)"/>
<path d="M53.0316 200.509C61.9213 191.718 64.5256 201.108 74.297 200.76C84.0685 200.412 89.5642 203.839 92.8146 215.361C96.0751 226.883 106.328 218.777 117.31 233.411C128.291 248.044 127.02 260.785 132.69 260.186C142.307 259.174 151.976 265.974 158.057 297.505L116.131 327.066C116.131 327.066 105.734 320.538 101.468 302.988C98.9768 292.761 85.3911 293.033 76.9629 281.5C68.5347 269.967 70.3495 254.463 67.8989 245.759C65.4381 237.055 42.563 210.856 53.0316 200.509Z" fill="url(#paint2_linear)"/>
<path d="M54.7031 199.008C54.7031 199.008 95.1525 275.233 139.806 310.354" stroke="white" stroke-width="1.0571" stroke-miterlimit="10"/>
<path d="M67.7148 203.197C67.7148 203.197 70.0218 213.511 68.9247 223.467" stroke="white" stroke-width="1.0571" stroke-miterlimit="10"/>
<path d="M63.6738 231.746C63.6738 231.746 67.0472 235.358 76.5213 235.456" stroke="white" stroke-width="1.0571" stroke-miterlimit="10"/>
<path d="M86.0879 212.238C86.0879 212.238 91.5427 235.891 86.293 249.948" stroke="white" stroke-width="1.0571" stroke-miterlimit="10"/>
<path d="M72.1953 258.391C72.1953 258.391 80.7978 265.027 95.0295 262.068" stroke="white" stroke-width="1.0571" stroke-miterlimit="10"/>
<path d="M106.083 229.004C106.083 229.004 113.434 257.433 105.826 275.908" stroke="white" stroke-width="1.0571" stroke-miterlimit="10"/>
<path d="M87.7285 286.994C87.7285 286.994 100.35 293.468 115.843 287.549" stroke="white" stroke-width="1.0571" stroke-miterlimit="10"/>
<path d="M129.07 261.285C129.07 261.285 133.366 283.034 125.625 297.777" stroke="white" stroke-width="1.0571" stroke-miterlimit="10"/>
<path d="M594.429 170.297C603.872 170.33 604.405 181.59 602.088 190.762C600.981 195.125 608.035 200.239 605.974 207.604C603.913 214.97 601.565 215.286 601.432 220.345C601.298 225.404 607.799 231.801 598.643 246.141C589.486 260.481 575.111 268.587 575.111 268.587L557.824 254.617C557.824 254.617 560.47 237.916 565.063 228.614C569.657 219.311 573.317 220.66 576.085 213.599C578.844 206.538 573.768 198.977 578.187 194.146C582.607 189.304 585.98 188.88 587.087 184.528C588.195 180.176 588.738 170.286 594.429 170.297Z" fill="url(#paint3_linear)"/>
<path d="M595.875 177.098C595.875 177.098 595.886 227.951 566.51 261.951" stroke="white" stroke-width="0.7928" stroke-miterlimit="10" stroke-linecap="round" stroke-linejoin="round"/>
<path d="M590.727 176.465L595.33 186.703" stroke="white" stroke-width="0.7928" stroke-miterlimit="10" stroke-linecap="round" stroke-linejoin="round"/>
<path d="M601.154 187.41C601.154 187.41 597.473 194.83 593.885 197.855" stroke="white" stroke-width="0.7928" stroke-miterlimit="10" stroke-linecap="round" stroke-linejoin="round"/>
<path d="M584.34 192.654C584.34 192.654 586.288 204.133 590.953 212.13" stroke="white" stroke-width="0.7928" stroke-miterlimit="10" stroke-linecap="round" stroke-linejoin="round"/>
<path d="M602.99 207.572C602.99 207.572 597.515 216.342 588.943 219.377" stroke="white" stroke-width="0.7928" stroke-miterlimit="10" stroke-linecap="round" stroke-linejoin="round"/>
<path d="M578.197 212.848C578.197 212.848 578.946 225.958 583.755 233.726" stroke="white" stroke-width="0.7928" stroke-miterlimit="10" stroke-linecap="round" stroke-linejoin="round"/>
<path d="M600.151 233.891C600.151 233.891 589.949 240.571 580.064 241.626" stroke="white" stroke-width="0.7928" stroke-miterlimit="10" stroke-linecap="round" stroke-linejoin="round"/>
<path d="M103.11 338.272H674.528C674.528 338.272 668.745 319.482 647.798 310.277C626.84 301.073 634.797 268.966 622.503 266.616C610.219 264.266 608.056 290.606 608.056 290.606C608.056 290.606 606.61 235.619 594.327 233.454C582.043 231.3 577.706 266.616 577.706 266.616C577.706 266.616 575.645 226.012 564.879 214.871C547.541 196.93 537.236 213.848 512.669 203.403C488.102 192.958 478.71 182.187 464.981 157.283C451.252 132.379 426.818 148.938 414.832 135.675C402.846 122.413 402.846 101.251 386.225 100.326C369.604 99.4122 368.897 130.845 355.157 146.174C341.418 161.504 307.91 134.631 285.65 157.272C263.39 179.913 263.39 202.74 247.487 210.497C231.594 218.254 238.095 167.652 222.192 164.583C206.299 161.515 198.343 239.677 198.343 239.677C198.343 239.677 194.734 196.875 181.722 196.832C168.721 196.788 170.156 258.989 162.21 266.605C154.264 274.221 145.589 254.67 135.48 262.144C125.36 269.619 135.48 296.46 126.805 301.051C118.141 305.675 90.242 292.652 103.11 338.272Z" fill="url(#paint4_linear)"/>
<path d="M127.399 156.108C142.215 150.189 142.933 171.057 151.966 185.244C160.999 199.432 177.978 188.312 183.761 209.017C189.544 229.722 179.424 240.841 190.262 256.933C201.1 273.035 219.525 295.274 206.155 337.825H145.455C145.455 337.825 119.34 307.046 116.91 281.859C115.105 263.069 126.302 258.858 116.91 241.222C107.518 223.585 107.477 202.119 116.705 191.772C116.715 191.761 116.161 160.601 127.399 156.108Z" fill="url(#paint5_linear)"/>
<path d="M128.844 159.557C128.844 159.557 139.682 256.16 179.782 337.825" stroke="white" stroke-width="1.0571" stroke-miterlimit="10"/>
<path d="M119.74 177.693C119.74 177.693 121.022 182.426 133.962 192.175" stroke="white" stroke-width="1.0571" stroke-miterlimit="10"/>
<path d="M148.11 182.578C148.11 182.578 147.679 196.156 138.082 212.65" stroke="white" stroke-width="1.0571" stroke-miterlimit="10"/>
<path d="M113.033 212.65C113.033 212.65 119.072 226.881 142.337 231.125" stroke="white" stroke-width="1.0571" stroke-miterlimit="10"/>
<path d="M170.565 204.795C170.565 204.795 167.417 243.223 147.68 251.514" stroke="white" stroke-width="1.0571" stroke-miterlimit="10"/>
<path d="M122.518 258.271C122.518 258.271 130.854 275.538 155.369 276.942" stroke="white" stroke-width="1.0571" stroke-miterlimit="10"/>
<path d="M182.674 252.906C182.674 252.906 180.274 289.235 164.402 302.41" stroke="white" stroke-width="1.0571" stroke-miterlimit="10"/>
<path d="M130.105 307.73C130.105 307.73 147.649 323.735 172.298 321.668" stroke="white" stroke-width="1.0571" stroke-miterlimit="10"/>
<path d="M575.676 338.273C575.676 338.273 570.98 311.051 580.372 295.33C589.764 279.608 599.884 285.744 603.134 265.812C606.385 245.88 610.722 239.744 622.288 235.141C633.853 230.539 642.066 228.722 649.387 219.3C657.877 208.377 674.682 206.777 670.345 226.709C666.008 246.642 661.671 249.71 662.399 265.812C663.116 281.915 651.202 284.21 645.778 294.568C640.354 304.915 652.637 315.273 619.406 338.273H575.676Z" fill="url(#paint6_linear)"/>
<path d="M665.906 216.928C665.906 216.928 630.142 260.056 596.809 338.262" stroke="white" stroke-width="1.0571" stroke-miterlimit="10"/>
<path d="M654.443 216.928C654.443 216.928 653.018 225.229 653.643 233.542" stroke="white" stroke-width="1.0571" stroke-miterlimit="10"/>
<path d="M665.906 236.1C665.906 236.1 663.814 237.982 648.916 240.495" stroke="white" stroke-width="1.0571" stroke-miterlimit="10"/>
<path d="M642.466 228.146C642.466 228.146 639.688 239.647 643.451 248.916" stroke="white" stroke-width="1.0571" stroke-miterlimit="10"/>
<path d="M660.491 255.029C660.491 255.029 652.237 258.685 637.801 258.01" stroke="white" stroke-width="1.0571" stroke-miterlimit="10"/>
<path d="M626.983 236.1C626.983 236.1 621.21 255.042 628.798 273.364" stroke="white" stroke-width="1.0571" stroke-miterlimit="10"/>
<path d="M657.415 273.363C657.415 273.363 641.789 290.847 620.564 288.389" stroke="white" stroke-width="1.0571" stroke-miterlimit="10"/>
<path d="M605.483 264.475C605.483 264.475 602.54 290.043 612.958 303.229" stroke="white" stroke-width="1.0571" stroke-miterlimit="10"/>
<path d="M640.527 306.254C640.527 306.254 621.918 316.318 607.02 315.502" stroke="white" stroke-width="1.0571" stroke-miterlimit="10"/>
<path d="M583.807 294.949C583.807 294.949 584.319 320.822 600.776 329.167" stroke="white" stroke-width="1.0571" stroke-miterlimit="10"/>
<path d="M346.862 37.3206H312.513C310.667 37.3206 308.904 38.0822 307.581 39.4422L300.886 46.3402C300.465 46.7754 299.758 46.4598 299.758 45.8288V7.55297C299.758 3.45121 302.885 0.132812 306.751 0.132812H346.872C350.737 0.132812 353.865 3.45121 353.865 7.55297V29.9005C353.854 34.0022 350.727 37.3206 346.862 37.3206Z" fill="#FFB637"/>
<path d="M316.378 19.5201C316.378 20.521 315.609 21.337 314.665 21.337C313.722 21.337 312.953 20.521 312.953 19.5201C312.953 18.5191 313.722 17.7031 314.665 17.7031C315.609 17.7031 316.378 18.5191 316.378 19.5201Z" fill="white"/>
<path d="M324.477 19.5201C324.477 20.521 323.708 21.337 322.765 21.337C321.822 21.337 321.053 20.521 321.053 19.5201C321.053 18.5191 321.822 17.7031 322.765 17.7031C323.708 17.7031 324.477 18.5191 324.477 19.5201Z" fill="white"/>
<path d="M332.567 19.5201C332.567 20.521 331.798 21.337 330.855 21.337C329.912 21.337 329.143 20.521 329.143 19.5201C329.143 18.5191 329.912 17.7031 330.855 17.7031C331.798 17.7031 332.567 18.5191 332.567 19.5201Z" fill="white"/>
<path d="M340.657 19.5201C340.657 20.521 339.888 21.337 338.945 21.337C338.001 21.337 337.232 20.521 337.232 19.5201C337.232 18.5191 338.001 17.7031 338.945 17.7031C339.888 17.7031 340.657 18.5191 340.657 19.5201Z" fill="white"/>
<path d="M421.538 65.5859C407.091 65.5859 395.381 75.8893 395.381 88.5971C395.381 90.8493 395.751 93.0362 396.438 95.0925C396.93 96.5504 396.489 98.1715 395.289 99.0419L387.035 105.037C386.471 105.45 386.799 106.386 387.486 106.31L401.287 104.634C402.149 104.525 403 104.819 403.687 105.385C408.362 109.236 414.627 111.597 421.538 111.597C435.985 111.597 447.694 101.294 447.694 88.5863C447.694 75.8784 435.985 65.5859 421.538 65.5859Z" fill="#FFB637"/>
<path d="M419.158 92.4056V91.1653C419.158 90.0881 419.374 89.1525 419.804 88.3582C420.235 87.564 421.025 86.7153 422.173 85.8232C423.28 84.9854 424.008 84.3 424.367 83.7777C424.716 83.2555 424.9 82.668 424.9 82.0152C424.9 81.2862 424.644 80.7313 424.142 80.3505C423.639 79.9697 422.932 79.7848 422.019 79.7848C420.44 79.7848 418.636 80.3288 416.605 81.4277L414.883 77.7502C417.231 76.3467 419.733 75.6504 422.368 75.6504C424.541 75.6504 426.264 76.2053 427.546 77.315C428.827 78.4248 429.473 79.9045 429.473 81.7432C429.473 82.9726 429.207 84.0389 428.684 84.931C428.161 85.8232 427.156 86.835 425.68 87.9557C424.664 88.7499 424.029 89.3592 423.752 89.7726C423.485 90.1861 423.352 90.7301 423.352 91.4046V92.4165H419.158V92.4056ZM418.646 98.1502C418.646 97.2145 418.882 96.4965 419.353 96.0177C419.825 95.539 420.522 95.2997 421.424 95.2997C422.296 95.2997 422.973 95.5499 423.455 96.0395C423.936 96.5291 424.172 97.2363 424.172 98.1502C424.172 99.0315 423.926 99.7278 423.444 100.239C422.962 100.751 422.286 101.001 421.414 101.001C420.532 101.001 419.845 100.751 419.353 100.25C418.892 99.7605 418.646 99.0532 418.646 98.1502Z" fill="white"/>
<path d="M220.848 98.5426L208.298 113.633C208.298 113.633 185.802 91.8187 183.946 89.3707C182.101 86.9336 182.46 82.6578 176.831 80.6341C174.759 79.8943 171.448 79.0565 170.894 80.3077C170.34 81.5589 173.97 80.7864 174.677 82.5163C175.385 84.2463 173.621 85.3995 171.909 85.5736C170.197 85.7477 167.09 84.3986 167.09 84.3986C167.09 84.3986 164.311 80.188 163.583 80.2098C162.855 80.2315 163.655 83.2997 165.193 85.1928C166.731 87.0859 169.961 87.9237 169.961 87.9237C169.961 87.9237 165.521 88.2392 164.26 87.6626C162.999 87.0859 161.574 84.1157 160.815 84.5291C160.046 84.9426 160.917 87.2274 162.804 88.9573C164.691 90.6981 168.802 90.7198 168.802 90.7198C168.802 90.7198 164.773 91.9384 163.112 91.1333C161.451 90.3282 160.518 90.8613 160.518 91.5467C160.518 92.2213 161.543 93.0264 164.311 93.1787C167.069 93.3202 169.992 92.6674 169.992 92.6674C169.992 92.6674 165.665 94.9957 164.393 95.1045C163.122 95.2133 162.343 96.78 163.635 96.8671C164.927 96.9541 168.505 95.2786 170.545 94.7128C172.124 94.2667 174.565 95.3439 178.82 94.4735C178.82 94.4735 193.728 132.086 206.863 141.453C217.208 148.83 243.016 115.983 243.016 115.983L220.848 98.5426Z" fill="#CD794F"/>
<path d="M208.287 113.623C208.287 113.623 210.451 115.745 212.091 119.248" stroke="#BF5521" stroke-width="0.7647" stroke-miterlimit="10" stroke-linecap="round" stroke-linejoin="round"/>
<path d="M243.016 115.973L220.848 98.543L217.393 102.699C219.177 103.831 221.719 105.822 223.422 108.825C225.923 113.264 229.153 122.327 235.09 125.145C239.745 120.118 243.016 115.973 243.016 115.973Z" fill="#BF5521"/>
<path d="M278.021 56.971C282.624 55.5348 287.638 53.9028 291.555 53.2718C295.472 52.6407 295.882 53.2065 301.685 54.4468C311.99 56.6555 325.596 55.0779 331.317 60.2241C340.217 68.2318 344.278 84.1818 345.631 88.425C345.631 88.425 341.571 97.7057 331.41 100.437C321.249 103.167 322.243 103.026 322.243 103.026L326.806 159.384H255.812C255.812 159.384 252.428 148.124 254.458 137.82C255.135 134.371 251.885 121.718 252.295 112.23L242.134 125.711C242.134 125.711 231.706 113.384 228.312 109.217C224.929 105.05 217.064 97.7166 217.064 97.7166C217.064 97.7166 222.755 89.6654 227.492 83.627C232.229 77.5886 238.463 65.0766 248.358 61.4862C258.252 57.874 273.099 58.5159 278.021 56.971Z" fill="#307871"/>
<path d="M242.135 125.7L252.296 112.22C252.563 105.747 253.014 97.8911 252.932 93.5827C252.84 89.2742 250.943 81.5059 249.948 81.5059C248.954 81.5059 250.666 91.287 248.051 97.5103C245.437 103.745 243.806 104.408 242.361 111.698C241.653 115.267 239.92 118.672 238.352 121.218C240.515 123.786 242.135 125.7 242.135 125.7Z" fill="url(#paint7_linear)"/>
<path d="M310.145 67.5137C310.145 67.5137 304.587 71.4849 306.217 83.0176" stroke="#1D4743" stroke-width="0.7647" stroke-miterlimit="10" stroke-linecap="round" stroke-linejoin="round"/>
<path d="M303.234 71.3984C303.234 71.3984 302.424 73.1284 304.044 80.8858" stroke="#1D4743" stroke-width="0.7647" stroke-miterlimit="10" stroke-linecap="round" stroke-linejoin="round"/>
<path d="M326.805 159.373L323.278 115.864L313.332 98.5646L310.677 98.6081L306.883 90.2305C306.883 90.2305 305.94 96.5517 309.19 102.449C312.44 108.346 311.087 113.666 308.78 120.662C306.473 127.658 308.103 133.217 309.323 139.974C310.328 145.544 309.764 155.902 309.539 159.384H326.805V159.373Z" fill="url(#paint8_linear)"/>
<path d="M287.167 40.4439C287.167 40.4439 286.993 36.4074 286.736 31.1524C286.47 25.9083 279.682 24.4939 274.545 24.8964C269.408 25.299 260.395 31.1742 267.47 38.257L281.517 41.6516L287.167 40.4439Z" fill="#16367C"/>
<path d="M277.508 32.5664C277.508 32.5664 278.441 36.2438 280.809 37.2339C283.178 38.224 281.906 40.4653 283.178 40.9984C284.449 41.5315 284.788 38.7571 285.464 36.777C286.141 34.8077 287.494 33.9917 289.186 35.1667C290.878 36.3309 290.365 40.4653 288.345 41.4445L295.512 53.6845C295.994 54.5114 296.774 55.088 297.676 55.2403C298.342 55.3491 299.091 55.5994 299.511 56.1651C300.352 57.3293 295.964 62.4429 287.669 62.4429C279.374 62.4429 276.841 59.4835 277.518 59.0375C277.908 58.7763 278.892 58.5805 279.651 58.4608C280.153 58.3847 280.461 57.8298 280.276 57.3184L278.953 53.6519C278.953 53.6519 274.667 55.5667 273.283 54.544C271.089 52.9338 269.982 43.2397 269.982 43.2397C269.982 43.2397 267.193 39.2032 266.26 33.9047L277.508 32.5664Z" fill="#CD794F"/>
<path d="M286.09 44.0121C286.09 44.0121 284.86 51.9327 278.943 53.6626L279.999 56.5894C279.999 56.5894 281.968 57.0137 283.229 54.6527C284.501 52.3027 284.05 52.2265 285.444 50.007C286.849 47.7766 287.167 42.5215 286.09 44.0121Z" fill="#BF5521"/>
<path d="M269.633 345.453L270.177 356.475H259.605L260.057 345.453H269.633Z" fill="#CD794F"/>
<path d="M319.127 345.453L319.67 356.475H309.109L309.561 345.453H319.127Z" fill="#CD794F"/>
<path d="M259.196 350.969C259.196 350.969 263.461 351.208 264.343 352.579C265.225 353.95 264.292 354.439 267.183 354.592C270.075 354.744 271.11 354.592 271.11 354.592L272.064 365.515C272.064 365.515 248.625 365.515 245.579 365.515C243.939 365.515 243.262 364.231 242.985 363.035C242.739 361.979 243.303 360.902 244.277 360.576L249.035 359.042L257.709 354.94L259.196 350.969Z" fill="#BF5521"/>
<path d="M243.488 361.098C243.037 361.587 242.822 362.305 242.996 363.023C243.273 364.22 243.949 365.504 245.59 365.504C248.635 365.504 272.074 365.504 272.074 365.504L271.839 362.849H248.379C247.569 362.849 246.8 362.577 246.103 362.131C245.026 361.446 244.083 361.196 243.488 361.098Z" fill="#471312"/>
<path d="M310.34 353.406C310.34 353.406 312.985 350.457 318.061 353.406L319.455 350.969C319.455 350.969 321.014 354.603 321.168 361.947C321.178 362.382 321.014 362.817 320.706 363.122C320.378 363.459 319.947 363.927 319.66 364.406C319.137 365.265 320.675 369.236 315.59 369.715C312.104 370.041 308.997 370.466 306.7 369.03C305.121 368.05 304.67 364.406 307.192 360.641C309.53 357.159 308.392 355.702 309.089 352.253L310.34 353.406Z" fill="#BF5521"/>
<path d="M315.6 369.715C320.685 369.237 319.147 365.265 319.67 364.406C319.957 363.927 320.388 363.459 320.716 363.122C321.013 362.817 321.188 362.393 321.177 361.947C321.167 361.359 321.136 360.805 321.116 360.271C320.49 360.815 319.773 361.512 319.291 362.197C318.276 363.655 318.788 365.45 317.732 365.983C313.21 368.257 307.848 366.767 305.418 365.875C305.418 367.376 305.92 368.529 306.71 369.03C309.017 370.466 312.113 370.042 315.6 369.715Z" fill="#471312"/>
<path d="M255.813 156.119C255.813 156.119 251.568 216.264 251.209 249.274C250.851 282.294 254.367 319.189 253.516 328.915C252.655 338.642 254.46 340.47 259.166 342.428V347.074H270.363V342.428C270.363 342.428 277.591 342.472 278.668 334.04C279.755 325.608 282.595 298.767 281.354 293.022C281.354 293.022 285.127 278.835 281.354 264.658C281.354 264.658 287.342 210.127 287.701 194.069C287.701 194.069 292.397 249.709 296.375 283.056C300.354 316.414 299.544 341.068 308.259 341.775V347.085H320.583V341.775C320.583 341.775 327.207 338.305 327.504 325.249C327.802 312.193 324.193 286.505 324.193 286.505C324.193 286.505 327.422 278.03 324.552 269.641C324.552 269.641 327.894 175.203 323.834 156.119H255.813Z" fill="#0E3B91"/>
<path d="M327.503 322.267C327.298 308.645 324.181 286.515 324.181 286.515C324.181 286.515 327.411 278.04 324.54 269.651C324.54 269.651 325.216 250.59 325.585 227.861H290.693C292.344 245.596 294.436 266.942 296.353 283.066C296.61 285.253 296.856 287.397 297.081 289.507C297.707 295.361 301.224 300.387 306.278 302.814C313.087 306.078 321.433 311.931 327.503 322.267Z" fill="url(#paint9_linear)"/>
<path d="M187.003 130.736L179.939 127.505C178.339 126.776 177.304 125.1 177.304 123.261V117.473C177.304 114.721 175.202 112.49 172.608 112.49H130.651C128.057 112.49 125.955 114.721 125.955 117.473V145.032C125.955 147.785 128.057 150.015 130.651 150.015H172.608C175.202 150.015 177.304 147.785 177.304 145.032V139.244C177.304 137.395 178.339 135.73 179.939 135.001L187.003 131.77C187.434 131.574 187.434 130.932 187.003 130.736Z" fill="#FFB637"/>
<path d="M163.779 133.694C164.724 133.694 165.491 132.881 165.491 131.878C165.491 130.874 164.724 130.061 163.779 130.061C162.833 130.061 162.066 130.874 162.066 131.878C162.066 132.881 162.833 133.694 163.779 133.694Z" fill="white"/>
<path d="M153.967 131.878C153.967 132.878 154.736 133.694 155.679 133.694C156.622 133.694 157.391 132.878 157.391 131.878C157.391 130.877 156.622 130.061 155.679 130.061C154.736 130.061 153.967 130.877 153.967 131.878Z" fill="white"/>
<path d="M147.589 133.694C148.535 133.694 149.302 132.881 149.302 131.878C149.302 130.874 148.535 130.061 147.589 130.061C146.644 130.061 145.877 130.874 145.877 131.878C145.877 132.881 146.644 133.694 147.589 133.694Z" fill="white"/>
<path d="M139.499 133.694C140.445 133.694 141.212 132.881 141.212 131.878C141.212 130.874 140.445 130.061 139.499 130.061C138.554 130.061 137.787 130.874 137.787 131.878C137.787 132.881 138.554 133.694 139.499 133.694Z" fill="white"/>
<path d="M593.906 372.925H581.623L569.186 272.035H581.469L593.906 372.925Z" fill="#804D28"/>
<path d="M179.672 372.925H191.955L204.393 272.035H192.109L179.672 372.925Z" fill="#804D28"/>
<path d="M575.154 233.215H563.301V262.885H575.154V233.215Z" fill="#804D28"/>
<path d="M210.279 233.215H198.426V262.885H210.279V233.215Z" fill="#804D28"/>
<path d="M592.624 260.492H180.963V272.754H592.624V260.492Z" fill="#5C381D"/>
<path d="M581.551 157.295H192.037V236.577H581.551V157.295Z" fill="#5C381D"/>
<path d="M192.059 169.773H581.285" stroke="#AB6736" stroke-width="1.0571" stroke-miterlimit="10"/>
<path d="M192.059 183.363H581.285" stroke="#AB6736" stroke-width="1.0571" stroke-miterlimit="10"/>
<path d="M192.059 196.941H581.285" stroke="#AB6736" stroke-width="1.0571" stroke-miterlimit="10"/>
<path d="M192.059 210.52H581.285" stroke="#AB6736" stroke-width="1.0571" stroke-miterlimit="10"/>
<path d="M192.059 224.098H581.285" stroke="#AB6736" stroke-width="1.0571" stroke-miterlimit="10"/>
<path d="M509.726 343.268C509.726 343.268 505.706 367.563 505.44 372.742C505.173 377.92 506.793 382.806 505.44 384.818C504.086 386.831 491.29 394.491 489.321 393.871C485.661 392.717 495.689 381.511 495.689 381.511L497.719 374.178L497.678 343.268H509.726Z" fill="#80A2E8"/>
<path d="M526.869 343.268C526.869 343.268 527.094 366.181 526.581 372.742C526.182 377.91 525.228 382.806 526.581 384.818C527.935 386.831 540.731 394.491 542.7 393.871C546.36 392.717 536.332 381.511 536.332 381.511L534.302 374.178L538.926 343.268H526.869Z" fill="#80A2E8"/>
<path d="M553.804 243.063C551.671 236.361 546.483 227.156 546.483 227.156L524.971 229.474C524.469 229.528 523.967 229.528 523.454 229.474L501.942 227.156C501.942 227.156 496.754 236.361 494.621 243.063C492.489 249.765 494.037 260.406 494.037 260.406H524.213H554.388C554.398 260.416 555.936 249.765 553.804 243.063Z" fill="#0A2863"/>
<path d="M519.395 100.164C527.393 100.164 534.57 102.177 535.657 108.933C536.744 115.69 535.657 118.421 537.687 125.319C539.717 132.217 546.218 136.96 539.451 141.28C532.673 145.588 515.201 145.74 508.967 141.28C502.733 136.819 508.291 129.061 508.291 121.293C508.291 113.525 508.691 100.164 519.395 100.164Z" fill="#14213B"/>
<path d="M530.683 143.194C529.329 137.678 528.468 132.455 529.668 127.189L524.223 129.398L518.778 127.189C519.978 132.466 519.117 137.689 517.763 143.194C516.974 146.414 515.026 148.449 514 149.33C513.6 149.678 513.508 150.288 513.765 150.777C515.702 154.564 519.322 155.891 524.233 155.891C529.134 155.891 532.754 154.574 534.702 150.777C534.948 150.288 534.866 149.678 534.466 149.33C533.42 148.449 531.472 146.414 530.683 143.194Z" fill="#80A2E8"/>
<path d="M529.545 137.645C528.992 134.12 528.879 130.66 529.668 127.189L524.224 129.398L518.779 127.189C519.343 129.681 519.446 132.162 519.251 134.675C521.66 136.905 526.059 140.115 529.545 137.645Z" fill="#6188D9"/>
<path d="M518.573 109.934C518.573 109.934 520.47 113.992 528.058 115.874C530.764 116.549 530.764 120.857 530.764 123.251C530.764 125.644 529.052 133.598 524.664 134.174C520.286 134.751 516.758 127.853 516.584 124.11C516.584 124.11 514.421 124.872 514.236 122.772C514.052 120.672 513.6 118.844 514.595 118.844C515.589 118.844 516.307 120.661 516.307 120.661L516.666 116.538C516.676 116.549 518.758 113.296 518.573 109.934Z" fill="#80A2E8"/>
<path d="M546.176 189.869L564.55 183.395C565.565 183.036 566.149 181.905 565.914 180.806C563.063 167.739 558.398 160.188 553.312 157C547.981 153.649 537.051 148.188 536.507 148.188C536.374 148.188 536.23 148.285 536.107 148.427C535.318 149.33 534.385 150.091 533.288 150.472L524.234 153.649L515.18 150.472C514.073 150.081 513.15 149.33 512.361 148.427C512.237 148.285 512.094 148.188 511.961 148.188C511.407 148.188 500.477 153.649 495.155 157C490.08 160.199 485.404 167.75 482.554 180.806C482.308 181.916 482.892 183.047 483.918 183.395L502.292 189.869C502.292 189.869 502.292 218.625 502.292 222.933C502.292 227.242 498.098 229.472 507.982 231.267C513.673 232.301 520.45 232.29 524.244 231.985C528.038 232.29 534.805 232.301 540.506 231.267C550.39 229.472 546.196 227.242 546.196 222.933C546.176 218.625 546.176 189.869 546.176 189.869Z" fill="#3361BA"/>
<path d="M524.224 120.324H489.701L515.499 194.907H524.224H532.96L558.757 120.324H524.224Z" fill="url(#paint10_linear)"/>
<path d="M530.426 200.684H518.009C516.81 200.684 515.774 199.65 515.692 198.344L513.775 167.162C513.652 165.171 514.79 163.518 516.307 163.518H532.108C533.635 163.518 534.763 165.171 534.64 167.162L532.723 198.344C532.661 199.65 531.626 200.684 530.426 200.684Z" fill="white"/>
<path d="M518.625 167.011C518.625 167.74 518.061 168.338 517.374 168.338C516.687 168.338 516.123 167.74 516.123 167.011C516.123 166.271 516.687 165.684 517.374 165.684C518.061 165.684 518.625 166.282 518.625 167.011Z" fill="black"/>
<path d="M522.602 167.783H520.388C519.988 167.783 519.67 167.435 519.67 167.021C519.67 166.597 519.998 166.26 520.388 166.26H522.602C523.002 166.26 523.32 166.608 523.32 167.021C523.32 167.435 522.992 167.783 522.602 167.783Z" fill="black"/>
<path d="M505.717 194.808C505.717 194.808 507.204 195.363 507.47 194.808C507.737 194.253 509.634 178.869 509.634 178.869" stroke="#234280" stroke-width="0.7928" stroke-miterlimit="10"/>
<path d="M542.669 194.808C542.669 194.808 541.182 195.363 540.915 194.808C540.649 194.253 538.752 178.869 538.752 178.869" stroke="#234280" stroke-width="0.7928" stroke-miterlimit="10"/>
<path d="M524.224 231.997C528.018 232.301 534.785 232.312 540.486 231.279C550.37 229.483 546.177 227.253 546.177 222.945C546.177 220.649 546.177 211.434 546.177 203.306C538.722 202.055 535.975 211.009 528.428 215.47C521.569 219.517 506.342 220.475 502.282 220.66C502.282 221.672 502.282 222.466 502.282 222.945C502.282 227.253 498.088 229.483 507.973 231.279C513.663 232.312 520.431 232.301 524.224 231.997Z" fill="#234280"/>
<path d="M509.007 237.404C528.878 237.383 525.443 263.854 522.552 288.584C519.66 313.314 517.497 326.348 517.497 326.348C517.497 326.348 518.584 333.823 514.606 345.323C514.606 345.323 504.937 347.107 493.104 345.323C493.104 345.323 488.408 330.178 492.387 315.991C492.387 315.991 493.145 272.166 494.15 259.066C495.452 242.007 502.671 237.415 509.007 237.404Z" fill="#0E3B91"/>
<path d="M491.752 339.339C492.388 343.006 493.105 345.323 493.105 345.323C504.938 347.107 514.607 345.323 514.607 345.323C515.376 343.082 515.96 341.004 516.391 339.1C506.076 340.547 495.987 339.785 491.752 339.339Z" fill="#0A2863"/>
<path d="M505.44 384.818C506.424 383.349 505.84 380.368 505.542 376.853L500.969 378.279L497.104 376.396L495.689 381.51C495.689 381.51 485.661 392.727 489.321 393.87C491.29 394.49 504.076 386.83 505.44 384.818Z" fill="#0A2863"/>
<path d="M541.654 237.404C521.783 237.383 525.402 263.854 524.11 288.584C522.818 313.314 522.777 326.348 522.777 326.348C522.777 326.348 520.429 333.823 522.459 345.323C522.459 345.323 531.821 347.107 543.961 345.323C543.961 345.323 551.22 330.178 549.641 315.991C549.641 315.991 555.988 276.377 557.064 263.266C558.746 242.779 547.99 237.415 541.654 237.404Z" fill="#0E3B91"/>
<path d="M534.775 375.852L529.689 378.985L526.173 377.114C525.834 380.508 525.639 383.381 526.593 384.806C527.946 386.819 540.743 394.478 542.711 393.858C546.372 392.705 536.344 381.498 536.344 381.498L534.775 375.852Z" fill="#0A2863"/>
<path d="M485.108 230.31C484.37 224.565 481.119 221.595 486.789 184.494L503.133 190.184C504.958 190.826 506.066 192.796 505.717 194.797L500.631 224.358L485.108 230.31Z" fill="#6188D9"/>
<path d="M563.339 230.31C564.077 224.565 567.328 221.595 561.658 184.494L545.314 190.184C543.489 190.826 542.381 192.796 542.73 194.797L547.816 224.358L563.339 230.31Z" fill="#6188D9"/>
<path d="M515.867 194.907C517.949 192.971 517.446 187.215 517.446 187.215C517.446 187.215 520.564 186.421 520.646 185.779C520.728 185.137 516.431 185.921 516.431 185.921C516.431 185.921 520.902 183.69 520.635 183.19C520.369 182.689 516.431 184.049 516.431 184.049C516.431 184.049 520.297 179.088 519.415 178.805C518.533 178.522 515.488 182.395 515.488 182.395C515.488 182.395 517.928 175.139 516.842 175.563C515.755 175.998 513.796 182.319 513.253 184.833C512.709 187.346 512.238 193.025 512.238 193.025C512.238 193.025 496.15 208.812 488.799 219.377C477.325 235.86 495.392 243.149 500.539 232.161C508.495 215.188 511.007 207.224 515.867 194.907Z" fill="#80A2E8"/>
<path d="M532.58 194.907C530.499 192.971 531.001 187.215 531.001 187.215C531.001 187.215 527.884 186.421 527.802 185.779C527.72 185.137 532.016 185.921 532.016 185.921C532.016 185.921 527.546 183.69 527.812 183.19C528.079 182.689 532.016 184.049 532.016 184.049C532.016 184.049 528.151 179.088 529.032 178.805C529.914 178.522 532.959 182.395 532.959 182.395C532.959 182.395 530.519 175.139 531.606 175.563C532.693 175.998 534.651 182.319 535.195 184.833C535.738 187.346 536.21 193.025 536.21 193.025C536.21 193.025 552.297 208.812 559.649 219.377C571.122 235.86 553.056 243.149 547.909 232.161C539.952 215.188 537.44 207.224 532.58 194.907Z" fill="#80A2E8"/>
<path d="M515.456 315.229C515.456 315.229 512.473 323.421 509.356 324.433C506.239 325.434 510.576 319.831 510.576 319.831" stroke="#0A2863" stroke-width="0.7928" stroke-miterlimit="10" stroke-linecap="round" stroke-linejoin="round"/>
<path d="M515.457 322.42L511.848 329.753" stroke="#0A2863" stroke-width="0.7928" stroke-miterlimit="10" stroke-linecap="round" stroke-linejoin="round"/>
<path d="M548.041 317.1C548.041 317.1 541.941 331.472 539.439 330.754C536.937 330.036 542.761 323.943 542.761 323.943" fill="#0E3B91"/>
<path d="M548.041 317.1C548.041 317.1 541.941 331.472 539.439 330.754C536.937 330.036 542.761 323.943 542.761 323.943" stroke="#0A2863" stroke-width="0.7928" stroke-miterlimit="10" stroke-linecap="round" stroke-linejoin="round"/>
<path d="M544.658 301.281C544.658 301.281 533.82 326.011 524.746 328.884L544.658 301.281Z" fill="#0E3B91"/>
<path d="M544.658 301.281C544.658 301.281 533.82 326.011 524.746 328.884" stroke="#0A2863" stroke-width="0.7928" stroke-miterlimit="10" stroke-linecap="round" stroke-linejoin="round"/>
<path d="M546.32 339.339C545.059 343.006 543.952 345.323 543.952 345.323C531.812 347.107 522.451 345.323 522.451 345.323C522.061 343.082 521.835 341.004 521.723 339.1C531.802 340.547 542.014 339.785 546.32 339.339Z" fill="#0A2863"/>
<path d="M396.274 358.107L394.377 368.453C394.377 368.453 397.453 375.166 407.747 373.241C407.747 373.241 408.486 362.796 409.48 358.096H396.274V358.107Z" fill="#D97E7E"/>
<path d="M392.643 367.856C392.992 366.964 394.089 366.713 394.796 367.323C396.488 368.813 400.077 371.163 406.219 371.62C406.844 371.664 407.285 371.326 407.572 370.913C408.064 370.238 408.936 370.043 409.684 370.347C414.77 372.48 430.386 379.356 430.232 383.207C430.047 387.81 426.797 389.148 421.014 389.442C415.231 389.725 412.709 388.005 408.095 386.95C403.491 385.895 403.491 387.81 398.611 387.146C395.237 386.678 393.074 384.752 392.059 383.599C391.628 383.11 391.474 382.413 391.649 381.76L392.284 379.399C392.295 379.41 390.839 372.382 392.643 367.856Z" fill="#16367C"/>
<path d="M413.959 384.654C409.694 383.936 408.474 382.359 402.24 382.5C396.006 382.642 392.294 379.41 392.294 379.41L391.658 381.771C391.484 382.424 391.638 383.109 392.068 383.61C393.084 384.752 395.247 386.689 398.62 387.157C403.501 387.831 403.501 385.905 408.105 386.961C412.708 388.016 415.241 389.735 421.024 389.452C426.807 389.169 430.057 387.82 430.242 383.218C424.91 386.232 418.225 385.372 413.959 384.654Z" fill="#0A2863"/>
<path d="M446.915 247.414L448.576 252.375C449.027 253.714 449.786 254.91 450.801 255.846L454.574 259.349C454.574 259.349 458.132 261.33 457.045 268.043C456.635 270.61 455.948 269.272 455.763 267.063C455.579 264.855 454.051 261.406 454.051 261.406C454.051 261.406 454.594 266.77 453.959 269.174C453.323 271.568 451.611 272.242 451.703 271.285C451.795 270.327 452.882 264.964 451.211 261.602C451.211 261.602 451.529 270.11 449.539 271.698C447.55 273.287 449.181 268.88 449.181 266.965C449.181 265.051 449.088 262.461 448.001 261.123C448.001 261.123 448.719 267.836 447.366 269.936C446.012 272.046 446.463 267.727 446.463 266.193C446.463 265.703 446.289 264.963 446.053 264.18C445.407 262.004 443.48 260.546 441.326 260.546H439.348C439.348 260.546 439.706 258.533 440.527 257.097C441.337 255.661 437.994 247.414 437.994 247.414H446.915Z" fill="#D97E7E"/>
<path d="M314.657 247.414L315.836 252.636C316.083 253.724 315.734 254.878 314.944 255.618L310.935 259.349C310.935 259.349 307.377 261.33 308.464 268.043C308.874 270.61 309.561 269.272 309.746 267.063C309.931 264.855 311.458 261.406 311.458 261.406C311.458 261.406 310.915 266.77 311.551 269.174C312.186 271.568 313.899 272.242 313.806 271.285C313.714 270.327 312.627 264.964 314.298 261.602C314.298 261.602 313.981 270.11 315.97 271.698C317.959 273.287 316.329 268.88 316.329 266.965C316.329 265.051 316.421 262.461 317.508 261.123C317.508 261.123 316.79 267.836 318.143 269.936C319.497 272.046 319.046 267.727 319.046 266.193C319.046 265.703 319.22 264.963 319.456 264.18C320.102 262.004 322.029 260.546 324.183 260.546H326.162C326.162 260.546 325.803 258.533 324.982 257.097C324.172 255.661 323.588 247.414 323.588 247.414H314.657Z" fill="#D97E7E"/>
<path d="M367.994 124.002C367.994 124.002 375.807 124.089 381.18 124.002C386.553 123.915 393.874 123.915 406.875 124.785C419.876 125.645 429.637 149.374 434.518 166.619C439.398 183.874 452.943 248.132 452.943 248.132H429.637C429.637 248.132 420.02 214.773 418.8 211.325C417.579 207.876 417.713 203.991 417.713 203.991C417.713 203.991 414.186 200.825 415.139 197.67L410.535 185.452C410.535 185.452 408.228 193.721 408.905 199.868C409.582 206.015 407.142 209.605 407.142 209.605C407.142 209.605 406.198 214.784 408.905 218.092C411.612 221.399 409.449 229.015 409.449 229.015H342.115C342.115 229.015 338.588 219.67 342.115 211.477C342.115 211.477 339.798 204.285 340.546 199.259L335.881 177.836L328.704 207.168C328.704 207.168 330.334 235.772 329.79 246.554H308.515C308.515 246.554 301.604 212.053 302.824 198.965C304.044 185.887 310.678 165.824 311.898 161.908C313.118 157.991 316.461 135.034 326.345 129.714C336.24 124.393 362.406 124.002 367.994 124.002Z" fill="#FFB637"/>
<path d="M329.113 163.409C328.437 169.927 328.703 178.979 325.053 184.158C321.393 189.336 324.376 195.375 323.423 201.696C322.48 208.017 322.879 209.606 319.896 216.362C316.912 223.119 323.423 237.067 323.423 237.067L329.882 238.112C329.739 225.273 328.703 207.169 328.703 207.169L335.881 177.836C335.881 177.836 333.276 169.883 333.04 160.417C332.907 155.119 329.79 156.892 329.113 163.409Z" fill="url(#paint11_linear)"/>
<path d="M430.15 249.275H451.61C453.107 249.275 454.214 247.784 453.845 246.239C453.312 244.02 452.523 240.68 451.548 236.6C451.292 235.522 450.369 234.75 449.313 234.75H427.033C425.454 234.75 424.346 236.404 424.859 237.992C426.192 242.105 427.34 245.652 427.976 247.621C428.294 248.622 429.165 249.275 430.15 249.275Z" fill="#FFD996"/>
<path d="M309.058 247.698H329.175C329.913 247.698 330.518 247.089 330.549 246.305C330.641 243.564 330.621 240.017 330.539 236.187C330.518 235.393 329.913 234.762 329.165 234.762H307.13C306.269 234.762 305.623 235.599 305.787 236.503C306.628 241.116 307.366 244.804 307.725 246.567C307.848 247.23 308.412 247.698 309.058 247.698Z" fill="#FFD996"/>
<path d="M415.139 197.671C414.196 200.837 417.712 203.992 417.712 203.992C417.712 203.992 417.579 207.876 418.799 211.325C419.702 213.882 425.238 232.911 428.027 242.551C430.837 242.018 433.4 240.603 434.241 237.35C436.404 229.016 425.977 206.157 426.653 202.556C427.33 198.965 422.05 194.505 423.403 189.184C424.757 183.864 417.846 175.813 416.359 169.491C414.872 163.17 412.832 161.723 412.975 166.478C413.109 171.221 412.032 176.977 410.535 185.452L415.139 197.671Z" fill="url(#paint12_linear)"/>
<path d="M332.087 132.402C332.087 132.402 330.733 134.415 331.41 137.146C332.087 139.877 329.513 147.787 332.087 155.544" stroke="#C9810C" stroke-width="0.7928" stroke-miterlimit="10" stroke-linecap="round" stroke-linejoin="round"/>
<path d="M326.807 141.889C326.807 141.889 326.766 149.657 330.918 156.12" stroke="#C9810C" stroke-width="0.7928" stroke-miterlimit="10" stroke-linecap="round" stroke-linejoin="round"/>
<path d="M415.14 133.555C415.817 136.286 415.407 136.862 415.14 140.17C414.873 143.477 416.904 152.965 413.92 161.016" stroke="#C9810C" stroke-width="0.7928" stroke-miterlimit="10" stroke-linecap="round" stroke-linejoin="round"/>
<path d="M419.477 144.762C419.477 144.762 421.261 153.455 414.75 161.909" stroke="#C9810C" stroke-width="0.7928" stroke-miterlimit="10" stroke-linecap="round" stroke-linejoin="round"/>
<path d="M347.395 198.814C344.032 196.464 340.382 191.742 338.26 188.75L340.546 199.249C339.798 204.276 342.115 211.467 342.115 211.467C338.588 219.66 342.115 229.006 342.115 229.006H385.815C377.458 227.135 370.373 223.381 365.185 218.822C363.391 217.245 361.34 216.015 359.125 215.243C349.128 211.729 352.102 202.1 347.395 198.814Z" fill="url(#paint13_linear)"/>
<path d="M359.207 226.992C359.207 226.992 369.296 228.722 377.817 228.722C386.337 228.722 401.861 225.752 409.182 224.653C416.851 223.5 419.661 222.499 429.504 223.935C441.295 225.665 446.166 238.884 439.327 271.089C432.488 303.294 428.96 315.795 426.52 325.935C424.08 336.075 415.139 359.358 415.139 359.358H392.92L400.661 265.333C400.661 265.333 397.524 262.646 396.447 260.394H359.207V226.992Z" fill="#3C36A8"/>
<path d="M429.504 223.925C419.661 222.489 416.851 223.49 409.182 224.643C401.861 225.742 386.327 228.712 377.817 228.712C369.296 228.712 359.207 226.982 359.207 226.982V260.384H392.325C394.653 260.384 396.868 261.418 398.488 263.191C399.595 264.399 400.661 265.324 400.661 265.324C403.307 252.485 417.754 228.908 431.308 229.67C439.193 230.116 441.664 240.757 442.372 249.58C443.131 232.76 438.209 225.209 429.504 223.925Z" fill="url(#paint14_linear)"/>
<path d="M397.082 257.413C397.082 257.413 397.779 242.29 402.342 235.436" stroke="#2D1D59" stroke-width="0.7928" stroke-miterlimit="10" stroke-linecap="round" stroke-linejoin="round"/>
<path d="M402.344 263.55C402.344 263.55 406.907 250.32 414.094 246.414" stroke="#2D1D59" stroke-width="0.7928" stroke-miterlimit="10" stroke-linecap="round" stroke-linejoin="round"/>
<path d="M399.707 258.904C399.707 258.904 402.158 239.886 404.444 240.364C406.72 240.843 403.214 248.078 403.214 248.078" stroke="#2D1D59" stroke-width="0.7928" stroke-miterlimit="10" stroke-linecap="round" stroke-linejoin="round"/>
<path d="M367.716 357.053V375.309H355.935L352.818 357.053H367.716Z" fill="#D97E7E"/>
<path d="M356.613 373.59C356.613 373.59 361.739 371.295 366.456 373.59C367.717 374.2 367.717 371.904 367.717 371.904C367.717 371.904 369.429 373.634 369.706 377.464C369.973 381.293 368.712 382.925 370.065 385.798C371.419 388.67 374.207 392.282 372.054 397.777C371.152 400.072 369.706 403.043 363.021 403.043C356.336 403.043 352.634 400.072 352.091 395.47C351.548 390.868 353.721 386.657 353.803 383.013C353.896 379.368 352.86 373.786 355.044 370.152C355.054 370.174 355.218 374.069 356.613 373.59Z" fill="#16367C"/>
<path d="M362.427 399.899C356.582 399.899 353.588 397.418 352.061 395.035C352.071 395.187 352.081 395.34 352.102 395.492C352.645 400.094 356.346 403.065 363.032 403.065C369.717 403.065 371.162 400.094 372.065 397.788C372.311 397.157 372.485 396.558 372.608 395.982C370.65 398.027 367.492 399.899 362.427 399.899Z" fill="#0A2863"/>
<path d="M349.026 223.924C367.994 223.924 368.21 246.065 368.917 263.027C369.625 279.988 372.331 292.065 371.245 307.014C370.158 321.964 373.951 340.079 369.348 359.347H349.026C349.026 359.347 341.705 336.467 340.628 319.733C339.541 303 333.041 281.718 333.041 269.642C333.041 257.565 323.259 223.924 349.026 223.924Z" fill="#3C36A8"/>
<path d="M375.265 106.91C375.716 109.303 377.038 112.241 376.034 114.384C375.07 116.441 372.958 116.397 372.958 116.397L376.7 124.557C376.926 125.047 377.397 125.362 377.91 125.362H379.458C380.371 125.362 381.058 126.222 380.904 127.179C380.391 130.334 379.171 136.884 377.336 140.845C374.854 146.208 369.974 148.417 368.979 151.344C368.959 147.111 367.123 145.501 365.77 144.827C364.417 144.152 361.484 143.01 360.756 137.689C360.243 133.936 359.967 129.442 359.833 127.125C359.792 126.265 360.418 125.526 361.228 125.493L362.192 125.438C362.868 125.406 363.36 124.72 363.196 124.013L361.699 117.409C361.699 117.409 358.172 110.99 357.639 109.401C357.096 107.824 353.169 102.982 359.444 98.3364C365.719 93.6906 375.521 91.7214 376.741 95.747C377.971 99.7617 375.265 106.91 375.265 106.91Z" fill="#D97E7E"/>
<path d="M363.217 124.002L364.468 129.714" stroke="#D95757" stroke-width="0.7647" stroke-miterlimit="10" stroke-linecap="round" stroke-linejoin="round"/>
<path d="M372.957 116.398C371.071 116.768 367.246 115.299 365.452 114.179C363.657 113.069 363.524 115.114 364.908 115.865C366.293 116.616 368.63 119.39 370.702 120.859C371.973 121.762 373.326 120.315 374.188 119.075L372.957 116.398Z" fill="#D95757"/>
<path d="M368.989 151.334C368.353 154.108 368.404 155.164 368.558 158.286C368.712 161.398 369.747 164.281 369.214 167.338C368.681 170.396 368.527 173.475 368.917 175.488" stroke="#C9810C" stroke-width="0.7928" stroke-miterlimit="10" stroke-linecap="round" stroke-linejoin="round"/>
<path d="M363.78 154.325C364.562 154.325 365.195 153.653 365.195 152.824C365.195 151.994 364.562 151.322 363.78 151.322C362.999 151.322 362.365 151.994 362.365 152.824C362.365 153.653 362.999 154.325 363.78 154.325Z" fill="white"/>
<path d="M363.78 163.409C364.562 163.409 365.195 162.737 365.195 161.908C365.195 161.078 364.562 160.406 363.78 160.406C362.999 160.406 362.365 161.078 362.365 161.908C362.365 162.737 362.999 163.409 363.78 163.409Z" fill="white"/>
<path d="M363.78 172.495C364.562 172.495 365.195 171.823 365.195 170.994C365.195 170.164 364.562 169.492 363.78 169.492C362.999 169.492 362.365 170.164 362.365 170.994C362.365 171.823 362.999 172.495 363.78 172.495Z" fill="white"/>
<path d="M365.554 101.111C365.554 101.111 365.001 103.918 361.801 104.93C361.801 104.93 363.432 108.727 362.899 109.119C362.355 109.499 360.961 107.302 359.515 108.259C358.069 109.217 359.33 112.187 360.827 112.905C362.314 113.623 362.858 112.905 362.858 112.905L361.73 117.409C361.73 117.409 358.162 112.763 354.819 110.315C351.476 107.867 347.478 104.016 352.092 100.785C350.195 95.4643 353.65 90.5792 358.387 90.5248C360.376 85.3024 371.573 82.0928 373.788 89.6652C379.068 87.2716 386.163 91.6345 382.503 97.0419C378.842 102.46 375.592 104.658 375.274 106.91L373.829 100.11L365.554 101.111Z" fill="#16367C"/>
<path d="M211.242 347.084C211.242 347.084 216.81 368.452 216.953 372.63C217.087 376.797 215.467 378.669 217.63 381.541C219.793 384.413 221.557 383.554 221.834 386.143C222.1 388.733 223.731 390.887 226.304 391.322C228.878 391.757 232.805 390.604 232.538 387.438C232.272 384.272 228.068 380.246 227.114 378.951C226.171 377.657 223.731 372.195 223.731 372.195L223.177 347.084H211.242Z" fill="#D97E7E"/>
<path d="M133.88 347.062L128.118 370.672L120.192 376.46C120.192 376.46 112.615 378.223 112.625 379.953C112.635 381.683 116.798 383.282 122.027 382.053C127.257 380.834 132.158 379.811 134.659 379.267C138.72 378.386 136.608 371.02 136.608 371.02L146.799 347.966L133.88 347.062Z" fill="#D97E7E"/>
<path d="M249.937 218.081C249.937 218.081 253.188 232.845 252.829 244.53C252.47 256.226 247.23 261.014 239.827 261.014C232.425 261.014 225.38 261.014 225.38 261.014C225.38 261.014 225.196 266.954 222.489 264.267C222.489 264.267 229.892 307.199 230.62 350.143H207.14L188.715 261.394L151.505 350.143C151.505 350.143 140.852 353.015 131.275 350.143C131.275 350.143 146.994 276.92 154.038 258.903C161.082 240.886 167.039 232.639 178.789 229.19C190.529 225.741 204.084 221.138 204.084 221.138L204.443 218.07H249.937V218.081Z" fill="#FFB637"/>
<path d="M196.477 239.699C204.874 235.195 210.298 233.465 210.298 233.465C210.298 233.465 211.652 227.862 208.268 225.99C206.658 225.098 204.546 223.26 202.782 221.584C199.143 222.803 188.356 226.382 178.779 229.2C167.039 232.649 161.072 240.896 154.028 258.913C149.957 269.325 142.995 298.168 137.838 320.668C137.838 320.668 142.698 325.477 149.199 317.567C155.699 309.658 160.713 296.863 168.301 295.568C170.843 295.133 173.243 294.273 175.324 293.327L188.715 261.394C187.126 252.875 188.069 244.204 196.477 239.699Z" fill="url(#paint15_linear)"/>
<path d="M210.287 233.464C210.287 233.464 217.69 229.874 222.837 229.297" stroke="#C9810C" stroke-width="0.7928" stroke-miterlimit="10" stroke-linecap="round" stroke-linejoin="round"/>
<path d="M252.163 231.801C251.302 224.272 249.938 218.092 249.938 218.092H204.413L204.311 219.006L206.084 221.595C206.084 221.595 209.837 226.002 216.563 226.72C223.289 227.438 226.95 225.283 233.584 227.873C238.413 229.733 246.708 234.031 252.163 231.801Z" fill="url(#paint16_linear)"/>
<path d="M221.668 262.167C221.668 262.167 219.679 254.398 215.711 252.201C211.733 249.992 217.7 257.184 217.7 257.184" stroke="#C9810C" stroke-width="0.7928" stroke-miterlimit="10" stroke-linecap="round" stroke-linejoin="round"/>
<path d="M225.371 259.674C225.371 259.674 223.29 248.652 220.86 247.314C218.42 245.976 220.86 250.763 220.86 250.763" stroke="#C9810C" stroke-width="0.7928" stroke-miterlimit="10" stroke-linecap="round" stroke-linejoin="round"/>
<path d="M256.807 191.249L284.809 259.728C284.809 259.728 283.117 261.643 282.983 263.95C282.85 266.245 283.732 265.821 284.132 264.809C284.542 263.808 285.147 261.36 287.72 261.36C290.294 261.36 291.924 261.077 293.073 263.014C294.221 264.951 295.513 268.04 296.19 267.899C296.866 267.758 294.057 262.1 294.057 262.1C294.057 262.1 297.882 268.682 298.558 268.4C299.235 268.117 295.575 261.784 295.575 261.784C295.575 261.784 297.912 263.656 298.64 265.592C299.368 267.529 300.178 266.778 299.645 264.951C299.399 264.113 297.143 261.208 297.143 261.208C297.143 261.208 298.804 261.567 299.953 263.504C301.06 265.364 301.07 263.688 300.527 262.394C299.983 261.099 298.425 259.989 297.482 259.413C296.538 258.836 291.832 257.019 289.874 256.083C289.874 256.083 288.951 224.695 281.363 211.323L275.273 180.271L256.807 191.249Z" fill="#D97E7E"/>
<path d="M259.074 196.776C260.612 197.255 263.719 197.734 267.574 195.797C271.419 193.861 275.182 194.176 277.94 193.893L275.264 180.271L256.818 191.249L259.074 196.776Z" fill="#D95757"/>
<path d="M270.105 211.336C270.105 211.336 273.961 210.4 276.77 211.336" stroke="#D95757" stroke-width="0.7647" stroke-miterlimit="10" stroke-linecap="round" stroke-linejoin="round"/>
<path d="M183.466 182.568L178.862 201.401C178.862 201.401 159.627 186.017 156.51 182.568C153.393 179.119 150.409 178.14 147.979 177.041C145.549 175.942 147.169 178.39 149.466 179.543C149.466 179.543 148.246 179.978 145.939 180.261C143.632 180.544 142.279 178.531 141.879 179.543C141.468 180.544 144.001 181.991 146.165 181.697C146.165 181.697 144.401 182.611 142.596 182.22C140.792 181.839 140.607 181.023 140.156 181.306C139.705 181.589 139.746 182.361 141.192 183.079C142.637 183.797 144.811 183.841 146.021 183.503C146.021 183.503 143.632 184.504 142.135 184.178C140.648 183.841 140.371 183.656 140.279 184.276C140.187 184.896 141.181 185.473 142.535 185.614C143.888 185.756 145.836 185.331 145.836 185.331C145.836 185.331 144.032 186.669 142.76 186.767C141.499 186.865 141.222 187.725 141.766 188.062C142.309 188.399 146.052 187.681 147.262 186.626C147.262 186.626 149.302 187.203 152.235 186.234C152.235 186.234 166.374 219.016 181.631 219.016C191.566 219.016 196.201 204.349 198.795 194.579C201.286 185.19 200.651 183.482 200.651 183.482L183.466 182.568Z" fill="#D97E7E"/>
<path d="M178.861 201.402C178.861 201.402 180.686 202.262 183.065 205.428" stroke="#D95757" stroke-width="0.7647" stroke-miterlimit="10" stroke-linecap="round" stroke-linejoin="round"/>
<path d="M147.795 184.342C147.795 184.342 149.148 181.23 152.491 182.09" stroke="#D95757" stroke-width="0.7647" stroke-miterlimit="10" stroke-linecap="round" stroke-linejoin="round"/>
<path d="M200.671 183.503L183.466 182.578L181.887 189.019C185.096 190.433 193.555 194.448 197.523 199.203C198.005 197.603 198.436 196.058 198.815 194.611C201.317 185.2 200.671 183.503 200.671 183.503Z" fill="#D95757"/>
<path d="M233.819 145.338C233.819 145.338 240.771 144.043 244.841 143.183C248.902 142.324 257.843 144.043 265.297 152.388C272.751 160.733 284.809 175.551 284.809 175.551C284.809 175.551 275.325 188.183 257.166 195.516L253.741 188.618C253.741 188.618 250.112 210.476 251.178 213.773C252.244 217.07 256.079 219.528 249.989 221.247C243.888 222.977 229.256 224.261 219.916 223.978C210.565 223.695 199.86 223.26 196.743 221.389C193.626 219.518 198.148 215.068 198.373 210.89C199.183 195.364 196.21 194.929 196.61 186.04L177.918 185.006C177.918 185.006 184.962 166.227 189.709 157.284C194.446 148.341 201.183 144.456 212.113 145.468C223.022 146.491 227.103 146.622 233.819 145.338Z" fill="#18439C"/>
<path d="M179.426 181.067C178.493 183.472 177.908 185.017 177.908 185.017L196.6 186.05C197.072 180.567 202.086 170.002 203.572 168.055C203.583 168.055 188.869 180.055 179.426 181.067Z" fill="url(#paint17_linear)"/>
<path d="M235.43 223.422C241.295 222.921 246.811 222.138 249.989 221.235C256.09 219.505 252.245 217.057 251.179 213.76C250.112 210.464 253.742 188.606 253.742 188.606C251.384 183.568 249.077 177.911 248.851 173.124C248.667 169.196 245.96 167.76 246.503 179.162C247.047 190.564 248.759 201.303 245.96 207.145C243.171 212.999 246.719 220.43 235.43 223.422Z" fill="url(#paint18_linear)"/>
<path d="M200.67 205.428C200.67 205.428 210.79 216.068 212.092 214.774C213.405 213.479 210.687 210.748 210.687 210.748" stroke="#362CA1" stroke-width="0.5285" stroke-miterlimit="10" stroke-linecap="round" stroke-linejoin="round"/>
<path d="M247.138 158.414C247.138 158.414 245.867 164.376 248.737 172.101" stroke="#362CA1" stroke-width="0.5285" stroke-miterlimit="10" stroke-linecap="round" stroke-linejoin="round"/>
<path d="M244.586 162.734C244.586 162.734 244.002 165.868 246.863 170.263" stroke="#362CA1" stroke-width="0.5285" stroke-miterlimit="10" stroke-linecap="round" stroke-linejoin="round"/>
<path d="M227.103 378.951C226.704 378.407 226.047 377.145 225.422 375.85C222.623 375.938 220.449 377.798 220.449 377.798C218.142 375.502 216.942 372.619 216.942 372.619C217.076 376.786 215.456 378.658 217.619 381.53C219.783 384.402 221.546 383.543 221.823 386.132C222.09 388.721 223.72 390.876 226.293 391.311C228.867 391.746 232.794 390.593 232.527 387.427C232.251 384.272 228.057 380.246 227.103 378.951Z" fill="#16367C"/>
<path d="M125.052 372.915L120.202 376.461C120.202 376.461 112.625 378.224 112.635 379.954C112.645 381.684 116.808 383.283 122.037 382.054C127.266 380.835 132.167 379.812 134.669 379.268C138.729 378.387 136.617 371.021 136.617 371.021C136.617 371.021 129.912 376.233 128.466 376.135C127.42 376.059 126.384 374.068 125.052 372.915Z" fill="#16367C"/>
<path d="M222.398 99.6081C222.398 99.6081 226.335 97.3451 230.58 102.937C234.815 108.53 236.435 108.41 237.388 113.186C238.342 117.963 236.978 122.151 231.288 123.968C225.597 125.785 224.869 153.105 212.093 150.08C212.093 150.08 208.864 153.823 208.289 158.85C207.715 163.876 209.335 170.067 198.908 173.799C188.48 177.542 180.349 174.8 180.616 169.915C180.882 165.03 185.63 160.569 187.526 156.119C189.423 151.658 185.63 149.221 187.26 142.464C188.89 135.708 195.524 132.542 196.744 128.516C197.964 124.491 196.16 118.996 200.087 113.186C203.696 107.844 205.131 110.183 206.772 104.994C209.52 96.2788 222.173 92.3947 222.398 99.6081Z" fill="#382C2C"/>
<path d="M225.329 105.516C225.329 105.516 230.456 107.92 231.963 112.414C232.639 114.426 234.947 115.993 234.947 115.993C234.947 115.993 238.894 124.751 234.947 127.221C232.64 128.657 231.563 129.375 231.563 129.375C231.563 129.375 232.004 136.208 233.521 140.582C234.065 142.149 235.398 143.269 236.966 143.498L242.278 144.27C243.846 144.499 244.533 146.501 243.467 147.741C240.586 151.103 234.823 156.119 226.006 156.119C212.727 156.119 212.092 150.08 212.092 150.08C212.092 150.08 220.582 143.607 220.448 136.426C220.315 129.234 219.772 127.515 219.772 127.515C219.772 127.515 214.214 123.207 215.845 120.04C217.475 116.874 220.992 121.89 220.992 121.89C220.992 121.89 222.079 120.878 221.945 117.941C221.945 117.941 226.006 115.047 225.329 105.516Z" fill="#D97E7E"/>
<path d="M232.373 135.936C231.768 132.541 231.553 129.375 231.553 129.375C231.553 129.375 232.291 128.886 233.808 127.928C233.808 127.928 228.846 128.94 225.729 127.362C222.612 125.785 222.54 124.555 221.935 124.914C221.33 125.273 221.258 126.927 223.422 128.722C225.37 130.333 229.256 136.871 232.373 135.936Z" fill="#D95757"/>
<path d="M311.467 95.7138C310.329 92.0255 315.333 87.445 323.372 84.8555C331.41 82.2661 341.346 81.7874 343.058 87.445C344.77 93.1026 351.866 115.809 349.989 124.916C346.688 140.909 305.264 147.154 293.75 150.31C293.75 150.31 291.586 152.224 289.146 152.899C286.706 153.574 282.912 159.416 281.2 159.373C279.487 159.329 283.189 156.838 284.901 153.954C284.901 153.954 277.58 158.502 276.955 157.577C276.329 156.653 282.194 154.531 283.363 152.714C283.363 152.714 276.134 156.261 275.324 155.206C274.514 154.15 281.558 151.942 282.82 150.799C282.82 150.799 275.96 153.628 275.683 152.257C275.417 150.886 281.641 149.929 282.82 148.786C283.999 147.633 282.553 147.785 281.282 147.231C280.02 146.676 279.651 144.957 280.83 145.142C282.01 145.337 284.173 146.099 284.173 146.099C284.173 146.099 287.875 144.848 290.407 145.142C290.407 145.142 312.759 122.511 322.244 118.388C322.244 118.388 313.713 102.971 311.467 95.7138Z" fill="#CD794F"/>
<path d="M322.244 118.389C325.546 116.865 330.785 116.387 333.133 117.105" stroke="#BF5521" stroke-width="0.7647" stroke-miterlimit="10" stroke-linecap="round" stroke-linejoin="round"/>
<path d="M344.689 122.902C344.689 122.902 341.347 125.905 340.629 130.105" stroke="#BF5521" stroke-width="0.7647" stroke-miterlimit="10" stroke-linecap="round" stroke-linejoin="round"/>
<path d="M343.068 87.445C341.355 81.7874 331.42 82.2661 323.381 84.8555C315.343 87.445 310.339 92.0255 311.477 95.7138C311.641 96.236 311.836 96.8127 312.062 97.4111C312.564 98.7711 314.266 99.0104 315.117 97.8571C318.183 93.6901 323.607 91.9384 329.892 93.2767C334.865 94.332 340.761 94.4735 344.739 92.9611C344.021 90.5784 343.427 88.6309 343.068 87.445Z" fill="#BF5521"/>
<defs>
<linearGradient id="paint0_linear" x1="460.758" y1="357.077" x2="614.097" y2="92.7359" gradientUnits="userSpaceOnUse">
<stop stop-color="white" stop-opacity="0"/>
<stop offset="0.6343" stop-color="#B5CCFF" stop-opacity="0.6343"/>
<stop offset="1" stop-color="#8FB2FF"/>
</linearGradient>
<linearGradient id="paint1_linear" x1="286.325" y1="350.099" x2="93.0743" y2="60.7991" gradientUnits="userSpaceOnUse">
<stop stop-color="white" stop-opacity="0"/>
<stop offset="0.0872" stop-color="#F3F7FF" stop-opacity="0.0872"/>
<stop offset="0.5105" stop-color="#BDD2FF" stop-opacity="0.5105"/>
<stop offset="0.8275" stop-color="#9CBBFF" stop-opacity="0.8275"/>
<stop offset="1" stop-color="#8FB2FF"/>
</linearGradient>
<linearGradient id="paint2_linear" x1="66.6649" y1="201.85" x2="165.304" y2="341.737" gradientUnits="userSpaceOnUse">
<stop stop-color="#66B58A"/>
<stop offset="0.7208" stop-color="#194E8A"/>
</linearGradient>
<linearGradient id="paint3_linear" x1="603.002" y1="180.249" x2="583.389" y2="228.155" gradientUnits="userSpaceOnUse">
<stop stop-color="#66B58A"/>
<stop offset="0.7208" stop-color="#194E8A"/>
</linearGradient>
<linearGradient id="paint4_linear" x1="387.148" y1="-4.08006" x2="387.148" y2="262.742" gradientUnits="userSpaceOnUse">
<stop stop-color="#B7EBCF"/>
<stop offset="0.0447" stop-color="#A3DDCC"/>
<stop offset="0.127" stop-color="#85C8C7"/>
<stop offset="0.2177" stop-color="#6BB7C4"/>
<stop offset="0.3185" stop-color="#58AAC1"/>
<stop offset="0.4348" stop-color="#4AA0BF"/>
<stop offset="0.5804" stop-color="#429BBD"/>
<stop offset="0.8479" stop-color="#4099BD"/>
</linearGradient>
<linearGradient id="paint5_linear" x1="117.84" y1="138.463" x2="146.795" y2="224.304" gradientUnits="userSpaceOnUse">
<stop stop-color="#66B58A"/>
<stop offset="0.9204" stop-color="#407ABD"/>
</linearGradient>
<linearGradient id="paint6_linear" x1="670.131" y1="205.456" x2="607.69" y2="298.719" gradientUnits="userSpaceOnUse">
<stop stop-color="#66B58A"/>
<stop offset="0.9204" stop-color="#407ABD"/>
</linearGradient>
<linearGradient id="paint7_linear" x1="238.343" y1="103.604" x2="252.935" y2="103.604" gradientUnits="userSpaceOnUse">
<stop stop-color="#1E4A45" stop-opacity="0"/>
<stop offset="0.9568" stop-color="#1E4A45"/>
</linearGradient>
<linearGradient id="paint8_linear" x1="313.029" y1="144.045" x2="322.74" y2="100.573" gradientUnits="userSpaceOnUse">
<stop stop-color="#1E4A45" stop-opacity="0"/>
<stop offset="0.9568" stop-color="#1E4A45"/>
</linearGradient>
<linearGradient id="paint9_linear" x1="309.105" y1="332.133" x2="309.105" y2="230.125" gradientUnits="userSpaceOnUse">
<stop stop-color="#1D134F" stop-opacity="0"/>
<stop offset="1" stop-color="#1D134F"/>
</linearGradient>
<linearGradient id="paint10_linear" x1="524.225" y1="120.927" x2="524.225" y2="175.676" gradientUnits="userSpaceOnUse">
<stop stop-color="white" stop-opacity="0"/>
<stop offset="0.9891" stop-color="white" stop-opacity="0.6"/>
</linearGradient>
<linearGradient id="paint11_linear" x1="319.115" y1="197.701" x2="335.883" y2="197.701" gradientUnits="userSpaceOnUse">
<stop stop-color="#997122" stop-opacity="0"/>
<stop offset="0.9611" stop-color="#997122"/>
</linearGradient>
<linearGradient id="paint12_linear" x1="434.886" y1="202.793" x2="400.743" y2="203.474" gradientUnits="userSpaceOnUse">
<stop stop-color="#997122" stop-opacity="0"/>
<stop offset="0.9611" stop-color="#997122"/>
</linearGradient>
<linearGradient id="paint13_linear" x1="379.314" y1="208.88" x2="319.145" y2="208.88" gradientUnits="userSpaceOnUse">
<stop stop-color="#997122" stop-opacity="0"/>
<stop offset="0.9611" stop-color="#997122"/>
</linearGradient>
<linearGradient id="paint14_linear" x1="468.913" y1="244.275" x2="344.983" y2="244.275" gradientUnits="userSpaceOnUse">
<stop stop-color="#382018" stop-opacity="0"/>
<stop offset="1" stop-color="#382018"/>
</linearGradient>
<linearGradient id="paint15_linear" x1="144.659" y1="271.846" x2="227.661" y2="271.846" gradientUnits="userSpaceOnUse">
<stop stop-color="#997122" stop-opacity="0"/>
<stop offset="0.9611" stop-color="#997122"/>
</linearGradient>
<linearGradient id="paint16_linear" x1="228.24" y1="247.409" x2="228.24" y2="219.77" gradientUnits="userSpaceOnUse">
<stop stop-color="#997122" stop-opacity="0"/>
<stop offset="0.9611" stop-color="#997122"/>
</linearGradient>
<linearGradient id="paint17_linear" x1="177.912" y1="177.05" x2="203.585" y2="177.05" gradientUnits="userSpaceOnUse">
<stop stop-color="#1D134F" stop-opacity="0"/>
<stop offset="1" stop-color="#1D134F"/>
</linearGradient>
<linearGradient id="paint18_linear" x1="232.902" y1="203.857" x2="265.958" y2="189.128" gradientUnits="userSpaceOnUse">
<stop stop-color="#1D134F" stop-opacity="0"/>
<stop offset="1" stop-color="#1D134F"/>
</linearGradient>
</defs>
</svg>
