<svg width="24" height="24" viewBox="0 0 24 24" fill="none" xmlns="http://www.w3.org/2000/svg">
<path d="M2.6651 7.20267C4.01891 5.13578 6.13038 3.61156 8.60048 3.01435C8.79081 2.96874 8.94758 2.83399 9.02099 2.65309C9.09492 2.47168 9.07709 2.26614 8.97328 2.09993C8.18259 0.839447 6.78369 0 5.18554 0C2.71491 0 0.710938 2.00293 0.710938 4.47355C0.710938 5.52221 1.07325 6.48539 1.67832 7.24724C1.79944 7.40087 1.98715 7.48581 2.18272 7.4769C2.3783 7.46798 2.55814 7.36574 2.6651 7.20267Z" fill="#091429"/>
<path d="M18.8166 0C17.2258 0 15.8317 0.831582 15.0394 2.08367C14.9345 2.24936 14.9162 2.45647 14.9901 2.63894C15.0646 2.82193 15.2219 2.95615 15.4143 3.00125C17.8912 3.5843 20.01 5.09803 21.3754 7.15811C21.4839 7.3217 21.6648 7.42289 21.8614 7.42971C22.058 7.43705 22.2447 7.34896 22.3653 7.19324C22.9447 6.4403 23.2912 5.49861 23.2912 4.47408C23.2897 2.00293 21.2873 0 18.8166 0Z" fill="#091429"/>
<path d="M21.8933 13.7025C21.8933 11.9754 21.444 10.3521 20.6606 8.93954C19.2088 6.32315 16.6013 4.44239 13.5324 3.97154C13.0432 3.89656 12.5467 3.8457 12.0365 3.8457C11.5038 3.8457 10.9847 3.90023 10.4745 3.98203C7.41876 4.47227 4.82439 6.3609 3.38774 8.98043C2.61855 10.3835 2.17969 11.9922 2.17969 13.7025C2.17969 16.6314 3.4711 19.2588 5.50549 21.0646L4.67496 22.2344C4.31737 22.7382 4.43586 23.4356 4.93974 23.7942C5.13637 23.9337 5.36235 24.0013 5.58624 24.0013C5.93649 24.0013 6.28149 23.8372 6.49909 23.5305L7.3291 22.3612C8.72853 23.1252 10.3324 23.5604 12.0365 23.5604C13.74 23.5604 15.344 23.1252 16.7434 22.3612L17.5734 23.5305C17.7915 23.8377 18.136 24.0013 18.4862 24.0013C18.7101 24.0013 18.9356 23.9337 19.1322 23.7942C19.6361 23.4356 19.7551 22.7382 19.3975 22.2344L18.567 21.0646C20.6014 19.2588 21.8933 16.6314 21.8933 13.7025ZM12.037 20.8029C8.12136 20.8029 4.9366 17.6182 4.9366 13.7025C4.9366 12.4819 5.24647 11.3331 5.79072 10.3285C6.82679 8.41783 8.71647 7.04147 10.9428 6.69489C11.3003 6.63932 11.6637 6.60156 12.037 6.60156C12.3883 6.60156 12.7318 6.63564 13.07 6.68546C15.3151 7.01473 17.2252 8.39109 18.2734 10.3101C18.8239 11.3184 19.1369 12.4735 19.1369 13.702C19.1369 17.6182 15.9522 20.8029 12.037 20.8029Z" fill="#091429"/>
<path d="M16.0137 15.3636L13.3051 13.691C13.249 13.3743 13.0775 13.1012 12.8368 12.9077L12.9606 9.50899C12.9758 9.07485 12.6371 8.71044 12.2035 8.69419C11.7709 8.67426 11.4049 9.01717 11.3887 9.45131L11.2644 12.8537C10.9283 13.0907 10.707 13.4808 10.707 13.9238C10.707 14.6479 11.2938 15.2341 12.0178 15.2341C12.2239 15.2341 12.4163 15.1822 12.5894 15.0978L15.1874 16.7033C15.3164 16.7819 15.4595 16.8202 15.6 16.8202C15.8638 16.8202 16.1207 16.6881 16.2701 16.4474C16.4987 16.0767 16.3834 15.5922 16.0137 15.3636Z" fill="#091429"/>
</svg>
