<svg width="24" height="24" viewBox="0 0 24 24" fill="none" xmlns="http://www.w3.org/2000/svg">
<g clip-path="url(#clip0)">
<path d="M2.66315 7.20267C4.01696 5.13578 6.12842 3.61156 8.59853 3.01435C8.78886 2.96874 8.94563 2.83399 9.01904 2.65309C9.09297 2.47168 9.07514 2.26614 8.97132 2.09993C8.18064 0.839447 6.78173 0 5.18359 0C2.71296 0 0.708984 2.00293 0.708984 4.47355C0.708984 5.52221 1.07129 6.48539 1.67637 7.24724C1.79749 7.40087 1.9852 7.48581 2.18077 7.4769C2.37634 7.46798 2.55619 7.36574 2.66315 7.20267Z" fill="#091429"/>
<path d="M18.8147 0C17.2239 0 15.8297 0.831582 15.0374 2.08367C14.9326 2.24936 14.9142 2.45647 14.9882 2.63894C15.0626 2.82193 15.2199 2.95615 15.4123 3.00125C17.8893 3.5843 20.0081 5.09803 21.3734 7.15811C21.4819 7.3217 21.6628 7.42289 21.8595 7.42971C22.0561 7.43705 22.2427 7.34896 22.3633 7.19324C22.9427 6.4403 23.2893 5.49861 23.2893 4.47408C23.2877 2.00293 21.2853 0 18.8147 0Z" fill="#091429"/>
<path d="M21.8894 13.7018C21.8894 11.9747 21.4401 10.3513 20.6567 8.9388C19.2049 6.32241 16.5974 4.44165 13.5285 3.97081C13.0393 3.89583 12.5428 3.84497 12.0326 3.84497C11.4999 3.84497 10.9808 3.8995 10.4706 3.9813C7.41485 4.47154 4.82048 6.36016 3.38383 8.9797C2.61464 10.3828 2.17578 11.9914 2.17578 13.7018C2.17578 16.6307 3.4672 19.2581 5.50158 21.0639L4.67105 22.2336C4.31346 22.7375 4.43196 23.4349 4.93584 23.7935C5.13246 23.933 5.35844 24.0006 5.58233 24.0006C5.93258 24.0006 6.27759 23.8365 6.49518 23.5298L7.32519 22.3605C8.72462 23.1245 10.3285 23.5596 12.0326 23.5596C13.7361 23.5596 15.34 23.1245 16.7395 22.3605L17.5695 23.5298C17.7876 23.837 18.1321 24.0006 18.4823 24.0006C18.7062 24.0006 18.9317 23.933 19.1283 23.7935C19.6322 23.4349 19.7512 22.7375 19.3936 22.2336L18.5631 21.0639C20.5975 19.2581 21.8894 16.6307 21.8894 13.7018ZM12.0331 20.8022C8.11745 20.8022 4.93269 17.6175 4.93269 13.7018C4.93269 12.4812 5.24257 11.3324 5.78682 10.3277C6.82289 8.4171 8.71256 7.04074 10.9389 6.69416C11.2964 6.63858 11.6598 6.60083 12.0331 6.60083C12.3844 6.60083 12.7279 6.63491 13.066 6.68472C15.3112 7.014 17.2213 8.39036 18.2695 10.3094C18.82 11.3177 19.133 12.4728 19.133 13.7013C19.133 17.6175 15.9483 20.8022 12.0331 20.8022Z" fill="#091429"/>
<path d="M16.0118 15.3629L13.3031 13.6903C13.247 13.3736 13.0756 13.1004 12.8349 12.9069L12.9586 9.50826C12.9738 9.07411 12.6351 8.70971 12.2015 8.69345C11.7689 8.67353 11.403 9.01644 11.3867 9.45058L11.2624 12.8529C10.9263 13.0899 10.7051 13.48 10.7051 13.9231C10.7051 14.6472 11.2918 15.2334 12.0159 15.2334C12.222 15.2334 12.4144 15.1815 12.5874 15.0971L15.1854 16.7025C15.3144 16.7812 15.4576 16.8195 15.5981 16.8195C15.8618 16.8195 16.1187 16.6873 16.2682 16.4467C16.4968 16.076 16.3814 15.5915 16.0118 15.3629Z" fill="#091429"/>
</g>
<defs>
<clipPath id="clip0">
<rect width="24" height="24" fill="white"/>
</clipPath>
</defs>
</svg>
