<svg width="24" height="24" viewBox="0 0 24 24" fill="none" xmlns="http://www.w3.org/2000/svg">
<path d="M21.4884 9.27574C23.2999 8.01641 23.7475 5.52704 22.4881 3.71558C21.2288 1.90413 18.7394 1.45655 16.928 2.71588C16.8238 2.78833 16.723 2.86573 16.6262 2.94777C15.605 0.504048 12.7961 -0.649142 10.3524 0.372055C9.09223 0.898627 8.11643 1.93752 7.6697 3.22811C6.92129 2.44355 5.88399 2.00007 4.79975 2.00112C2.59251 1.99932 0.801758 3.78718 0.799958 5.99441C0.798908 7.30214 1.43768 8.52768 2.51032 9.27574C1.07469 9.56713 1.04718e-08 10.6994 1.04718e-08 12.0506V23.6C-4.99869e-05 23.8208 0.178941 23.9999 0.399779 24C0.399829 24 0.399929 24 0.399979 24H23.5988C23.8196 24 23.9987 23.821 23.9988 23.6002C23.9988 23.6001 23.9988 23.6 23.9988 23.6V12.0506C23.9988 10.6993 22.924 9.56708 21.4884 9.27574ZM16.9991 4.80097C16.9987 4.46244 16.9624 4.12486 16.8909 3.79393C18.1084 2.51104 20.1353 2.45805 21.4182 3.67553C22.7011 4.89302 22.7541 6.91996 21.5366 8.20285C20.3191 9.48573 18.2921 9.53873 17.0093 8.32124C16.7044 8.03191 16.4595 7.68542 16.2885 7.30154C16.7526 6.55003 16.9986 5.68428 16.9991 4.80097ZM16.9202 9.27979C16.5835 9.34674 16.2587 9.46358 15.9564 9.62642C15.5486 9.31909 15.0869 9.09095 14.595 8.95391C15.0265 8.70352 15.4166 8.38769 15.7514 8.01771C16.0454 8.51773 16.4441 8.94826 16.9202 9.27979ZM12.1994 0.801182C14.4084 0.801182 16.1992 2.59194 16.1992 4.80097C16.1992 7.01001 14.4084 8.80077 12.1994 8.80077C9.99033 8.80077 8.19957 7.01001 8.19957 4.80097C8.20207 2.59299 9.99138 0.803732 12.1994 0.801182ZM9.66735 8.87096C9.06338 8.98396 8.49386 9.23534 8.00338 9.60547C7.71495 9.45508 7.40676 9.34609 7.08793 9.28174C7.6539 8.88641 8.10713 8.35044 8.40291 7.72662C8.75319 8.18005 9.18137 8.56758 9.66735 8.87096ZM1.59992 6.00091C1.59577 4.2378 3.02169 2.80523 4.7848 2.80108C5.8494 2.79858 6.84514 3.3269 7.43991 4.20986C7.31932 5.11936 7.47041 6.04416 7.87414 6.86802C7.39706 8.56773 5.63241 9.55893 3.9327 9.08185C2.55202 8.69432 1.59842 7.43489 1.59992 6.00091ZM6.39967 23.2H0.799958V12.0506C0.799958 10.9202 1.89285 10.0007 3.23653 10.0007H6.36292C6.70855 10.0015 7.05103 10.0669 7.37267 10.1934C6.7451 10.9171 6.39962 11.8427 6.39967 12.8006V23.2ZM16.7991 23.2H7.19963V12.8006C7.20162 11.0342 8.6331 9.60272 10.3995 9.60072H13.4993C15.3209 9.60287 16.797 11.079 16.7991 12.9006V23.2ZM23.1988 23.2H17.5991V12.9006C17.5989 11.9101 17.2384 10.9536 16.5847 10.2094C16.9181 10.0721 17.2752 10.0011 17.6358 10.0007H20.7622C22.1059 10.0007 23.1987 10.9202 23.1987 12.0506V23.2H23.1988Z" fill="white"/>
</svg>
