<svg width="551" height="377" viewBox="0 0 551 377" fill="none" xmlns="http://www.w3.org/2000/svg">
<path d="M75.2511 95.4885H0V1.58641e-05H75.2511V95.4885Z" fill="white"/>
<path d="M75.2511 202.087H0V104.247H75.2511V202.087Z" fill="white"/>
<path d="M158.616 95.4885H83.3647V1.58641e-05H158.616V95.4885Z" fill="white"/>
<path d="M158.616 202.087H83.3647V104.247H158.616V202.087Z" fill="white"/>
<path d="M195.718 315.835H187.824V287.946H195.718V315.835Z" fill="white"/>
<path d="M212.428 284.865H171.733C167.549 284.865 164.159 281.474 164.159 277.29C164.159 273.106 167.549 269.716 171.733 269.716H212.428C216.61 269.716 220.003 273.106 220.003 277.29C220.003 281.474 216.61 284.865 212.428 284.865Z" fill="#1C2E34"/>
<path d="M199.227 291.23H184.789V281.325H199.227V291.23Z" fill="#1C2E34"/>
<path d="M199.227 354.675H184.789V311.31H199.227V354.675Z" fill="#1C2E34"/>
<path d="M231.945 355.364H150.401V349.329H231.945V355.364Z" fill="#1C2E34"/>
<path d="M155.184 368.088H150.401V349.331H155.184V368.088Z" fill="#1C2E34"/>
<path d="M159.898 368.087C159.898 372.225 156.541 375.581 152.403 375.581C148.266 375.581 144.909 372.225 144.909 368.087C144.909 363.949 148.266 360.593 152.403 360.593C156.541 360.593 159.898 363.949 159.898 368.087Z" fill="#1C2E34"/>
<path d="M231.945 368.088H227.163V349.331H231.945V368.088Z" fill="#1C2E34"/>
<path d="M236.659 368.087C236.659 372.225 233.302 375.581 229.167 375.581C225.027 375.581 221.67 372.225 221.67 368.087C221.67 363.949 225.027 360.593 229.167 360.593C233.302 360.593 236.659 363.949 236.659 368.087Z" fill="#1C2E34"/>
<path d="M242.498 278.336C211.631 278.336 186.516 253.221 186.516 222.354V153.767C186.516 149.863 189.681 146.697 193.586 146.697C197.489 146.697 200.656 149.863 200.656 153.767V222.354C200.656 245.427 219.427 264.196 242.498 264.196C246.403 264.196 249.568 267.361 249.568 271.266C249.568 275.17 246.403 278.336 242.498 278.336Z" fill="#FF6E65"/>
<path d="M193.586 146.697H118.102L122.691 202.083L120.49 243.74L158.139 267.71L167.016 278.336H242.498L221.983 265.328L206.68 247.987L200.559 244.246L195.459 210.583L195.119 170.119L193.586 146.697Z" fill="#FF6E65"/>
<path d="M167.015 278.336C136.146 278.336 111.033 253.221 111.033 222.354V153.767C111.033 149.863 114.199 146.697 118.101 146.697C122.006 146.697 125.171 149.863 125.171 153.767V222.354C125.171 245.427 143.942 264.196 167.015 264.196C170.918 264.196 174.083 267.361 174.083 271.266C174.083 275.17 170.918 278.336 167.015 278.336Z" fill="#FF9184"/>
<path d="M288.484 358.931L287.887 318.404L267.316 317.311L267.883 360.842L287.723 360.968L288.484 358.931Z" fill="#FFB0A0"/>
<path d="M265.008 352.324C265.008 352.324 282.021 359.32 290.009 348.291L325.029 369.566L259.736 369.146L265.008 352.324Z" fill="#0B181B"/>
<path d="M324.989 375.581L259.693 375.159L259.737 369.148L325.031 369.568L324.989 375.581Z" fill="white"/>
<path d="M289.583 357.599C289.768 357.524 289.934 357.402 290.062 357.236C292.732 353.734 295.416 352.006 295.443 351.989C295.973 351.651 296.113 350.97 295.761 350.466C295.408 349.96 294.685 349.838 294.164 350.16C294.04 350.237 291.125 352.102 288.193 355.946C287.817 356.438 287.932 357.122 288.447 357.48C288.789 357.715 289.222 357.746 289.583 357.599Z" fill="white"/>
<path d="M295.203 360.41C295.386 360.334 295.552 360.212 295.68 360.047C298.352 356.545 301.034 354.817 301.061 354.8C301.591 354.462 301.734 353.781 301.379 353.277C301.028 352.773 300.301 352.643 299.784 352.97C299.658 353.048 296.745 354.913 293.811 358.757C293.437 359.248 293.552 359.933 294.067 360.29C294.407 360.525 294.84 360.557 295.203 360.41Z" fill="white"/>
<path d="M300.822 363.22C301.004 363.145 301.17 363.023 301.298 362.857C303.97 359.358 306.654 357.627 306.682 357.61C307.211 357.274 307.354 356.594 306.999 356.087C306.646 355.585 305.921 355.455 305.405 355.783C305.279 355.861 302.363 357.726 299.429 361.567C299.055 362.057 299.171 362.744 299.685 363.101C300.028 363.336 300.458 363.367 300.822 363.22Z" fill="white"/>
<path d="M213.384 224.22L223.029 232.298C220.215 249.546 210.916 265.209 228.394 265.209H259.381V336.463L294.153 336.929L296.094 249.635C296.354 235.753 285.191 224.35 271.305 224.321L213.384 224.22Z" fill="#007BDE"/>
<path d="M257.182 323.442H297.182V336.926H257.182V323.442Z" fill="#0086FF"/>
<path d="M232.782 358.931L232.183 318.404L211.614 317.311L212.179 360.842L232.02 360.968L232.782 358.931Z" fill="#FFB0A0"/>
<path d="M209.306 352.324C209.306 352.324 226.317 359.32 234.305 348.291L269.327 369.566L204.032 369.146L209.306 352.324Z" fill="#0B181B"/>
<path d="M269.285 375.581L203.99 375.159L204.034 369.148L269.329 369.568L269.285 375.581Z" fill="white"/>
<path d="M233.879 357.599C234.064 357.524 234.23 357.402 234.358 357.236C237.03 353.734 239.712 352.006 239.739 351.989C240.268 351.651 240.411 350.97 240.056 350.466C239.703 349.96 238.981 349.838 238.462 350.16C238.336 350.237 235.423 352.102 232.489 355.946C232.115 356.438 232.23 357.122 232.745 357.48C233.085 357.715 233.518 357.746 233.879 357.599Z" fill="white"/>
<path d="M239.5 360.41C239.683 360.334 239.848 360.212 239.979 360.047C242.648 356.545 245.333 354.817 245.36 354.8C245.889 354.462 246.03 353.781 245.677 353.277C245.324 352.773 244.597 352.643 244.081 352.97C243.957 353.048 241.042 354.913 238.109 358.757C237.733 359.248 237.849 359.933 238.364 360.29C238.706 360.525 239.139 360.557 239.5 360.41Z" fill="white"/>
<path d="M245.118 363.22C245.303 363.145 245.469 363.023 245.597 362.857C248.268 359.358 250.951 357.627 250.978 357.61C251.507 357.274 251.65 356.594 251.295 356.087C250.944 355.585 250.22 355.455 249.701 355.783C249.575 355.861 246.662 357.726 243.727 361.567C243.351 362.057 243.467 362.744 243.984 363.101C244.324 363.336 244.757 363.367 245.118 363.22Z" fill="white"/>
<path d="M169.62 224.22L168.303 232.298C165.488 249.546 178.803 265.209 196.278 265.209H204.657V336.463L239.427 336.929L241.368 249.635C241.628 235.753 230.464 224.35 216.579 224.321L169.62 224.22Z" fill="#0086FF"/>
<path d="M202.454 323.442H242.456V336.926H202.454V323.442Z" fill="#00B1FF"/>
<path d="M256.112 193.56L302.964 203.423L305.491 212.82L244.14 213.69L239.225 188.214L256.112 193.56Z" fill="#F9A498"/>
<path d="M295.849 202.871C295.849 202.871 305.429 197.057 314.923 199.485C321.182 201.084 327.385 207.103 326.904 213.545L288.792 213.058L295.849 202.871Z" fill="#F9A498"/>
<path d="M258.792 159.692L264.199 199.801C264.199 199.801 240.781 212.124 241.275 210.643C241.769 209.163 236.022 159.692 236.022 159.692H258.792Z" fill="#F9A498"/>
<path d="M237.875 126.508C237.875 126.508 255.063 129.213 258.984 143.882C264.09 162.996 266.037 165.754 266.037 165.754L240.047 169.532L237.875 126.508Z" fill="#0B181B"/>
<path d="M204.837 121.637L237.874 126.507C241.224 127.001 243.717 129.86 243.749 133.243L244.534 211.618L170.829 211.836L165.828 143.468L168.567 134.199C169.85 129.866 173.505 126.652 177.966 125.938L204.837 121.637Z" fill="#0B181B"/>
<path d="M183.203 165.482L169.403 201.16L148.114 182.634L156.377 156.961L183.203 165.482Z" fill="#FFB0A0"/>
<path d="M196.638 124.405C196.638 124.405 170.982 124.176 164.607 131.752C156.578 141.294 147.046 165.682 147.046 165.682L188.766 174.873L196.638 124.405Z" fill="#0B181B"/>
<path d="M171.784 195.205L219.927 205.928L217.947 216.592L161.057 216.97C161.057 216.97 135.611 211.836 148.113 182.634L171.784 195.205Z" fill="#FFB0A0"/>
<path d="M219.927 205.929C219.927 205.929 231.242 201.502 240.61 203.251C246.972 204.44 251.242 210.508 250.761 216.963V216.971L212.95 216.625L219.927 205.929Z" fill="#FFB0A0"/>
<path d="M171.784 195.205L159.896 193.558" stroke="#E98980" stroke-width="0.5" stroke-miterlimit="10"/>
<path d="M226.899 63.2868C226.899 63.2868 239.998 75.5951 227.097 80.0585L226.899 63.2868Z" fill="#0B181B"/>
<path d="M219.09 85.2143C218.956 90.2112 222.77 94.3868 227.612 94.538C232.451 94.6913 236.484 90.7657 236.62 85.7667C236.755 80.7699 232.943 76.5943 228.101 76.4431C223.26 76.2897 219.225 80.2175 219.09 85.2143Z" fill="#0077C9"/>
<path d="M216.711 104.516L217.398 121.972C217.652 128.101 214.129 131.514 208.28 131.684C203.289 131.829 197.717 129.626 197.723 124.213L197.923 96.7002L216.711 104.516Z" fill="#FFB0A0"/>
<path d="M217.208 116.122C217.208 116.122 203.036 117.88 197.993 102.045C196.403 97.0563 216.676 102.725 216.676 102.725L217.208 116.122Z" fill="#0B181B"/>
<path d="M211.673 109.806C221.642 109.436 229.548 101.001 229.506 92.5829L229.327 74.9773C229.277 64.4291 221.131 55.8006 210.919 55.4772C200.463 55.1495 189.919 63.5742 189.627 74.3682L189.932 88.0859C190.192 100.438 199.714 109.428 211.673 109.806Z" fill="#FFB0A0"/>
<path d="M219.028 87.8137L219.503 91.2016L217.042 91.3948" stroke="#0B181B" stroke-width="0.527" stroke-miterlimit="10" stroke-linecap="round" stroke-linejoin="round"/>
<path d="M207.961 77.529C207.961 77.529 212.029 77.0186 212.141 78.7346C212.141 78.7346 212.185 79.8961 208.631 80.27C205.079 80.6418 204.142 80.4107 203.773 79.3332C203.403 78.2536 206.047 77.6172 207.961 77.529Z" fill="#0B181B"/>
<path d="M224.433 76.9584C224.433 76.9584 221.05 76.7357 220.838 78.3572C220.838 78.3572 220.72 79.4557 223.684 79.5839C226.643 79.712 227.588 79.2856 227.83 78.3929C228.107 77.3826 226.036 76.9206 224.433 76.9584Z" fill="#0B181B"/>
<path d="M222.315 84.2026C222.323 85.1814 223.098 85.969 224.046 85.9627C224.993 85.9564 225.755 85.1583 225.747 84.1795C225.739 83.2028 224.964 82.4131 224.016 82.4194C223.067 82.4257 222.307 83.2238 222.315 84.2026Z" fill="#0B181B"/>
<path d="M207.28 84.2918C207.288 85.2706 208.061 86.0583 209.008 86.052C209.956 86.0457 210.718 85.2475 210.71 84.2708C210.701 83.292 209.926 82.5023 208.981 82.5086C208.032 82.5149 207.271 83.313 207.28 84.2918Z" fill="#0B181B"/>
<path d="M215.195 97.3422L219.764 96.6995" stroke="#0B181B" stroke-width="0.527" stroke-miterlimit="10" stroke-linecap="round" stroke-linejoin="round"/>
<path d="M239.799 57.3668L232.233 56.2956C234.443 54.8904 236.659 53.4936 236.659 53.4936C236.659 53.4936 231.496 51.7125 224.626 51.723C220.15 49.3054 214.411 47.6524 208.413 47.5789C199.631 47.4739 192.132 52.2334 189.423 57.4739L189.417 57.4634C189.417 57.4634 182.128 57.0181 181.126 65.2685C179.83 75.9616 192.7 93.6239 192.7 93.6239L194.145 79.6541C202.124 79.0828 202.492 72.0465 201.866 67.4571C205.455 67.7617 217.837 68.5766 227.516 66.4216C228.568 66.2977 230.005 66.0204 231.21 65.3966C235.781 63.8255 239.192 61.3155 239.799 57.3668Z" fill="#0B181B"/>
<path d="M180.756 88.0973C180.649 92.0943 183.698 95.434 187.571 95.5558C191.443 95.6776 194.669 92.5375 194.778 88.5404C194.887 84.5434 191.833 81.2037 187.964 81.0819C184.091 80.9601 180.865 84.1002 180.756 88.0973Z" fill="#FFBA99"/>
<path d="M190.114 90.1318C190.114 90.1318 190.254 84.8829 185.373 85.5572" stroke="#312220" stroke-width="0.558" stroke-miterlimit="10" stroke-linecap="round" stroke-linejoin="round"/>
<path d="M214.978 47.3157L215.196 48.326C215.196 48.326 202.531 49.6577 196.757 57.3577C190.321 65.94 190.22 77.5132 190.22 77.5132L187.481 77.7463L187.664 59.3951L193.15 53.6736L201.899 48.4415L208.021 46.484L214.978 47.3157Z" fill="#0077C9"/>
<path d="M197.845 84.1922C199.151 90.2225 195.261 96.1834 187.611 97.8427C182.203 99.0169 179.565 94.4695 178.256 88.4393C176.95 82.409 180.273 76.5699 185.681 75.3979C191.09 74.2237 196.536 78.162 197.845 84.1922Z" fill="#0077C9"/>
<path d="M195.037 84.7998C196.345 90.8301 193.02 96.6692 187.612 97.8412C182.203 99.0153 176.759 95.0792 175.45 89.0468C174.142 83.0187 177.467 77.1796 182.875 76.0054C188.284 74.8313 193.73 78.7696 195.037 84.7998Z" fill="#0086FF"/>
<path d="M183.548 77.2881C183.548 77.2881 182.5 70.5857 184.098 63.2553C186.119 53.9842 193.535 47.3658 202.874 45.6645C203.588 45.5364 204.338 45.4166 205.127 45.3095C207.845 44.9482 210.782 45.0239 213.237 46.24C213.863 46.5488 214.464 46.9058 214.978 47.3154C214.978 47.3154 202.674 47.8279 196.753 54.4064C190.08 61.8229 188.328 71.7851 188.744 78.4139L183.548 77.2881Z" fill="#0086FF"/>
<path d="M190.957 123.859L204.836 121.637L223.297 124.359C223.297 124.359 224.433 135.127 208.825 135.583C193.215 136.037 190.957 123.859 190.957 123.859Z" fill="#FFB0A0"/>
<path d="M274.849 177.3L281.402 182.007L327.895 142.763L441.111 80.2593L434.996 75.8233L357.334 99.6859L274.849 177.3Z" fill="#CB9DA8"/>
<path d="M290.906 79.4448L272.475 171.018C271.687 174.937 274.68 178.596 278.682 178.596H411.358C414.342 178.596 416.922 176.511 417.546 173.591L437.149 82.0199C437.991 78.0795 434.989 74.3639 430.959 74.3639H297.111C294.099 74.3639 291.5 76.4895 290.906 79.4448Z" fill="#CB9DA8"/>
<path d="M296.889 83.763L278.458 175.336C277.671 179.254 280.666 182.915 284.665 182.915H417.341C420.326 182.915 422.905 180.829 423.529 177.909L443.132 86.3381C443.974 82.3978 440.973 78.6821 436.942 78.6821H303.094C300.082 78.6821 297.484 80.8077 296.889 83.763Z" fill="#EAC8CE"/>
<path d="M345.188 158.701L342.712 182.915H353.479L345.188 158.701Z" fill="#CB9DA8"/>
<path d="M345.188 158.202L356.176 212.424H396.228L377.442 158.202H345.188Z" fill="#F6DAE0"/>
<path d="M375.109 116.497C375.109 121.406 371.129 125.384 366.222 125.384C361.314 125.384 357.333 121.406 357.333 116.497C357.333 111.588 361.314 107.608 366.222 107.608C371.129 107.608 375.109 111.588 375.109 116.497Z" fill="white"/>
<path d="M419.92 207.376H325.505C324.058 207.376 322.886 208.55 322.886 209.995C322.886 211.442 324.058 212.616 325.505 212.616H419.92C421.365 212.616 422.539 211.442 422.539 209.995C422.539 208.55 421.365 207.376 419.92 207.376Z" fill="#EAC8CE"/>
<path d="M302.216 207.376H252.21C250.765 207.376 249.591 208.55 249.591 209.995C249.591 211.442 250.765 212.616 252.21 212.616H302.216C303.661 212.616 304.836 211.442 304.836 209.995C304.836 208.55 303.661 207.376 302.216 207.376Z" fill="#EAC8CE"/>
<path d="M240.418 220.958V375.581" stroke="#55382E" stroke-width="1.161" stroke-miterlimit="10"/>
<path d="M142.416 220.958V375.581" stroke="#55382E" stroke-width="1.161" stroke-miterlimit="10"/>
<path d="M478.251 220.958V375.581" stroke="#55382E" stroke-width="1.161" stroke-miterlimit="10"/>
<path d="M380.249 220.958V375.581" stroke="#55382E" stroke-width="1.161" stroke-miterlimit="10"/>
<path d="M212.346 224.855H119.628V212.423H212.346V224.855Z" fill="#EAC8CE"/>
<path d="M503.456 224.855H212.168V212.423H503.456V224.855Z" fill="white"/>
<path d="M550.671 375.581H35.0347" stroke="#55382E" stroke-width="1.161" stroke-miterlimit="10"/>
</svg>
