<svg width="8" height="10" viewBox="0 0 8 10" fill="none" xmlns="http://www.w3.org/2000/svg">
<path d="M2.12569 7.73341L4.12955 9.10341C4.26031 9.19356 4.43319 9.19356 4.56395 9.10341L6.56174 7.73379C7.25575 7.2603 7.76834 6.27042 7.76834 5.43103V2.65914C7.77252 2.51264 7.69167 2.37676 7.5611 2.31014L4.51005 0.809384C4.40302 0.756247 4.27739 0.756247 4.17035 0.809384L1.12499 2.30597C0.994428 2.37258 0.913773 2.50846 0.918137 2.65497V5.43103C0.918137 6.27042 1.43186 7.2603 2.12569 7.73341ZM1.69547 2.8975L4.34324 1.59108L6.99101 2.90111V5.43103C6.99101 6.0165 6.60728 6.76118 6.12316 7.09121L4.33868 8.31166L2.56123 7.09139C2.07711 6.76099 1.69547 6.0165 1.69547 5.43103V2.8975Z" fill="white"/>
</svg>
