<svg width="20" height="13" viewBox="0 0 20 13" fill="none" xmlns="http://www.w3.org/2000/svg">
<path d="M18.7286 0.900391C18.3843 0.900391 18.105 1.17958 18.105 1.52397V11.4497H13.1165V6.03161C13.1165 4.31223 11.7177 2.91348 9.99839 2.91348C8.27911 2.91348 6.88027 4.31233 6.88027 6.03161V11.4497H1.89169V1.52402C1.89169 1.17963 1.61245 0.900438 1.26811 0.900438C0.923766 0.900438 0.644531 1.17963 0.644531 1.52402V12.0734C0.644531 12.4178 0.923766 12.697 1.26811 12.697H7.50384C7.83178 12.697 8.10014 12.4436 8.12498 12.1219C8.12648 12.1074 8.12742 12.0914 8.12742 12.0734V6.03166C8.12742 4.99998 8.96672 4.16069 9.99839 4.16069C11.0301 4.16069 11.8694 5.00003 11.8694 6.03166V12.0734C11.8694 12.0913 11.8703 12.107 11.8718 12.1214C11.8964 12.4433 12.1648 12.697 12.4929 12.697H18.7287C19.0731 12.697 19.3522 12.4178 19.3522 12.0734V1.52402C19.3522 1.17958 19.073 0.900391 18.7286 0.900391Z" fill="white"/>
</svg>
