<svg width="22" height="24" viewBox="0 0 22 24" fill="none" xmlns="http://www.w3.org/2000/svg">
<path d="M20.3143 0H6.29379C5.49144 0 4.83864 0.652795 4.83864 1.45515V4.71151C2.17894 5.47266 0.226562 7.92604 0.226562 10.8269C0.226562 13.7278 2.17889 16.1812 4.83864 16.9423V22.545C4.83864 23.3473 5.49144 24.0001 6.29379 24.0001H17.7513C17.8872 24.0001 18.0175 23.9461 18.1137 23.85L21.6193 20.3443C21.7154 20.2482 21.7694 20.1178 21.7694 19.9819V1.45515C21.7694 0.652795 21.1167 0 20.3143 0ZM6.29379 1.02503H20.3143C20.5515 1.02503 20.7444 1.21797 20.7444 1.45515V3.00191H5.86367V1.45515C5.86367 1.21797 6.05662 1.02503 6.29379 1.02503ZM1.25159 10.8269C1.25159 7.88538 3.64463 5.49233 6.58611 5.49233C9.5276 5.49233 11.9206 7.88538 11.9206 10.8269C11.9206 13.7683 9.5276 16.1614 6.58611 16.1614C3.64463 16.1614 1.25159 13.7683 1.25159 10.8269ZM5.86367 22.5449V17.1452C6.10089 17.1721 6.34187 17.1865 6.58616 17.1865C8.49637 17.1865 10.2124 16.3397 11.3791 15.0021H14.5194C14.8025 15.0021 15.0319 14.7726 15.0319 14.4896C15.0319 14.2065 14.8025 13.9771 14.5194 13.9771H12.1091C12.5549 13.1985 12.8405 12.3172 12.9215 11.3783H14.5194C14.8024 11.3783 15.0319 11.1488 15.0319 10.8658C15.0319 10.5827 14.8024 10.3532 14.5194 10.3532H12.928C12.8587 9.41637 12.5853 8.53544 12.1526 7.75451H14.5193C14.8024 7.75451 15.0318 7.52506 15.0318 7.242C15.0318 6.95895 14.8024 6.72949 14.5193 6.72949H11.4455C10.2781 5.34702 8.53298 4.46726 6.58602 4.46726C6.34172 4.46726 6.10074 4.48161 5.86352 4.50855V4.02694H20.7443V19.4693H18.6938C17.8914 19.4693 17.2387 20.1221 17.2387 20.9244V22.975H6.29379C6.05662 22.975 5.86367 22.7821 5.86367 22.5449ZM18.2638 22.2501V20.9244C18.2638 20.6873 18.4568 20.4944 18.6939 20.4944H20.0196L18.2638 22.2501Z" fill="white"/>
</svg>
