<svg width="424" height="279" viewBox="0 0 424 279" fill="none" xmlns="http://www.w3.org/2000/svg">
<path d="M203.761 135.371H23.9253C21.9142 135.371 20.2822 133.739 20.2822 131.729V5.83217C20.2822 3.82108 21.9142 2.19064 23.9253 2.19064H203.761C205.772 2.19064 207.402 3.82108 207.402 5.83217V131.729C207.402 133.739 205.772 135.371 203.761 135.371Z" fill="white"/>
<path d="M13.3638 46.7012H212.902" stroke="#FDEEEA" stroke-width="1.96" stroke-miterlimit="10"/>
<path d="M13.3638 88.3599H212.902" stroke="#FDEEEA" stroke-width="1.96" stroke-miterlimit="10"/>
<path d="M62.762 27.3975C62.762 33.6511 57.6919 38.7212 51.4398 38.7212C45.1862 38.7212 40.1177 33.6511 40.1177 27.3975C40.1177 21.1439 45.1862 16.0753 51.4398 16.0753C57.6919 16.0753 62.762 21.1439 62.762 27.3975Z" fill="#7393FF"/>
<path d="M62.762 67.4232C62.762 73.6768 57.6919 78.7454 51.4398 78.7454C45.1862 78.7454 40.1177 73.6768 40.1177 67.4232C40.1177 61.1696 45.1862 56.101 51.4398 56.101C57.6919 56.101 62.762 61.1696 62.762 67.4232Z" fill="#7393FF"/>
<path d="M62.762 108.959C62.762 115.212 57.6919 120.282 51.4398 120.282C45.1862 120.282 40.1177 115.212 40.1177 108.959C40.1177 102.705 45.1862 97.6363 51.4398 97.6363C57.6919 97.6363 62.762 102.705 62.762 108.959Z" fill="#7393FF"/>
<path d="M69.6099 22.4973H170.824" stroke="#F1D5CE" stroke-width="0.98" stroke-miterlimit="10" stroke-linecap="round" stroke-linejoin="round"/>
<path d="M69.6099 30.4177H84.6244" stroke="#F1D5CE" stroke-width="0.98" stroke-miterlimit="10" stroke-linecap="round" stroke-linejoin="round"/>
<path d="M69.6099 62.9426H170.824" stroke="#F1D5CE" stroke-width="0.98" stroke-miterlimit="10" stroke-linecap="round" stroke-linejoin="round"/>
<path d="M69.6099 70.864H123.251" stroke="#F1D5CE" stroke-width="0.98" stroke-miterlimit="10" stroke-linecap="round" stroke-linejoin="round"/>
<path d="M69.6099 104.897H91.7272" stroke="#F1D5CE" stroke-width="0.98" stroke-miterlimit="10" stroke-linecap="round" stroke-linejoin="round"/>
<path d="M69.6099 112.817H170.824" stroke="#F1D5CE" stroke-width="0.98" stroke-miterlimit="10" stroke-linecap="round" stroke-linejoin="round"/>
<path d="M46.8979 28.5912L50.108 30.7795L55.9794 24.0174" stroke="white" stroke-width="1.22" stroke-miterlimit="10" stroke-linecap="round" stroke-linejoin="round"/>
<path d="M46.8979 68.5187L50.108 70.707L55.9794 63.9449" stroke="white" stroke-width="1.22" stroke-miterlimit="10" stroke-linecap="round" stroke-linejoin="round"/>
<path d="M46.8979 110.152L50.108 112.34L55.9794 105.578" stroke="white" stroke-width="1.22" stroke-miterlimit="10" stroke-linecap="round" stroke-linejoin="round"/>
<path d="M370.157 24.2547C370.157 37.0979 359.746 47.5093 346.903 47.5093C334.059 47.5093 323.648 37.0979 323.648 24.2547C323.648 11.4115 334.059 1.00009 346.903 1.00009C359.746 1.00009 370.157 11.4115 370.157 24.2547Z" stroke="#F1D5CE" stroke-width="0.98" stroke-miterlimit="10" stroke-linecap="round" stroke-linejoin="round"/>
<path d="M346.903 14.3135V24.2549H362.604" stroke="#F1D5CE" stroke-width="0.98" stroke-miterlimit="10" stroke-linecap="round" stroke-linejoin="round"/>
<path d="M389.705 88.6074H417.324C421.012 88.6074 424 85.6193 424 81.9316C424 78.2438 421.012 75.2557 417.324 75.2557H389.705C386.017 75.2557 383.029 78.2438 383.029 81.9316C383.029 85.6193 386.017 88.6074 389.705 88.6074Z" fill="#7393FF"/>
<path d="M409.375 81.9492C409.372 82.9339 410.168 83.7337 411.151 83.7368C412.136 83.7399 412.937 82.9447 412.94 81.9615C412.942 80.9768 412.146 80.177 411.163 80.1739C410.178 80.1708 409.379 80.9644 409.375 81.9492Z" fill="white"/>
<path d="M401.734 81.9248C401.731 82.9095 402.526 83.7093 403.509 83.7124C404.494 83.7155 405.294 82.9203 405.298 81.9371C405.3 80.9524 404.505 80.1525 403.522 80.1495C402.537 80.1464 401.737 80.94 401.734 81.9248Z" fill="white"/>
<path d="M394.091 81.9019C394.088 82.8851 394.883 83.6849 395.867 83.688C396.851 83.6911 397.651 82.8974 397.654 81.9127C397.657 80.9279 396.862 80.1281 395.879 80.125C394.894 80.122 394.094 80.9172 394.091 81.9019Z" fill="white"/>
<path d="M269.836 201.972H304.655C324.223 201.972 337.911 189.354 341.161 170.057L349.798 118.765" stroke="#1B172C" stroke-width="5.463" stroke-miterlimit="10" stroke-linecap="round" stroke-linejoin="round"/>
<path d="M270.232 277.472L285.855 205.064C287.688 196.748 295.055 190.828 303.568 190.828C312.209 190.828 319.649 196.923 321.35 205.395L335.528 277.472" stroke="white" stroke-width="1.879" stroke-miterlimit="10"/>
<path d="M200.321 267.081L208.392 241.447L221.23 240.766L213.178 268.273L200.796 268.353L200.321 267.081Z" fill="#FFBD9A"/>
<path d="M214.973 262.959C214.973 262.959 204.357 267.325 199.37 260.441L177.513 273.72L218.263 273.457L214.973 262.959Z" fill="black"/>
<path d="M177.539 277.472L218.289 277.21L218.263 273.458L177.513 273.72L177.539 277.472Z" fill="white"/>
<path d="M199.635 266.25C199.521 266.204 199.416 266.127 199.337 266.025C197.67 263.838 195.995 262.758 195.978 262.749C195.648 262.539 195.559 262.112 195.779 261.798C195.999 261.482 196.453 261.405 196.776 261.607C196.853 261.656 198.672 262.819 200.502 265.217C200.737 265.524 200.666 265.954 200.344 266.176C200.131 266.322 199.86 266.342 199.635 266.25Z" fill="white"/>
<path d="M196.128 268.005C196.013 267.959 195.909 267.882 195.831 267.779C194.163 265.594 192.488 264.513 192.47 264.504C192.142 264.294 192.051 263.868 192.273 263.553C192.493 263.239 192.946 263.157 193.27 263.362C193.347 263.411 195.165 264.575 196.996 266.973C197.23 267.279 197.158 267.709 196.836 267.93C196.623 268.078 196.353 268.098 196.128 268.005Z" fill="white"/>
<path d="M192.621 269.759C192.507 269.713 192.403 269.636 192.324 269.534C190.657 267.349 188.981 266.269 188.964 266.259C188.635 266.048 188.544 265.623 188.766 265.309C188.986 264.994 189.439 264.913 189.763 265.118C189.84 265.167 191.658 266.329 193.491 268.728C193.723 269.033 193.652 269.463 193.33 269.685C193.118 269.832 192.846 269.853 192.621 269.759Z" fill="white"/>
<path d="M245.547 167.19L234.388 167.899C226.529 168.398 219.844 173.815 217.726 181.403L200.24 248.755L224.471 246.501L244.006 187.336L245.547 167.19Z" fill="#007BDE"/>
<path d="M226.358 251.895H197.095L199.125 241.106H228.388L226.358 251.895Z" fill="#0086FF"/>
<path d="M247.122 267.081L247.495 241.788L260.333 241.107L259.979 268.273L247.596 268.353L247.122 267.081Z" fill="#FFBD9A"/>
<path d="M261.773 262.959C261.773 262.959 251.157 267.325 246.17 260.441L224.313 273.72L265.063 273.457L261.773 262.959Z" fill="black"/>
<path d="M224.339 277.472L265.089 277.21L265.063 273.458L224.313 273.72L224.339 277.472Z" fill="white"/>
<path d="M246.436 266.25C246.322 266.204 246.217 266.127 246.138 266.025C244.471 263.838 242.796 262.758 242.779 262.749C242.449 262.539 242.36 262.112 242.58 261.798C242.8 261.482 243.253 261.405 243.577 261.607C243.654 261.656 245.472 262.819 247.303 265.217C247.537 265.524 247.467 265.954 247.145 266.176C246.932 266.322 246.661 266.342 246.436 266.25Z" fill="white"/>
<path d="M242.929 268.005C242.813 267.959 242.71 267.882 242.632 267.779C240.963 265.594 239.289 264.513 239.271 264.504C238.942 264.294 238.851 263.868 239.073 263.553C239.294 263.239 239.747 263.157 240.07 263.362C240.147 263.411 241.966 264.575 243.797 266.973C244.031 267.279 243.958 267.709 243.636 267.93C243.424 268.078 243.154 268.098 242.929 268.005Z" fill="white"/>
<path d="M239.422 269.759C239.308 269.713 239.203 269.636 239.125 269.534C237.457 267.349 235.782 266.269 235.765 266.259C235.435 266.048 235.345 265.623 235.566 265.309C235.787 264.994 236.24 264.913 236.563 265.118C236.641 265.167 238.459 266.329 240.29 268.728C240.524 269.033 240.453 269.463 240.131 269.685C239.918 269.832 239.647 269.853 239.422 269.759Z" fill="white"/>
<path d="M314.183 165.993L279.275 167.384L253.207 167.917C245.599 167.917 239.399 172.507 239.286 180.113C238.937 203.503 240.746 252.115 241.846 251.894C243.332 251.598 264.698 251.894 264.698 251.894L266.871 198.783L283.613 200.605C287.739 200.639 299.798 201.417 303.479 199.552C311.097 195.69 320.819 186.652 314.183 165.993Z" fill="#0086FF"/>
<path d="M267.199 251.894H237.936V241.105H267.199V251.894Z" fill="#00B1FF"/>
<path d="M266.871 198.784L266.464 186.887" stroke="#55382C" stroke-width="0.844" stroke-miterlimit="10"/>
<path d="M212.902 124.506L198.874 117.491C198.874 117.491 187.427 116.647 180.472 118.16C179.742 118.317 179.28 119.032 179.455 119.758C179.609 120.401 180.218 120.826 180.875 120.755L187.296 120.051L183.838 122.404C182.903 123.04 183.007 124.452 184.028 124.944C184.453 125.149 184.948 125.141 185.362 124.914C187.282 123.851 193.322 121.082 199.209 124.395L193.718 126.861C192.638 127.348 192.345 128.745 193.141 129.621C193.525 130.043 194.089 130.251 194.655 130.179L199.766 129.516C199.766 129.516 205.777 131.965 211.344 129.293L212.902 124.506Z" fill="#FFC9BD"/>
<path d="M258.694 106.373C254.25 117.256 247.896 138.931 247.896 138.931L212.784 122.394L208.141 134.448L237.928 154.787L270.509 153.427L272.926 127.944L258.694 106.373Z" fill="#FF9184"/>
<path d="M264.556 99.2753C262.201 101.049 259.974 103.385 258.694 106.37L256.585 167.188C256.585 167.188 293.91 175.049 314.184 165.991C314.184 165.991 313.612 115.057 302.065 101.576C302.065 101.576 298.427 94.4179 279.92 94.384C274.414 94.3732 268.952 95.962 264.556 99.2753Z" fill="#FF9184"/>
<path d="M261.274 117.256L263.968 159.957" stroke="#FF6C63" stroke-width="0.735" stroke-miterlimit="10"/>
<path d="M225.18 152.534L224.667 142.049C224.667 142.049 220.91 134.202 217.482 134.089C214.967 134.009 211.796 135.715 210.113 137.502C209.349 138.313 209.552 139.621 210.548 140.125C212.18 140.951 214.665 142.426 215.935 144.26C215.935 144.26 214.277 152.717 217.076 156.199C218.5 157.969 226.88 159.957 226.88 159.957L225.18 152.534Z" fill="#FFC9BD"/>
<path d="M282.189 104.472L275.461 147.107L224.879 149.3V167.19L279.275 165.874C281.353 165.995 282.929 165.327 284.054 164.162L284.606 164.422C284.606 164.422 299.338 164.672 303.479 114.371L282.189 104.472Z" fill="#FF9184"/>
<path d="M229.592 149.095L275.474 147.022L280.931 112.444" stroke="#FF6C63" stroke-width="0.735" stroke-miterlimit="10"/>
<path d="M275.474 147.023L282.475 149.096" stroke="#FF6C63" stroke-width="0.735" stroke-miterlimit="10"/>
<path d="M302.455 127.839L297.352 150.604C296.069 156.332 292.962 161.49 288.497 165.301L286.209 167.107" stroke="#FF6C63" stroke-width="0.735" stroke-miterlimit="10"/>
<path d="M255.435 55.4242C255.435 55.4242 256.696 61.439 255.435 65.1051C254.173 68.7698 250.158 70.4927 251.96 80.0642C253.763 89.6357 251.84 89.8623 251.407 92.5668C251.407 92.5668 289.836 96.1837 309.082 86.3147C309.082 86.3147 305.828 80.7299 302.223 74.5333C298.617 68.3367 297.264 58.1488 297.264 58.1488L282.527 52.5054L255.435 55.4242Z" fill="#954B55"/>
<path d="M264.559 48.3223C264.12 48.1852 265.829 45.6547 266.267 45.513C273.108 43.3293 287.721 40.4383 295.154 52.4524C300.616 61.2826 295.131 77.8906 283.655 82.916C272.721 87.7041 274.582 51.4568 274.582 51.4568L264.559 48.3223Z" fill="#954B55"/>
<path d="M267.353 70.8122C267.711 73.788 265.589 76.4879 262.615 76.8454C259.64 77.203 256.94 75.0825 256.581 72.1067C256.224 69.1324 258.346 66.431 261.32 66.0734C264.296 65.7159 266.996 67.838 267.353 70.8122Z" fill="#FFB1A7"/>
<path d="M269.22 85.3064L270.56 97.0524C271.023 101.178 273.812 103.098 277.87 102.611C281.332 102.195 284.373 100.016 284.388 96.5269L281.388 78.1451L269.22 85.3064Z" fill="#FFC9BD"/>
<path d="M270.049 92.5657C278.289 91.8506 282.527 80.0646 282.527 80.0646L269.058 84.1037L270.049 92.5657Z" fill="#1B172C"/>
<path d="M272.901 87.0302C265.94 87.4 259.916 82.2067 259.423 76.5325L258.339 63.1391C257.722 56.0271 262.855 49.7057 269.944 48.8551C277.199 47.9828 285.06 53.0051 285.932 60.2604L286.686 71.0432C287.27 79.3819 281.825 86.349 272.901 87.0302Z" fill="#FFC9BD"/>
<path d="M280.244 58.5351C276.938 63.4696 282.335 70.4722 282.335 70.4722L292.532 58.1468C292.532 58.1468 282.203 55.6133 280.244 58.5351Z" fill="#954B55"/>
<path d="M293.108 69.1794C293.465 72.1552 291.343 74.8566 288.369 75.2126C285.395 75.5702 282.693 73.4497 282.336 70.4739C281.978 67.4996 284.1 64.7982 287.074 64.4422C290.05 64.0831 292.75 66.2051 293.108 69.1794Z" fill="#FFC9BD"/>
<path d="M286.032 71.6555C286.032 71.6555 285.562 67.7505 289.372 67.9154" stroke="#1B172C" stroke-width="0.562" stroke-miterlimit="10" stroke-linecap="round" stroke-linejoin="round"/>
<path d="M266.033 74.5049L265.928 76.0999L267.506 76.103" stroke="#1B172C" stroke-width="0.562" stroke-miterlimit="10" stroke-linecap="round" stroke-linejoin="round"/>
<path d="M273.874 64.739C273.874 64.739 270.856 64.6203 270.867 65.5912C270.867 65.5912 270.898 66.2477 273.53 66.3124C276.161 66.3756 276.837 66.2045 277.051 65.582C277.264 64.9594 275.287 64.7082 273.874 64.739Z" fill="#793641"/>
<path d="M261.832 65.134C261.832 65.134 264.307 64.8674 264.551 65.7736C264.551 65.7736 264.694 66.3869 262.526 66.5811C260.356 66.7768 259.64 66.5765 259.413 66.0833C259.156 65.5255 260.652 65.1787 261.832 65.134Z" fill="#793641"/>
<path d="M271.075 71.0676C271.075 71.0676 272.42 69.1475 274.912 71.0044" stroke="#1B172C" stroke-width="0.705" stroke-miterlimit="10" stroke-linecap="round" stroke-linejoin="round"/>
<path d="M260.758 71.4595C260.758 71.4595 261.956 69.5547 263.625 71.3346" stroke="#1B172C" stroke-width="0.705" stroke-miterlimit="10" stroke-linecap="round" stroke-linejoin="round"/>
<path d="M268.533 78.9421C268.533 78.9421 270.591 79.4291 272.263 77.3579" stroke="#1B172C" stroke-width="0.705" stroke-miterlimit="10" stroke-linecap="round" stroke-linejoin="round"/>
<path d="M266.267 45.5126C266.267 45.5126 251.404 50.8786 254.484 56.4711C256.765 60.6165 271.724 63.187 285.933 60.259C285.933 60.259 292.416 54.9932 284.389 49.5348C284.389 49.5348 280.078 43.4461 266.267 45.5126Z" fill="#954B55"/>
<path d="M266.465 97.9846C266.465 97.9846 270.704 95.2446 276.949 94.3862C276.949 94.3862 284.403 93.927 290.644 95.4049C290.644 95.4049 290.236 102.031 277.685 103.495C275.218 103.784 272.703 103.724 270.314 103.045C267.913 102.367 267.348 100.702 266.465 97.9846Z" fill="#FFC9BD"/>
<path d="M224.477 164.234H181.887V159.429H224.477C225.804 159.429 226.88 160.505 226.88 161.83C226.88 163.159 225.804 164.234 224.477 164.234Z" fill="#061418"/>
<path d="M187.492 164.234H126.346C123.094 164.234 120.242 162.068 119.371 158.936L107.311 115.606C106.868 114.017 108.063 112.444 109.713 112.444H171.584C172.935 112.444 174.117 113.355 174.461 114.662L187.492 164.234Z" fill="#1C2E34"/>
<path d="M149.559 139.335C149.559 142.285 147.169 144.675 144.221 144.675C141.272 144.675 138.881 142.285 138.881 139.335C138.881 136.387 141.272 133.996 144.221 133.996C147.169 133.996 149.559 136.387 149.559 139.335Z" fill="white"/>
<path d="M171.69 169.939V277.472" stroke="#55382E" stroke-width="1.147" stroke-miterlimit="10"/>
<path d="M260.266 175.643H78.584V164.236H260.266V175.643Z" fill="white"/>
<path d="M424 277.472H0" stroke="#55382E" stroke-width="1.147" stroke-miterlimit="10"/>
</svg>
