<svg width="14" height="15" viewBox="0 0 14 15" fill="none" xmlns="http://www.w3.org/2000/svg">
<path d="M7.01972 0.171875C3.62286 0.171875 0.847656 2.94708 0.847656 6.34394C0.847656 8.12007 1.62471 9.8296 2.93461 10.9841C3.91149 11.961 3.82268 14.0479 3.80048 14.0701C3.80048 14.1811 3.82268 14.2699 3.91149 14.3587C3.97809 14.4253 4.0891 14.4697 4.17791 14.4697H9.83933C9.95034 14.4697 10.0391 14.4253 10.1058 14.3587C10.1724 14.2921 10.2168 14.1811 10.2168 14.0701C10.2168 14.0479 10.1058 11.961 11.0826 10.9841C11.1048 10.9619 11.127 10.9397 11.1492 10.9175C12.4369 9.74079 13.1918 8.07567 13.1918 6.34394C13.1918 2.94708 10.4166 0.171875 7.01972 0.171875ZM10.572 10.4068C10.5498 10.429 10.5054 10.4734 10.5054 10.4957C9.63952 11.4281 9.4841 12.96 9.4619 13.6927H4.55533C4.53313 12.96 4.37772 11.3615 3.44525 10.4068C2.26856 9.38557 1.58031 7.89806 1.58031 6.32174C1.58031 3.32451 4.00029 0.90453 6.99752 0.90453C9.99474 0.90453 12.4147 3.32451 12.4147 6.32174C12.4147 7.89806 11.7487 9.38557 10.572 10.4068Z" fill="white"/>
</svg>
