<svg width="424" height="250" viewBox="0 0 424 250" fill="none" xmlns="http://www.w3.org/2000/svg">
<path d="M303.675 185.22H259.329C256.746 185.22 254.651 183.125 254.651 180.542C254.651 177.959 256.746 175.864 259.329 175.864H303.675C306.258 175.864 308.353 177.959 308.353 180.542C308.353 183.125 306.258 185.22 303.675 185.22Z" fill="#C56E81"/>
<path d="M334.187 185.22H281.855C278.285 185.22 275.719 181.726 276.73 178.243L301.722 92.0961C302.391 89.7855 304.477 88.1983 306.847 88.1983H359.179C362.748 88.1983 365.315 91.6917 364.303 95.1764L339.313 181.322C338.642 183.632 336.556 185.22 334.187 185.22Z" fill="#C56E81"/>
<path d="M326.987 185.22H281.404C277.834 185.22 275.268 181.726 276.279 178.243L301.269 92.0961C301.94 89.7855 304.026 88.1983 306.395 88.1983H351.977C355.547 88.1983 358.113 91.6917 357.103 95.1764L332.112 181.322C331.441 183.632 329.355 185.22 326.987 185.22Z" fill="white"/>
<path d="M334.174 185.22H278.784C276.201 185.22 274.107 183.125 274.107 180.542C274.107 177.959 276.201 175.864 278.784 175.864H334.174C336.757 175.864 338.852 177.959 338.852 180.542C338.852 183.125 336.757 185.22 334.174 185.22Z" fill="#C56E81"/>
<path d="M267.942 84.1135C267.942 84.1135 255.579 101.108 246.825 121.216C245.843 123.469 246.054 126.091 247.403 128.144C250.449 132.775 258.401 131.707 261.467 127.4C261.467 127.4 284.867 94.9982 283.871 93.6878C283.633 93.3761 267.942 84.1135 267.942 84.1135Z" fill="#EAC8CE"/>
<path d="M253.446 115.324L222.786 102.99L220.131 119.038L251.001 130.776C252.117 131.201 253.334 131.324 254.498 131.065C258.486 130.176 261.314 126.244 260.582 121.93C259.973 118.348 257.039 115.632 253.446 115.324Z" fill="#EAC8CE"/>
<path d="M291.846 80.1754L270.622 82.902C268.461 83.1803 266.911 85.127 267.126 87.297L280.839 146.791L326.392 146.678L319.943 87.497C320.211 85.2734 318.614 83.2571 316.387 83.0107L291.846 80.1754Z" fill="#EAC8CE"/>
<path d="M273.135 112.033C273.135 111.324 269.33 96.8573 269.33 96.8573" stroke="#D5B2BA" stroke-width="0.844" stroke-miterlimit="10"/>
<path d="M283.802 139.621H247.089V135.479H283.802C284.945 135.479 285.873 136.405 285.873 137.549C285.873 138.693 284.945 139.621 283.802 139.621Z" fill="#061418"/>
<path d="M251.921 139.621H199.213C196.411 139.621 193.952 137.752 193.2 135.053L183.714 100.973C182.875 97.959 185.141 94.9773 188.269 94.9773H237.011C238.881 94.9773 240.516 96.2384 240.992 98.046L251.921 139.621Z" fill="#1C2E34"/>
<path d="M220.272 119.207C220.272 121.748 218.211 123.809 215.67 123.809C213.127 123.809 211.067 121.748 211.067 119.207C211.067 116.665 213.127 114.604 215.67 114.604C218.211 114.604 220.272 116.665 220.272 119.207Z" fill="white"/>
<path d="M301.818 94.4767C301.818 94.4767 313.387 117.384 326.446 135.845C327.91 137.915 331.365 138.943 333.897 138.834C339.614 138.588 342.036 132.432 339.876 127.421C339.876 127.421 321.582 85.143 319.048 84.4502C318.658 84.3443 301.818 94.4767 301.818 94.4767Z" fill="#EAC8CE"/>
<path d="M288.6 130.633L298.546 129.866L298.236 139.82L289.626 139.816L288.6 130.633Z" fill="#C35F54"/>
<path d="M289.334 130.633C289.334 130.633 266.529 121.842 269.064 139.803H290.954L289.334 130.633Z" fill="#C35F54"/>
<path d="M331.436 123.421L295.681 124.496L296.377 140.504L333.528 139.721C338.818 139.012 342.038 133.526 340.078 128.56C338.704 125.079 335.151 122.966 331.436 123.421Z" fill="#EAC8CE"/>
<path d="M308.71 103.315L318.169 123.82L295.682 124.496L295.662 129.865" stroke="#D5B2BA" stroke-width="0.844" stroke-miterlimit="10"/>
<path d="M318.169 123.82L323.165 126.27" stroke="#D5B2BA" stroke-width="0.844" stroke-miterlimit="10"/>
<path d="M277.19 56.2933C277.577 58.8315 275.897 61.2029 273.439 61.5885C270.98 61.9741 268.674 60.2274 268.288 57.6878C267.901 55.1482 269.581 52.7781 272.04 52.3926C274.498 52.007 276.803 53.7537 277.19 56.2933Z" fill="#0B181B"/>
<path d="M283.523 68.6825L284.578 81.1327C284.941 85.5046 287.743 87.6166 291.907 87.2209C295.463 86.8831 299.225 84.8262 298.742 80.9849L296.167 61.4739L283.523 68.6825Z" fill="#C35F54"/>
<path d="M286.498 72.6086C279.391 73.2275 273.033 67.9381 272.319 61.9601L270.888 49.4476C269.992 41.9563 275.011 35.113 282.231 33.9823C289.622 32.8227 297.851 37.8715 299.014 45.5063L300.01 55.2704C300.916 64.0605 294.954 71.2837 286.498 72.6086Z" fill="#C35F54"/>
<path d="M279.339 57.3058L279.297 60.0962L281.061 60.0165" stroke="#312220" stroke-width="0.578" stroke-miterlimit="10" stroke-linecap="round" stroke-linejoin="round"/>
<path d="M286.491 49.7566C286.491 49.7566 283.559 49.7537 283.631 50.98C283.631 50.98 283.704 51.8091 286.258 51.7598C288.813 51.712 289.457 51.4641 289.624 50.6654C289.79 49.8682 287.857 49.6493 286.491 49.7566Z" fill="#0B181B"/>
<path d="M274.538 50.4218C274.538 50.4218 276.921 49.9652 277.213 51.0973C277.213 51.0973 277.392 51.867 275.302 52.2193C273.213 52.5701 272.505 52.3526 272.254 51.7409C271.968 51.048 273.396 50.5363 274.538 50.4218Z" fill="#0B181B"/>
<path d="M283.994 55.2723C283.994 55.2723 285.886 53.8068 287.772 55.2781" stroke="#312220" stroke-width="0.578" stroke-miterlimit="10" stroke-linecap="round" stroke-linejoin="round"/>
<path d="M276.904 55.8993C276.904 55.8993 275.572 54.5121 273.711 56.1892" stroke="#312220" stroke-width="0.578" stroke-miterlimit="10" stroke-linecap="round" stroke-linejoin="round"/>
<path d="M291.829 39.2997C291.829 39.2997 288.486 43.5904 295.135 48.7957C295.135 48.7957 294.006 59.5485 292.553 62.2882C292.553 62.2882 279.081 59.5311 272.763 63.9334C272.763 63.9334 272.982 73.3265 284.056 73.7744C298.784 74.3702 300.335 59.4007 300.335 59.4007L297.262 52.1659L302.287 52.8501C302.287 52.8501 312.501 37.4211 296.574 37.4211L291.829 39.2997Z" fill="#0B181B"/>
<path d="M305.432 54.1021C305.819 56.6418 304.139 59.0132 301.68 59.3974C299.222 59.7829 296.916 58.0362 296.53 55.4981C296.143 52.9584 297.823 50.587 300.282 50.2028C302.74 49.8158 305.045 51.564 305.432 54.1021Z" fill="#C35F54"/>
<path d="M299.629 56.1423C299.629 56.1423 299.122 52.8084 302.287 52.8504" stroke="#312220" stroke-width="0.519" stroke-miterlimit="10" stroke-linecap="round" stroke-linejoin="round"/>
<path d="M292.486 39.9612C292.486 39.9612 280.179 40.7121 272.739 40.1178C272.739 40.1178 265.4 37.368 268.445 32.915C270.851 29.394 276.676 32.2656 276.676 32.2656C276.676 32.2656 276.577 28.6373 279.136 27.6487C282.201 26.4645 291.152 25.5063 298.783 37.655L292.486 39.9612Z" fill="#0B181B"/>
<path d="M284.451 81.1244L280.521 81.6303C280.521 81.6303 278.766 88.1997 287.887 88.8578C297.391 89.5463 301.138 86.0297 302.975 81.3361L292.509 79.2821L284.451 81.1244Z" fill="#C35F54"/>
<path d="M247.406 237.166L260.822 237.109L260.745 218.974L247.329 219.031L247.406 237.166Z" fill="#C35F54"/>
<path d="M291.27 146.678L292.214 152.46C294.229 164.808 284.698 176.019 272.187 176.019H266.191V227.024L241.301 227.356L239.912 164.87C239.725 154.933 247.718 146.772 257.656 146.751L291.27 146.678Z" fill="#0086FF"/>
<path d="M260.923 234.53C257.766 235.372 250.537 237.601 247.186 232.744L224.531 245.02L264.524 244.758L262.744 235.732C262.616 234.866 261.768 234.305 260.923 234.53Z" fill="#0B181B"/>
<path d="M224.555 248.486L264.55 248.222L264.525 244.756L224.53 245.018L224.555 248.486Z" fill="white"/>
<path d="M247.422 238.108C247.322 238.064 247.231 237.993 247.16 237.899C245.694 235.881 244.221 234.886 244.207 234.875C243.917 234.681 243.839 234.288 244.033 233.998C244.226 233.707 244.623 233.636 244.909 233.822C244.977 233.865 246.574 234.939 248.185 237.154C248.39 237.438 248.328 237.834 248.045 238.038C247.858 238.175 247.621 238.193 247.422 238.108Z" fill="white"/>
<path d="M244.342 239.73C244.241 239.687 244.151 239.616 244.08 239.522C242.614 237.504 241.141 236.508 241.127 236.498C240.837 236.304 240.759 235.911 240.953 235.621C241.144 235.329 241.544 235.256 241.827 235.443C241.897 235.487 243.494 236.562 245.104 238.776C245.309 239.061 245.247 239.456 244.964 239.661C244.777 239.797 244.541 239.816 244.342 239.73Z" fill="white"/>
<path d="M241.261 241.35C241.16 241.307 241.07 241.236 240.999 241.142C239.534 239.124 238.061 238.128 238.046 238.119C237.756 237.925 237.677 237.532 237.871 237.241C238.064 236.951 238.462 236.876 238.746 237.064C238.815 237.109 240.413 238.183 242.024 240.397C242.23 240.679 242.166 241.076 241.883 241.281C241.696 241.417 241.46 241.436 241.261 241.35Z" fill="white"/>
<path d="M282.528 237.166L295.944 237.109L295.867 218.974L282.451 219.031L282.528 237.166Z" fill="#C35F54"/>
<path d="M295.834 233.768C292.677 234.61 285.532 237.366 282.181 232.508L259.524 244.785L299.519 244.521L297.655 234.97C297.527 234.104 296.679 233.543 295.834 233.768Z" fill="#0B181B"/>
<path d="M259.55 248.25L299.544 247.988L299.52 244.52L259.525 244.784L259.55 248.25Z" fill="white"/>
<path d="M282.417 237.872C282.316 237.829 282.225 237.758 282.155 237.662C280.689 235.644 279.217 234.65 279.202 234.64C278.912 234.446 278.833 234.053 279.028 233.763C279.22 233.47 279.618 233.401 279.902 233.585C279.971 233.63 281.569 234.704 283.18 236.919C283.384 237.203 283.322 237.598 283.039 237.803C282.852 237.939 282.616 237.958 282.417 237.872Z" fill="white"/>
<path d="M279.336 239.494C279.236 239.451 279.145 239.38 279.074 239.284C277.608 237.266 276.136 236.271 276.121 236.262C275.831 236.068 275.753 235.675 275.947 235.385C276.14 235.094 276.539 235.018 276.823 235.207C276.891 235.252 278.488 236.326 280.099 238.541C280.303 238.825 280.242 239.219 279.959 239.425C279.771 239.561 279.535 239.58 279.336 239.494Z" fill="white"/>
<path d="M276.256 241.117C276.156 241.073 276.064 241.004 275.993 240.908C274.528 238.89 273.055 237.894 273.041 237.886C272.751 237.691 272.671 237.299 272.867 237.009C273.058 236.717 273.457 236.642 273.741 236.83C273.81 236.875 275.408 237.949 277.018 240.163C277.224 240.446 277.162 240.843 276.879 241.049C276.692 241.183 276.454 241.202 276.256 241.117Z" fill="white"/>
<path d="M326.392 146.678L327.335 152.46C329.35 164.808 319.819 176.019 307.308 176.019H301.313V227.024L276.423 227.356L275.034 164.87C274.847 154.933 282.84 146.772 292.778 146.751L326.392 146.678Z" fill="#0086FF"/>
<path d="M274.798 175.864V163.946C274.798 154.202 282.634 146.298 292.313 146.28L296.748 146.273" stroke="#55382C" stroke-width="0.844" stroke-miterlimit="10"/>
<path d="M217.512 249.6L181.805 143.496L153.068 248.31" stroke="#55382E" stroke-width="1.147" stroke-miterlimit="10"/>
<path d="M367.627 249.6L331.92 143.496L303.183 248.31" stroke="#55382E" stroke-width="1.147" stroke-miterlimit="10"/>
<path d="M383.265 146.827H129.553V139.639H383.265V146.827Z" fill="white"/>
<path d="M169.015 45.9163H229.033C230.707 45.9163 232.064 44.5595 232.064 42.8852V22.8901C232.064 21.2159 230.707 19.8591 229.033 19.8591H169.015C167.341 19.8591 165.984 21.2159 165.984 22.8901V42.8852C165.984 44.5595 167.341 45.9163 169.015 45.9163Z" fill="white"/>
<path d="M220.435 29.8435H176.519" stroke="#F1D5CE" stroke-width="0.98" stroke-miterlimit="10" stroke-linecap="round" stroke-linejoin="round"/>
<path d="M191.703 36.7688H176.667" stroke="#F1D5CE" stroke-width="0.98" stroke-miterlimit="10" stroke-linecap="round" stroke-linejoin="round"/>
<path d="M222.779 42.4485V54.2334L207.757 42.4485H222.779Z" fill="white"/>
<path d="M119.156 62.4466L128.372 98.8797L146.4 130.064L140.183 135.314L114.629 103.315L104.423 73.8242L119.156 62.4466Z" fill="#F9B0A3"/>
<path d="M146.401 130.065L162.42 134.792C163.942 135.236 165.378 135.846 165.839 137.348C166.067 138.088 165.932 138.893 165.602 139.595L165.584 139.632C164.943 140.992 163.462 141.743 161.986 141.454L148.619 139.703L150.626 143.165C151.044 143.779 151.028 144.591 150.588 145.19C150.033 145.945 148.984 146.131 148.204 145.613L143.503 142.498C142.227 141.653 141.327 140.348 140.988 138.855L140.184 135.315L142.081 130.065H146.401Z" fill="#F9B0A3"/>
<path d="M120.767 55.9231L126.951 78.3172L107.405 87.2349L113.542 68.9893L120.767 55.9231Z" fill="#FF9184"/>
<path d="M97.0103 44.9981C97.0103 44.9981 78.2313 38.0808 67.3365 57.8977C56.4402 77.716 47.7168 120.742 47.7168 120.742L96.2783 124.805L115.309 69.3086C117.704 64.1829 123.673 57.5527 119.439 53.8027C117.526 52.1082 114.882 50.547 111.225 49.412L97.0103 44.9981Z" fill="#FF9184"/>
<path d="M109.488 86.2837L115.004 70.1995" stroke="#FF6C63" stroke-width="1.02" stroke-miterlimit="10"/>
<path d="M105.282 94.8807L85.5553 53.1104L70.2031 75.6756L91.771 105.235C93.7178 107.902 96.8705 109.417 100.17 109.267L141.298 107.415L146.634 100.257L105.282 94.8807Z" fill="#FFC1B2"/>
<path d="M146.633 100.257L164.463 101.298L171.744 103.74C172.55 104.01 173.001 104.867 172.767 105.686C172.53 106.52 171.666 107.01 170.826 106.784L163.657 104.867L158.599 104.464L160.769 106.423C161.81 107.363 162.551 108.585 162.906 109.94L163.209 111.101C163.635 112.735 162.674 114.409 161.049 114.866L157.534 115.854C156.019 116.28 154.426 115.503 153.829 114.047L152.729 111.362L149.322 109.647C149.322 109.647 144.563 111.1 140.189 107.424C136.45 104.282 140.628 103.353 141.012 103.179C141.396 103.004 146.633 100.257 146.633 100.257Z" fill="#FFC1B2"/>
<path d="M87.5295 50.0315L104.423 78.9689L78.1523 97.616L64.728 68.9105L87.5295 50.0315Z" fill="#FF9184"/>
<path d="M70.8208 83.1369L78.7875 97.1584L83.4348 93.8085" stroke="#FF6C63" stroke-width="1.02" stroke-miterlimit="10"/>
<path d="M99.1841 82.6887L88.4053 62.4472" stroke="#FF6C63" stroke-width="1.02" stroke-miterlimit="10"/>
<path d="M124.557 236.705L122.92 204.525L108.417 207.037L112.452 240.281L124.913 237.902L124.557 236.705Z" fill="#FFC1B2"/>
<path d="M110.642 233.905C110.642 233.905 121.001 238.209 125.874 231.249L151.036 244.389L107.42 244.485L110.642 233.905Z" fill="black"/>
<path d="M151.006 248.163L107.392 248.258L107.421 244.485L151.036 244.389L151.006 248.163Z" fill="white"/>
<path d="M125.609 237.09C125.72 237.043 125.822 236.966 125.9 236.86C127.53 234.649 129.166 233.552 129.182 233.54C129.505 233.327 129.592 232.9 129.376 232.585C129.162 232.269 128.721 232.197 128.404 232.401C128.328 232.45 126.553 233.635 124.762 236.061C124.535 236.37 124.604 236.801 124.917 237.022C125.126 237.167 125.389 237.185 125.609 237.09Z" fill="white"/>
<path d="M129.03 238.825C129.142 238.777 129.243 238.701 129.321 238.595C130.951 236.384 132.587 235.287 132.603 235.275C132.925 235.062 133.013 234.635 132.797 234.32C132.583 234.006 132.141 233.927 131.825 234.136C131.749 234.185 129.974 235.37 128.183 237.796C127.954 238.105 128.025 238.535 128.338 238.757C128.546 238.902 128.81 238.92 129.03 238.825Z" fill="white"/>
<path d="M132.451 240.56C132.562 240.512 132.664 240.435 132.742 240.329C134.371 238.12 136.008 237.023 136.024 237.011C136.347 236.798 136.434 236.369 136.22 236.055C136.005 235.74 135.563 235.662 135.247 235.871C135.17 235.92 133.394 237.106 131.604 239.529C131.375 239.839 131.446 240.27 131.759 240.492C131.967 240.637 132.23 240.654 132.451 240.56Z" fill="white"/>
<path d="M96.278 124.806L123.357 165.122C126.213 170.121 126.016 171.838 126.392 177.582L129.213 226.221L105.349 227.83L99.3525 179.544L69.815 131.921L68.335 122.373L96.278 124.806Z" fill="white"/>
<path d="M59.155 238.885L67.6783 205.613L53.177 208.126L46.7192 238.885L58.5679 240.281L59.155 238.885Z" fill="#FFC1B2"/>
<path d="M46.1569 233.905C46.1569 233.905 56.5154 238.209 61.3888 231.249L86.5502 244.389L42.9346 244.485L46.1569 233.905Z" fill="black"/>
<path d="M86.5204 248.163L42.9062 248.258L42.9352 244.485L86.5508 244.389L86.5204 248.163Z" fill="white"/>
<path d="M61.123 237.09C61.2361 237.043 61.3361 236.966 61.4144 236.86C63.0437 234.649 64.6802 233.552 64.6962 233.54C65.0194 233.327 65.1064 232.9 64.8904 232.585C64.6759 232.269 64.2352 232.197 63.9192 232.401C63.8424 232.45 62.0667 233.635 60.2765 236.061C60.0489 236.37 60.1185 236.801 60.4316 237.022C60.6403 237.167 60.9027 237.185 61.123 237.09Z" fill="white"/>
<path d="M64.5449 238.825C64.6565 238.777 64.758 238.701 64.8363 238.595C66.4655 236.384 68.1021 235.287 68.118 235.275C68.4413 235.062 68.5283 234.635 68.3123 234.32C68.0992 234.006 67.6556 233.927 67.3396 234.136C67.2643 234.185 65.4885 235.37 63.6984 237.796C63.4708 238.105 63.5404 238.535 63.8535 238.757C64.0607 238.902 64.3246 238.92 64.5449 238.825Z" fill="white"/>
<path d="M67.9654 240.56C68.0785 240.512 68.1785 240.435 68.2568 240.329C69.8875 238.12 71.5226 237.023 71.5386 237.011C71.8618 236.798 71.9488 236.369 71.7343 236.055C71.5197 235.74 71.0776 235.662 70.7616 235.871C70.6848 235.92 68.9091 237.106 67.1189 239.529C66.8899 239.839 66.9609 240.27 67.274 240.492C67.4827 240.637 67.7451 240.654 67.9654 240.56Z" fill="white"/>
<path d="M83.6793 152.743L83.6416 147.048L91.4605 137.952" stroke="#E2E2E2" stroke-width="0.76" stroke-miterlimit="10"/>
<path d="M49.0787 120.854C49.0787 120.854 42.6905 134.442 50.7718 152.986C51.082 153.696 51.3922 154.334 51.7053 154.94L54.9871 183.099L43.7168 228.547L68.5534 228.842L81.956 188.851C82.4691 186.847 82.7924 184.799 82.92 182.733L82.5735 131.132L88.4051 124.118L49.0787 120.854Z" fill="white"/>
<path d="M130.151 15.914C130.151 15.914 135.523 27.1104 126.098 26.7697L130.151 15.914Z" fill="#0B181B"/>
<path d="M119.642 29.5213C118.565 32.0943 119.71 35.0354 122.199 36.0893C124.686 37.1431 127.577 35.9124 128.654 33.338C129.729 30.7651 128.586 27.8239 126.097 26.7701C123.609 25.7163 120.719 26.9484 119.642 29.5213Z" fill="#F1998A"/>
<path d="M113.309 39.939L109.401 51.3571C108.037 55.3695 104.914 56.6915 101.105 55.3434C97.8535 54.1924 94.8109 51.3832 96.1633 47.8985L103.15 30.2197L113.309 39.939Z" fill="#FFC1B2"/>
<path d="M110.735 47.5405C110.735 47.5405 101.165 45.1401 101.864 33.6799C102.083 30.0705 113.732 38.7765 113.732 38.7765L110.735 47.5405Z" fill="#0B181B"/>
<path d="M108.744 42.0916C115.26 44.3369 122.456 40.8725 124.528 35.4396L128.802 24.0504C131.399 17.2419 128.302 9.65202 121.802 6.89931C115.147 4.07993 106.252 6.88047 103.374 13.7629L100.151 22.6777C97.2405 30.701 101.133 38.8663 108.744 42.0916Z" fill="#FFC1B2"/>
<path d="M119 29.6076L118.426 32.0559L116.792 31.5674" stroke="#0B181B" stroke-width="0.527" stroke-miterlimit="10" stroke-linecap="round" stroke-linejoin="round"/>
<path d="M115.647 17.8764C115.647 17.8764 118.396 18.562 118.039 19.6941C118.039 19.6941 117.778 20.4537 115.396 19.8086C113.013 19.1636 112.468 18.7809 112.499 17.9938C112.529 17.2067 114.392 17.456 115.647 17.8764Z" fill="#0B181B"/>
<path d="M126.403 22.1114C126.403 22.1114 124.278 21.1242 123.737 22.1172C123.737 22.1172 123.389 22.7955 125.265 23.616C127.141 24.4364 127.856 24.3973 128.234 23.8827C128.664 23.3 127.445 22.4868 126.403 22.1114Z" fill="#0B181B"/>
<path d="M121.983 28.2487C121.744 28.8807 122.047 29.5809 122.659 29.8143C123.272 30.0462 123.96 29.7215 124.2 29.0895C124.437 28.4575 124.134 27.7559 123.523 27.524C122.911 27.292 122.222 27.6153 121.983 28.2487Z" fill="#0B181B"/>
<path d="M112.273 24.5571C112.034 25.1891 112.337 25.8892 112.95 26.1226C113.562 26.3545 114.25 26.0298 114.49 25.3978C114.727 24.7658 114.424 24.0642 113.813 23.8323C113.201 23.6004 112.512 23.9236 112.273 24.5571Z" fill="#0B181B"/>
<path d="M120.316 27.5944C119.205 30.4674 120.632 33.6985 123.507 34.8117C126.381 35.9235 129.612 34.4943 130.724 31.6213C131.836 28.7468 130.407 25.5158 127.534 24.4039C124.659 23.2921 121.428 24.7214 120.316 27.5944Z" stroke="white" stroke-width="0.49" stroke-miterlimit="10"/>
<path d="M111.292 19.8731C108.474 21.1183 107.199 24.4131 108.445 27.2325C109.692 30.0504 112.985 31.3246 115.805 30.0794C118.623 28.8328 119.897 25.538 118.652 22.72C117.405 19.9021 114.11 18.6265 111.292 19.8731Z" stroke="white" stroke-width="0.49" stroke-miterlimit="10"/>
<path d="M108.345 22.9626L103.433 21.0623" stroke="white" stroke-width="0.49" stroke-miterlimit="10"/>
<path d="M118.333 27.9964L119.899 28.6023" stroke="white" stroke-width="0.49" stroke-miterlimit="10"/>
<path d="M112.192 32.803C112.192 32.803 113.382 35.189 117.896 35.189" stroke="#0B181B" stroke-width="0.527" stroke-miterlimit="10" stroke-linecap="round" stroke-linejoin="round"/>
<path d="M100.165 5.78175C102.866 0.715565 107.451 2.82032 107.451 2.82032L107.452 2.82756C110.505 0.125597 116.523 -1.07173 122.155 1.18667C129.787 4.24667 135.217 11.0538 134.969 15.5807C134.723 20.1077 128.794 17.7855 128.794 17.7855C128.794 17.7855 119.844 15.243 113.027 12.1757C112.323 15.2937 110.353 19.9482 104.966 18.2957L100.554 26.9365C100.554 26.9365 96.6646 12.3482 100.165 5.78175Z" fill="#0B181B"/>
<path d="M94.2357 20.3976C93.1703 22.9459 94.3024 25.8581 96.7666 26.9018C99.2308 27.9454 102.092 26.7264 103.159 24.1766C104.226 21.6297 103.091 18.7161 100.628 17.6739C98.164 16.6288 95.3011 17.8493 94.2357 20.3976Z" fill="#FFC1B2"/>
<path d="M99.7572 24.0413C99.7572 24.0413 101.156 20.6957 97.8438 19.9115" stroke="#312220" stroke-width="0.558" stroke-miterlimit="10" stroke-linecap="round" stroke-linejoin="round"/>
<path d="M93.1757 44.0406L104.923 46.7802L113.019 50.0316C113.019 50.0316 110.725 57.9954 103.433 56.6778C89.9896 54.2469 93.1757 44.0406 93.1757 44.0406Z" fill="#FFC1B2"/>
<path d="M424 249.082H0" stroke="#55382E" stroke-width="1.147" stroke-miterlimit="10"/>
</svg>
