<svg width="424" height="271" viewBox="0 0 424 271" fill="none" xmlns="http://www.w3.org/2000/svg">
<path d="M311.416 57.1244C311.592 52.2494 307.988 48.0594 303.143 47.5057C297.91 46.9093 291.634 50.3227 290.286 57.0388C289.144 62.7524 288.351 72.8479 288.404 72.3858L311.276 73.781L311.416 57.1244Z" fill="white"/>
<path d="M311.733 74.3526L292.661 72.6459C293.264 81.7434 293.122 87.2223 292.695 92.4088C292.217 98.2612 296.831 103.275 302.702 103.285C308.122 103.294 312.572 99.0068 312.768 93.5914L311.733 74.3526Z" fill="#FFC1B2"/>
<path d="M260.081 68.061L301.026 86.5129C305.197 88.8515 306.567 94.199 304.035 98.2532C301.475 102.356 295.984 103.444 292.054 100.63L256.984 75.0532L260.081 68.061Z" fill="#FFC1B2"/>
<path d="M256.051 77.6483C260.554 79.169 265.438 76.7536 266.96 72.2506C268.482 67.7477 266.064 62.8623 261.561 61.3416C257.059 59.8209 252.175 62.2378 250.653 66.7393C249.131 71.2423 251.548 76.1262 256.051 77.6483Z" fill="#FFC1B2"/>
<path d="M256.85 61.6018C256.85 61.6018 256.416 58.2342 260.792 59.3488C265.169 60.462 269.083 63.8548 266.96 72.251L256.85 61.6018Z" fill="#FFC1B2"/>
<path d="M269.776 48.5576L261.366 44.0945C260.897 43.8464 260.336 44.0664 260.113 44.589L250.508 66.9622C250.285 67.4819 250.483 68.1064 250.951 68.3545L259.36 72.8191C259.83 73.0686 260.391 72.8456 260.613 72.3259L270.217 49.9498C270.442 49.4301 270.242 48.8056 269.776 48.5576Z" fill="#372C5F"/>
<path d="M271.397 49.4179L262.987 44.9548C262.519 44.7052 261.958 44.9267 261.735 45.4479L252.13 67.8225C251.907 68.3422 252.105 68.9667 252.573 69.2148L260.982 73.6794C261.45 73.9274 262.011 73.7059 262.234 73.1848L271.839 50.8101C272.062 50.2889 271.865 49.6659 271.397 49.4179Z" fill="#251641"/>
<path d="M270.305 51.5508L262.915 47.6295L255.086 65.8629L262.477 69.7856L270.305 51.5508Z" fill="#E7E7E7"/>
<path d="M262.916 47.6295L262.477 69.7856L270.305 51.5508L262.916 47.6295Z" fill="white"/>
<path d="M264.868 70.3706L262.751 62.965C262.599 62.4321 262.77 61.8592 263.189 61.496C263.795 60.9734 264.715 61.0531 265.222 61.6732L266.449 63.3666L264.868 70.3706Z" fill="#FFC1B2"/>
<path d="M264.154 64.2134C264.154 64.2134 260.599 69.7498 263.07 74.644L265.218 70.3359L264.154 64.2134Z" fill="#FFC1B2"/>
<path d="M276.415 258.084L289.773 258.028L292.524 239.969L279.167 240.028L276.415 258.084Z" fill="#FFC1B2"/>
<path d="M289.664 255.001C286.52 255.84 279.407 258.584 276.069 253.746L253.511 265.971L293.332 265.708L291.478 256.197C291.351 255.336 290.505 254.777 289.664 255.001Z" fill="black"/>
<path d="M253.537 269.122L293.358 268.859L293.333 265.407L253.51 265.67L253.537 269.122Z" fill="white"/>
<path d="M276.305 258.789C276.205 258.746 276.113 258.675 276.044 258.58C274.584 256.571 273.119 255.579 273.105 255.569C272.815 255.377 272.737 254.985 272.93 254.698C273.122 254.405 273.518 254.334 273.801 254.52C273.869 254.565 275.461 255.634 277.064 257.838C277.268 258.121 277.206 258.514 276.926 258.719C276.739 258.855 276.503 258.874 276.305 258.789Z" fill="white"/>
<path d="M273.238 260.403C273.139 260.36 273.047 260.291 272.976 260.195C271.518 258.186 270.052 257.195 270.037 257.185C269.749 256.991 269.669 256.601 269.863 256.312C270.056 256.021 270.452 255.946 270.735 256.135C270.803 256.179 272.395 257.248 273.998 259.454C274.202 259.736 274.138 260.13 273.858 260.335C273.672 260.469 273.435 260.489 273.238 260.403Z" fill="white"/>
<path d="M270.171 262.017C270.07 261.975 269.979 261.905 269.909 261.809C268.449 259.801 266.985 258.809 266.97 258.799C266.68 258.605 266.602 258.216 266.796 257.926C266.988 257.637 267.383 257.56 267.667 257.749C267.735 257.795 269.326 258.864 270.931 261.067C271.135 261.35 271.071 261.743 270.791 261.948C270.605 262.084 270.368 262.103 270.171 262.017Z" fill="white"/>
<path d="M297.958 91.7155C297.958 91.7155 292.568 103.698 283.603 157.18C274.639 210.662 273.436 246.602 273.436 246.602H301.01L325.056 97.3036L318.91 91.4837L297.958 91.7155Z" fill="#FF9184"/>
<path d="M321.814 258.084L335.171 258.028L335.094 239.969L321.737 240.028L321.814 258.084Z" fill="#FFC1B2"/>
<path d="M335.062 254.702C331.919 255.54 324.806 258.285 321.468 253.447L298.91 265.671L338.731 265.408L336.877 255.899C336.748 255.037 335.903 254.479 335.062 254.702Z" fill="black"/>
<path d="M298.934 269.122L338.757 268.859L338.732 265.407L298.909 265.67L298.934 269.122Z" fill="white"/>
<path d="M321.703 258.789C321.604 258.746 321.512 258.675 321.443 258.58C319.983 256.571 318.517 255.579 318.502 255.569C318.214 255.377 318.136 254.985 318.329 254.698C318.521 254.405 318.916 254.334 319.2 254.52C319.268 254.565 320.86 255.634 322.463 257.838C322.667 258.121 322.605 258.514 322.323 258.719C322.137 258.855 321.901 258.874 321.703 258.789Z" fill="white"/>
<path d="M318.636 260.403C318.536 260.36 318.445 260.291 318.375 260.195C316.916 258.186 315.45 257.195 315.436 257.185C315.146 256.991 315.068 256.601 315.261 256.312C315.453 256.021 315.851 255.946 316.134 256.135C316.202 256.179 317.793 257.248 319.397 259.454C319.599 259.736 319.537 260.13 319.257 260.335C319.071 260.469 318.834 260.489 318.636 260.403Z" fill="white"/>
<path d="M315.57 262.017C315.469 261.975 315.378 261.905 315.308 261.809C313.848 259.801 312.384 258.809 312.367 258.799C312.079 258.605 312.001 258.216 312.195 257.926C312.387 257.637 312.782 257.56 313.066 257.749C313.134 257.795 314.725 258.864 316.329 261.067C316.532 261.35 316.47 261.743 316.19 261.948C316.004 262.084 315.767 262.103 315.57 262.017Z" fill="white"/>
<path d="M330.942 91.3493C330.942 91.3493 344.131 104.228 344.814 130.107C345.603 159.964 343.134 246.949 343.134 246.949L316.728 246.256L303.109 91.6593L330.942 91.3493Z" fill="#FF9184"/>
<path d="M311.276 182.865L306.494 134.738L299.666 126.637" stroke="#FF6C63" stroke-width="0.997" stroke-miterlimit="10"/>
<path d="M332.953 45.1734L316.528 44.2227L304.911 45.606L297.852 48.5854C296.717 49.0711 296.004 50.2094 296.063 51.4422L296.256 55.5451C296.256 55.5451 290.897 73.5334 297.298 77.6776L297.958 91.7151L331.726 91.3416L336.839 57.3743C336.896 55.1553 335.168 45.3447 332.953 45.1734Z" fill="white"/>
<path d="M293.877 72.6458C293.877 72.6458 292.662 65.7614 294.931 61.2805" stroke="#E2E2E2" stroke-width="0.76" stroke-miterlimit="10"/>
<path d="M347.406 63.8348L330.51 73.0209C334.427 81.2532 337.606 85.6292 339.128 90.6076C340.842 96.2223 345.18 100.681 350.639 98.524C355.68 96.5309 358.234 90.9044 356.418 85.799L347.406 63.8348Z" fill="#FFC1B2"/>
<path d="M342.821 50.843C339.687 45.8852 334.943 44.3232 330.235 45.5974C325.152 46.9748 325.281 58.7948 326.807 63.8352C327.899 67.4435 327.549 66.8012 330.509 73.0198L349.268 63.4838L342.821 50.843Z" fill="white"/>
<path d="M330.509 73.0198L326.367 65.8563" stroke="#E2E2E2" stroke-width="0.76" stroke-miterlimit="10"/>
<path d="M326.896 125.838L341.251 85.8334C343.535 81.6346 348.864 80.1936 352.95 82.671C357.086 85.1764 358.248 90.6523 355.485 94.6194L334.32 131.399L326.896 125.838Z" fill="#FFC1B2"/>
<path d="M336.927 132.296C338.389 127.774 335.909 122.923 331.385 121.461C326.863 120 322.01 122.481 320.548 127.002C319.087 131.526 321.568 136.377 326.091 137.839C330.614 139.3 335.466 136.819 336.927 132.296Z" fill="#FFC1B2"/>
<path d="M320.871 131.711C320.871 131.711 317.509 132.19 318.565 127.799C319.619 123.408 322.961 119.449 331.384 121.462L320.871 131.711Z" fill="#FFC1B2"/>
<path d="M301.4 3.37432C301.4 3.37432 290.559 2.40728 290.522 15.2194C290.492 24.7819 288.046 35.9316 284.721 41.5877C291.241 42.0439 312.799 41.5567 305.203 41.7013C299.614 41.8091 315.005 45.2594 328.896 38.4725C328.896 38.4725 332.072 31.0832 331.477 21.7288C330.883 12.3759 326.724 5.35859 321.79 2.19026C316.853 -0.975115 305.748 -0.818621 301.4 3.37432Z" fill="#CE5137"/>
<path d="M297.118 2.39134C297.118 2.39134 319.402 -4.74404 326.297 6.28015C331.298 14.2777 326.501 29.3886 316.12 34.0554C306.23 38.5008 307.6 5.55819 307.6 5.55819L297.118 2.39134Z" fill="#CE5137"/>
<path d="M301.669 24.4512C302.019 27.15 300.116 29.623 297.417 29.9743C294.718 30.3257 292.245 28.4212 291.894 25.7224C291.544 23.0235 293.447 20.5506 296.146 20.2007C298.845 19.8493 301.318 21.7523 301.669 24.4512Z" fill="#F1998A"/>
<path d="M303.027 36.3541L304.35 47.0136C304.806 50.7577 307.359 52.4777 311.04 51.9993C314.183 51.5889 316.923 49.584 316.907 46.4142L314.019 29.7413L303.027 36.3541Z" fill="#FFC1B2"/>
<path d="M303.873 43.2993C303.873 43.2993 313.664 40.3539 315.598 31.562L302.87 35.2648L303.873 43.2993Z" fill="#0B181B"/>
<path d="M306.387 37.8883C300.068 38.2869 294.548 33.6215 294.052 28.4719L292.947 16.3138C292.323 9.85907 296.931 4.07163 303.362 3.23304C309.945 2.37674 317.131 6.86938 317.987 13.4526L318.769 23.2425C319.372 30.8134 313.919 36.9094 306.387 37.8883Z" fill="#FFC1B2"/>
<path d="M326.68 22.0895C327.031 24.7884 325.127 27.2613 322.428 27.6112C319.729 27.9641 317.257 26.0595 316.906 23.3607C316.555 20.6619 318.458 18.1889 321.157 17.8375C323.855 17.4862 326.328 19.3907 326.68 22.0895Z" fill="#FFC1B2"/>
<path d="M299.814 26.6898L299.736 28.0806L301.389 28.0732" stroke="#1B142E" stroke-width="0.533" stroke-miterlimit="10" stroke-linecap="round" stroke-linejoin="round"/>
<path d="M307.085 18.1066C307.085 18.1066 304.343 17.9929 304.364 19.1416C304.364 19.1416 304.401 19.9211 306.791 19.9728C309.183 20.0244 309.794 19.8163 309.982 19.0766C310.168 18.3355 308.368 18.0594 307.085 18.1066Z" fill="#832311"/>
<path d="M295.641 18.5449C295.641 18.5449 297.887 18.2068 298.119 19.2787C298.119 19.2787 298.256 20.0051 296.288 20.2546C294.32 20.5041 293.666 20.2738 293.455 19.6906C293.214 19.0321 294.57 18.6084 295.641 18.5449Z" fill="#832311"/>
<path d="M298.773 30.6054L305.975 30.4636C305.975 30.4636 305.917 32.6531 302.539 32.8495C299.235 33.0399 298.773 30.6054 298.773 30.6054Z" fill="white"/>
<path d="M304.817 23.0728C304.817 23.0728 306.01 21.3705 308.218 23.0167" stroke="#1B172C" stroke-width="0.652" stroke-miterlimit="10" stroke-linecap="round" stroke-linejoin="round"/>
<path d="M295.206 23.5627C295.206 23.5627 296.341 21.7571 297.923 23.4446" stroke="#1B172C" stroke-width="0.623" stroke-miterlimit="10" stroke-linecap="round" stroke-linejoin="round"/>
<path d="M297.117 2.39175C297.117 2.39175 286.998 5.34452 289.555 16.9858L321.792 14.9942L318.242 3.85337L297.117 2.39175Z" fill="#CE5137"/>
<path d="M313.511 13.952C313.511 13.952 316.408 27.9275 313.291 43.9404C313.291 43.9404 319.108 43.1048 324.529 40.3085C324.529 40.3085 322.927 19.8458 320.177 13.2788C317.426 6.71331 313.626 10.7852 313.626 10.7852L313.511 13.952Z" fill="#CE5137"/>
<path d="M305.141 45.2889L301.391 47.0916C301.391 47.0916 296.001 56.1404 306.623 56.4844C319.437 56.9007 320.484 49.4996 322.527 44.5419L315.979 43.9159L305.141 45.2889Z" fill="#FFC1B2"/>
<path d="M49.2054 60.7434H107.158C109.802 60.7434 111.944 58.6012 111.944 55.957V17.5295C111.944 14.8853 109.802 12.7431 107.158 12.7431H49.2054C46.5612 12.7431 44.4175 14.8853 44.4175 17.5295V55.957C44.4175 58.6012 46.5612 60.7434 49.2054 60.7434Z" fill="white"/>
<path d="M102.85 56.8159L97.6663 66.8805C97.0255 68.1265 95.2672 68.19 94.5378 66.9942L88.3252 56.8159H102.85Z" fill="white"/>
<path d="M93.896 46.5422H61.6074V26.3231H93.896V46.5422Z" fill="#0086FF"/>
<path d="M61.6074 26.3224L77.2808 36.542L93.896 26.3224" stroke="white" stroke-width="1.146" stroke-miterlimit="10" stroke-linecap="round" stroke-linejoin="round"/>
<path d="M229.389 61.2798H200.314V46.5705C200.314 45.351 201.304 44.3619 202.522 44.3619H229.389C230.607 44.3619 231.596 45.351 231.596 46.5705V59.0726C231.596 60.2906 230.607 61.2798 229.389 61.2798Z" fill="#0086FF"/>
<path d="M200.315 57.7792L200.292 65.2527L206.675 57.7999L200.315 57.7792Z" fill="#0086FF"/>
<path d="M221.23 52.6288C221.227 53.4054 221.855 54.0388 222.632 54.0403C223.412 54.0432 224.042 53.4143 224.045 52.6377C224.048 51.8596 223.419 51.2278 222.641 51.2248C221.864 51.2218 221.231 51.8508 221.23 52.6288Z" fill="white"/>
<path d="M215.188 52.6103C215.185 53.3869 215.814 54.0202 216.592 54.0217C217.37 54.0247 218.002 53.3957 218.003 52.6192C218.006 51.8411 217.377 51.2077 216.601 51.2062C215.823 51.2033 215.191 51.8322 215.188 52.6103Z" fill="white"/>
<path d="M209.147 52.592C209.145 53.3686 209.774 54.0019 210.551 54.0034C211.329 54.0064 211.961 53.3774 211.964 52.6008C211.965 51.8228 211.338 51.1894 210.56 51.1879C209.783 51.185 209.15 51.8139 209.147 52.592Z" fill="white"/>
<path d="M140.177 156.065C139.124 156.969 125.203 164.489 116.779 175.322L133.601 190.816L161.441 184.142L163.083 156.065H140.177Z" fill="#0B181B"/>
<path d="M135.75 257.142L132.777 241.399H142.928L144.149 257.142H135.75Z" fill="#F9B0A3"/>
<path d="M144.15 255.645H135.751C135.751 255.645 129.902 259.329 128.384 265.829H152.002C152.002 265.829 148.122 257.452 144.15 255.645Z" fill="black"/>
<path d="M152.003 268.749H128.385V265.83H152.003V268.749Z" fill="white"/>
<path d="M135.435 259.626C135.435 259.626 140.407 257.009 144.15 259.626" stroke="white" stroke-width="0.958" stroke-miterlimit="10" stroke-linecap="round" stroke-linejoin="round"/>
<path d="M138.924 180.918C142.238 204.162 147.952 247.815 147.952 247.815L128.286 248.179L114.701 185.318C113.199 178.509 117.644 171.812 124.502 170.552C131.385 169.286 137.936 173.991 138.924 180.918Z" fill="#0B181B"/>
<path d="M182.481 156.065C183.535 156.969 197.455 164.489 205.879 175.322L189.059 190.816L161.217 184.142L159.577 156.065H182.481Z" fill="#0B181B"/>
<path d="M185.756 257.142L188.729 241.399H178.577L177.356 257.142H185.756Z" fill="#F9B0A3"/>
<path d="M177.356 255.645H185.755C185.755 255.645 191.604 259.329 193.124 265.829H169.504C169.504 265.829 173.384 257.452 177.356 255.645Z" fill="black"/>
<path d="M169.503 268.749H193.123V265.83H169.503V268.749Z" fill="white"/>
<path d="M186.073 259.626C186.073 259.626 181.099 257.009 177.356 259.626" stroke="white" stroke-width="0.958" stroke-miterlimit="10" stroke-linecap="round" stroke-linejoin="round"/>
<path d="M183.734 180.918C180.419 204.162 173.293 247.815 173.293 247.815L192.958 248.179L207.957 185.318C209.459 178.509 205.013 171.812 198.155 170.552C191.272 169.286 184.723 173.991 183.734 180.918Z" fill="#0B181B"/>
<path d="M158.791 91.6931C158.791 91.6931 141.008 91.6931 127.916 104.569V140.65C127.916 140.65 190.568 141.604 190.568 140.65C190.568 139.696 190.584 102.183 190.584 102.183C190.584 102.183 177.769 91.6931 158.791 91.6931Z" fill="#0086FF"/>
<path d="M132.334 138.636H114.47C109.781 138.636 105.978 142.437 105.978 147.128C105.978 151.818 109.781 155.62 114.47 155.62H135.485L132.334 138.636Z" fill="#E88E80"/>
<path d="M107.028 143.033L119.028 123.542L135.484 125.762L133.044 147.127L107.028 143.033Z" fill="#E88E80"/>
<path d="M127.916 138.635H117.3" stroke="#55382C" stroke-width="0.718" stroke-miterlimit="10"/>
<path d="M130.564 102.183C130.564 102.183 120.899 109.988 110.708 127.171C110.708 127.171 112.907 137.113 131.887 138.635L130.564 102.183Z" fill="#0086FF"/>
<path d="M188.249 138.636H206.113C210.802 138.636 214.605 142.437 214.605 147.128C214.605 151.818 210.802 155.62 206.113 155.62H185.098L188.249 138.636Z" fill="#E88E80"/>
<path d="M213.507 142.949L198.489 119.967L185.099 125.762L187.539 147.128L213.507 142.949Z" fill="#E88E80"/>
<path d="M189.262 138.635H203.283" stroke="#55382C" stroke-width="0.718" stroke-miterlimit="10"/>
<path d="M190.584 102.183C190.584 102.183 200.251 109.988 210.44 127.171C210.44 127.171 208.243 137.113 189.261 138.635L190.584 102.183Z" fill="#0086FF"/>
<path d="M187.725 155.62H130.759C129.19 155.62 127.916 154.347 127.916 152.777V116.813C127.916 115.242 129.19 113.971 130.759 113.971H187.725C189.295 113.971 190.569 115.242 190.569 116.813V152.777C190.569 154.347 189.295 155.62 187.725 155.62Z" fill="#EAC8CE"/>
<path d="M163.082 134.795C163.082 136.916 161.362 138.636 159.242 138.636C157.122 138.636 155.402 136.916 155.402 134.795C155.402 132.675 157.122 130.955 159.242 130.955C161.362 130.955 163.082 132.675 163.082 134.795Z" fill="white"/>
<path d="M161.307 97.8604H157.154C154.5 97.8604 152.347 95.7093 152.347 93.0532V84.093H166.114V93.0532C166.114 95.7093 163.963 97.8604 161.307 97.8604Z" fill="#E88E80"/>
<path d="M152.385 84.6802C152.385 84.6802 154.384 90.85 166.114 90.6359V82.1186C166.114 82.1186 165.332 83.7028 160.105 83.4799C154.827 83.254 152.385 84.6802 152.385 84.6802Z" fill="#0B0B0B"/>
<path d="M176.21 60.9938C176.21 70.6774 168.556 78.5259 159.118 78.5259C149.677 78.5259 142.027 70.6774 142.027 60.9938C142.027 51.3101 149.677 43.4617 159.118 43.4617C168.556 43.4617 176.21 51.3101 176.21 60.9938Z" fill="#0B181B"/>
<path d="M173.891 67.3897C173.891 67.3897 175.121 65.4334 177.661 66.396C180.197 67.3586 179.05 73.5226 175.242 74.3095C175.242 74.3095 173.877 74.6062 172.808 73.6717C172.808 73.6717 173.744 69.1185 173.891 67.3897Z" fill="#E88E80"/>
<path d="M177.157 68.5712C177.157 68.5712 175.031 67.8625 173.521 70.9924" stroke="#021833" stroke-width="0.461" stroke-miterlimit="10" stroke-linecap="round" stroke-linejoin="round"/>
<path d="M144.744 67.3897C144.744 67.3897 143.513 65.4334 140.975 66.396C138.437 67.3586 139.586 73.5226 143.392 74.3095C143.392 74.3095 144.757 74.6062 145.826 73.6717C145.826 73.6717 144.892 69.1185 144.744 67.3897Z" fill="#E88E80"/>
<path d="M141.479 68.5712C141.479 68.5712 143.603 67.8625 145.113 70.9924" stroke="#021833" stroke-width="0.461" stroke-miterlimit="10" stroke-linecap="round" stroke-linejoin="round"/>
<path d="M174.131 62.0783C174.132 66.0291 173.723 74.2925 171.162 79.2C168.758 83.8048 164.782 86.2837 159.569 86.4313C154.354 86.579 150.471 84.673 147.359 78.6951C144.247 72.7172 144.395 62.1521 144.395 62.1521C144.395 62.1521 144.395 48.0394 159.101 48.0394C174.591 48.0394 174.131 62.0783 174.131 62.0783Z" fill="#E88E80"/>
<path d="M144.744 67.3904C144.744 67.3904 150.329 54.6167 145.826 52.5276C145.826 52.5276 142.606 63.5222 144.744 67.3904Z" fill="#0B181B"/>
<path d="M173.845 67.3904C173.845 67.3904 170.706 60.5045 173.476 55.5468C173.476 55.5468 175.983 63.5222 173.845 67.3904Z" fill="#0B181B"/>
<path d="M154.093 70.5027C154.093 71.2453 153.492 71.8477 152.749 71.8477C152.007 71.8477 151.406 71.2453 151.406 70.5027C151.406 69.76 152.007 69.1592 152.749 69.1592C153.492 69.1592 154.093 69.76 154.093 70.5027Z" fill="#0B181B"/>
<path d="M166.54 70.5027C166.54 71.2453 165.939 71.8477 165.196 71.8477C164.453 71.8477 163.853 71.2453 163.853 70.5027C163.853 69.76 164.453 69.1592 165.196 69.1592C165.939 69.1592 166.54 69.76 166.54 70.5027Z" fill="#0B181B"/>
<path d="M158.298 73.4317L158.3 75.2462C158.301 75.7039 158.706 76.0464 159.14 75.9549L160.105 75.7526" stroke="#021833" stroke-width="0.461" stroke-miterlimit="10" stroke-linecap="round" stroke-linejoin="round"/>
<path d="M156.744 66.338L148.594 67.3169C148.594 67.3169 149.25 65.1555 152.579 64.7849C155.908 64.4143 156.744 66.338 156.744 66.338Z" fill="#0B181B"/>
<path d="M161.441 66.338L169.59 67.3169C169.59 67.3169 168.934 65.1555 165.605 64.7849C162.276 64.4143 161.441 66.338 161.441 66.338Z" fill="#0B181B"/>
<path d="M154.9 78.0348H163.127C163.127 78.0348 163.265 81.0968 159.002 80.9167C154.741 80.7366 154.9 78.0348 154.9 78.0348Z" fill="white"/>
<path d="M145.827 52.5265C145.827 52.5265 155.013 63.6555 174.453 59.9586C174.453 59.9586 176.165 49.9 166.114 46.8261C156.066 43.7523 148.225 51.0176 145.827 52.5265Z" fill="#0B181B"/>
<path d="M145.827 52.5261C145.827 52.5261 145.638 43.3917 154.093 42.0246C162.549 40.6545 162.819 45.1781 168.804 45.5398C177.739 46.0743 181.815 54.8618 174.453 59.9583L162.024 52.5261H145.827Z" fill="#0B181B"/>
<path d="M146.145 49.874C146.145 49.874 136.936 51.0064 142.627 65.6182L146.145 49.874Z" fill="#0B181B"/>
<path d="M152.347 90.2383L159.117 97.8609L154.093 103.003L147.655 93.2339L152.347 90.2383Z" fill="white"/>
<path d="M166.114 90.636L159.118 97.8614L164.143 103.002L171.332 93.2241L166.114 90.636Z" fill="white"/>
<path d="M256.216 166.466H60.415V155.62H256.216V166.466Z" fill="white"/>
<path d="M97.75 269.115H90.9438V166.466H97.75V269.115Z" fill="white"/>
<path d="M97.75 169.888H90.9438V166.466H97.75V169.888Z" fill="#EAEAEA"/>
<path d="M230.876 269.115H224.07V166.466H230.876V269.115Z" fill="white"/>
<path d="M230.876 169.888H224.07V166.466H230.876V169.888Z" fill="#EAEAEA"/>
<path d="M424 269.719H0" stroke="#55382E" stroke-width="1.147" stroke-miterlimit="10"/>
</svg>
