<svg width="20" height="24" viewBox="0 0 20 24" fill="none" xmlns="http://www.w3.org/2000/svg">
<path d="M19.0353 10.5776C19.2313 10.5776 19.3904 10.4185 19.3904 10.2224V4.65161C19.3904 4.20135 19.024 3.83496 18.5735 3.83496H17.1807V2.7345C17.1807 2.28369 16.8146 1.91766 16.3638 1.91766H14.9254V0.816833C14.9254 0.366577 14.5588 0 14.1085 0H4.3056C4.1095 0 3.95038 0.159119 3.95038 0.355042C3.95038 0.551147 4.1095 0.710266 4.3056 0.710266H14.1085C14.1671 0.710266 14.2151 0.758057 14.2151 0.816833V19.3484C14.2151 19.407 14.1671 19.4548 14.1085 19.4548C13.2272 19.4548 1.8941 19.4548 1.44183 19.4548C1.38306 19.4548 1.33527 19.407 1.33527 19.3484V0.816833C1.33527 0.758057 1.38306 0.710266 1.44183 0.710266H2.88507C3.08099 0.710266 3.24011 0.551147 3.24011 0.355042C3.24011 0.159119 3.08099 0 2.88507 0H1.44183C0.991577 0 0.625 0.366577 0.625 0.816833V19.3484C0.625 19.7986 0.991577 20.165 1.44183 20.165H2.88086V21.2655C2.88086 21.7163 3.2467 22.0823 3.69714 22.0823H5.09021V23.1832C5.09021 23.6334 5.4566 24 5.90686 24H18.5735C19.024 24 19.3904 23.6334 19.3904 23.1832V11.6429C19.3904 11.447 19.2313 11.2879 19.0353 11.2879C18.8389 11.2879 18.6801 11.447 18.6801 11.6429V23.1832C18.6801 23.2419 18.6323 23.2897 18.5735 23.2897H5.90686C5.84827 23.2897 5.80048 23.2419 5.80048 23.1832V22.0823H16.3638C16.8146 22.0823 17.1807 21.7163 17.1807 21.2655V16.3542C17.1807 16.1583 17.0219 15.9992 16.8254 15.9992C16.6293 15.9992 16.4704 16.1583 16.4704 16.3542V21.2655C16.4704 21.3243 16.423 21.3721 16.3638 21.3721C16.026 21.3721 4.03864 21.3721 3.69714 21.3721C3.63837 21.3721 3.59094 21.3243 3.59094 21.2655V20.165H14.1085C14.5588 20.165 14.9254 19.7986 14.9254 19.3484C14.9254 18.8298 14.9254 3.44879 14.9254 2.62793H16.3638C16.423 2.62793 16.4704 2.67572 16.4704 2.7345V4.54523V14.9339C16.4704 15.1304 16.6293 15.2889 16.8254 15.2889C17.0219 15.2889 17.1807 15.1304 17.1807 14.9339V4.54523H18.5735C18.6323 4.54523 18.6801 4.59302 18.6801 4.65161V10.2224C18.6801 10.4185 18.8389 10.5776 19.0353 10.5776Z" fill="white"/>
</svg>
