<?xml version="1.0"?>
<svg xmlns="http://www.w3.org/2000/svg" height="512px" viewBox="0 -24 494.00008 494" width="512px"><g><path d="m441.90625 0h-319.4375c-27.722656 0-50.277344 22.34375-50.277344 49.71875l-2.058594 281.28125h-62.339843c-4.417969 0-7.792969 3.90625-7.792969 8.324219v38.710937c0 36.238282 29 65.875 64 67.5v.464844h269v-.523438c2 .082032 3.210938.523438 4.585938.523438h.191406c37.328125-.21875 67.417968-30.644531 67.222656-67.972656v-246.027344h81.207031c4.417969 0 7.792969-4 7.792969-8.414062v-71.027344c.050781-28.867188-23.226562-52.351563-52.09375-52.558594zm-374.40625 430h-.054688c-28.457031 0-51.445312-23.519531-51.445312-51.972656v-31.027344h254v30.894531c-.0625 18.007813 7.050781 35.296875 19.765625 48.046875 1.351563 1.359375 2.765625 2.058594 4.210937 4.058594zm321.5-51.980469c0 28.460938-22.765625 51.980469-51.234375 51.980469h-.164063c-28.609374-.207031-51.667968-23.492188-51.601562-52.101562v-38.574219c.023438-4.480469-3.519531-8.167969-8-8.324219h-191.867188l2.058594-281.226562c0-18.605469 15.375-33.773438 34.277344-33.773438h281.667969c-9.117188 10-15.136719 22.652344-15.136719 36.773438zm89-325.320312v63.300781h-73v-63.242188c0-20.023437 16.65625-36.757812 36.671875-36.757812h.222656c20.066407.199219 36.199219 16.570312 36.105469 36.640625zm0 0" data-original="#000000" class="active-path" data-old_color="#000000" fill="#FFFBFB"/><path d="m187.855469 196.914062 41.246093 28.199219c2.691407 1.855469 6.25 1.855469 8.941407 0l41.121093-28.191406c14.285157-9.746094 24.835938-30.121094 24.835938-47.398437v-57.054688c.085938-3.015625-1.578125-5.8125-4.265625-7.183594l-62.800781-30.890625c-2.203125-1.09375-4.789063-1.09375-6.992188 0l-62.683594 30.804688c-2.6875 1.371093-4.347656 4.167969-4.257812 7.183593v57.140626c0 17.277343 10.574219 37.652343 24.855469 47.390624zm-8.855469-99.539062 54.5-26.890625 54.5 26.964844v52.074219c0 12.050781-7.898438 27.378906-17.863281 34.171874l-36.730469 25.121094-36.585938-25.117187c-9.964843-6.800781-17.820312-22.125-17.820312-34.175781zm0 0" data-original="#000000" class="active-path" data-old_color="#000000" fill="#FFFBFB"/><path d="m219.96875 161.601562c1.492188 1.523438 3.53125 2.386719 5.664062 2.398438h.019532c2.125-.007812 4.160156-.859375 5.65625-2.367188l31.824218-31.835937c3.128907-3.125 3.128907-8.195313.003907-11.320313-3.121094-3.128906-8.191407-3.128906-11.316407-.003906l-26.140624 26.136719-10.449219-10.550781c-3.113281-3.140625-8.179688-3.164063-11.320313-.050782-3.140625 3.113282-3.160156 8.179688-.050781 11.320313zm0 0" data-original="#000000" class="active-path" data-old_color="#000000" fill="#FFFBFB"/><path d="m333 248h-192c-4.417969 0-8 3.582031-8 8s3.582031 8 8 8h192c4.417969 0 8-3.582031 8-8s-3.582031-8-8-8zm0 0" data-original="#000000" class="active-path" data-old_color="#000000" fill="#FFFBFB"/><path d="m333 285h-192c-4.417969 0-8 3.582031-8 8s3.582031 8 8 8h192c4.417969 0 8-3.582031 8-8s-3.582031-8-8-8zm0 0" data-original="#000000" class="active-path" data-old_color="#000000" fill="#FFFBFB"/></g> </svg>
