<svg width="24" height="24" viewBox="0 0 24 24" fill="none" xmlns="http://www.w3.org/2000/svg">
<g clip-path="url(#clip0)">
<path d="M2.66315 7.20267C4.01696 5.13578 6.12842 3.61156 8.59853 3.01435C8.78886 2.96874 8.94563 2.83399 9.01904 2.65309C9.09297 2.47168 9.07514 2.26614 8.97132 2.09993C8.18064 0.839447 6.78173 0 5.18359 0C2.71296 0 0.708984 2.00293 0.708984 4.47355C0.708984 5.52221 1.07129 6.48539 1.67637 7.24724C1.79749 7.40087 1.9852 7.48581 2.18077 7.4769C2.37634 7.46798 2.55619 7.36574 2.66315 7.20267Z" fill="#091429"/>
<path d="M18.8147 0C17.2239 0 15.8297 0.831582 15.0374 2.08367C14.9326 2.24936 14.9142 2.45647 14.9882 2.63894C15.0626 2.82193 15.2199 2.95615 15.4123 3.00125C17.8893 3.5843 20.0081 5.09803 21.3734 7.15811C21.4819 7.3217 21.6628 7.42289 21.8595 7.42971C22.0561 7.43705 22.2427 7.34896 22.3633 7.19324C22.9427 6.4403 23.2893 5.49861 23.2893 4.47408C23.2877 2.00293 21.2853 0 18.8147 0Z" fill="#091429"/>
<path d="M21.8894 13.7015C21.8894 11.9744 21.4401 10.3511 20.6567 8.93856C19.2049 6.32217 16.5974 4.44141 13.5285 3.97056C13.0393 3.89559 12.5428 3.84473 12.0326 3.84473C11.4999 3.84473 10.9808 3.89926 10.4706 3.98105C7.41485 4.4713 4.82048 6.35992 3.38383 8.97946C2.61464 10.3826 2.17578 11.9912 2.17578 13.7015C2.17578 16.6304 3.4672 19.2578 5.50158 21.0636L4.67105 22.2334C4.31346 22.7373 4.43196 23.4346 4.93584 23.7933C5.13246 23.9327 5.35844 24.0004 5.58233 24.0004C5.93258 24.0004 6.27759 23.8363 6.49518 23.5295L7.32519 22.3603C8.72462 23.1242 10.3285 23.5594 12.0326 23.5594C13.7361 23.5594 15.34 23.1242 16.7395 22.3603L17.5695 23.5295C17.7876 23.8368 18.1321 24.0004 18.4823 24.0004C18.7062 24.0004 18.9317 23.9327 19.1283 23.7933C19.6322 23.4346 19.7512 22.7373 19.3936 22.2334L18.5631 21.0636C20.5975 19.2578 21.8894 16.6304 21.8894 13.7015ZM12.0331 20.802C8.11745 20.802 4.93269 17.6172 4.93269 13.7015C4.93269 12.4809 5.24257 11.3321 5.78682 10.3275C6.82289 8.41685 8.71256 7.0405 10.9389 6.69392C11.2964 6.63834 11.6598 6.60059 12.0331 6.60059C12.3844 6.60059 12.7279 6.63467 13.066 6.68448C15.3112 7.01376 17.2213 8.39011 18.2695 10.3091C18.82 11.3174 19.133 12.4725 19.133 13.701C19.133 17.6172 15.9483 20.802 12.0331 20.802Z" fill="#091429"/>
<path d="M16.0118 15.3631L13.3031 13.6905C13.247 13.3738 13.0756 13.1007 12.8349 12.9072L12.9586 9.5085C12.9738 9.07436 12.6351 8.70995 12.2015 8.6937C11.7689 8.67377 11.403 9.01668 11.3867 9.45083L11.2624 12.8532C10.9263 13.0902 10.7051 13.4803 10.7051 13.9233C10.7051 14.6474 11.2918 15.2336 12.0159 15.2336C12.222 15.2336 12.4144 15.1817 12.5874 15.0973L15.1854 16.7028C15.3144 16.7814 15.4576 16.8197 15.5981 16.8197C15.8618 16.8197 16.1187 16.6876 16.2682 16.4469C16.4968 16.0762 16.3814 15.5917 16.0118 15.3631Z" fill="#091429"/>
</g>
<defs>
<clipPath id="clip0">
<rect width="24" height="24" fill="white"/>
</clipPath>
</defs>
</svg>
