<svg width="24" height="24" viewBox="0 0 24 24" fill="none" xmlns="http://www.w3.org/2000/svg">
<g clip-path="url(#clip0)">
<path d="M23.9994 16.2426C23.9994 13.2643 22.2908 10.6064 19.7319 9.31348C19.6525 15.0238 15.0228 19.6534 9.3125 19.7329C10.6054 22.2918 13.2634 24.0004 16.2416 24.0004C17.6379 24.0004 18.9958 23.6285 20.189 22.9219L23.9655 23.9665L22.9209 20.1899C23.6275 18.9968 23.9994 17.6389 23.9994 16.2426Z" fill="#091429"/>
<path d="M18.3281 9.16406C18.3281 4.1109 14.2172 0 9.16406 0C4.1109 0 0 4.1109 0 9.16406C0 10.8109 0.438354 12.4144 1.27075 13.8221L0.0336914 18.2943L4.50604 17.0574C5.91376 17.8898 7.51721 18.3281 9.16406 18.3281C14.2172 18.3281 18.3281 14.2172 18.3281 9.16406ZM7.75781 7.03125H6.35156C6.35156 5.48035 7.61316 4.21875 9.16406 4.21875C10.715 4.21875 11.9766 5.48035 11.9766 7.03125C11.9766 7.81842 11.6433 8.57501 11.062 9.10675L9.86719 10.2003V11.2969H8.46094V9.58099L10.1125 8.06927C10.4077 7.79919 10.5703 7.4306 10.5703 7.03125C10.5703 6.2558 9.93951 5.625 9.16406 5.625C8.38861 5.625 7.75781 6.2558 7.75781 7.03125ZM8.46094 12.7031H9.86719V14.1094H8.46094V12.7031Z" fill="#091429"/>
</g>
<defs>
<clipPath id="clip0">
<rect width="24" height="24" fill="white"/>
</clipPath>
</defs>
</svg>
